<svg version="1.1" id="Layer_1" xmlns="http://www.w3.org/2000/svg" xmlns:xlink="http://www.w3.org/1999/xlink" x="0px" y="0px"
	 width="214.66699px" height="504px" viewBox="0 0 214.66699 504" enable-background="new 0 0 214.66699 504" xml:space="preserve">
<g>
	<path stroke="#000000" stroke-width="7.90802" stroke-miterlimit="10" d="M43.25977,316.76953
		c0,0-2.58008,12.85059-11.22314,11.56641c-8.64746-1.28516-0.45459-3.53613,0.30127-4.6582
		c0.75781-1.12695-6.06543-1.44629-6.6748,7.70898c-0.60303,9.15723,4.24805,10.92871,5.61377,11.08398
		c1.36475,0.16504-6.67285,2.57324-10.92041-10.9248c0,0-1.21191,16.87109,16.9873,15.74805c0,0-8.49414,18.63281-0.75732,25.06152
		c0,0-2.88135-12.0498,5.91211-19.11914c0,0-1.51416,19.27637,1.97461,24.41504c0,0-6.67529,15.10059-17.44189,13.17676
		c0,0,5.00537,4.81738,17.44189-4.66016c0,0-0.75977,13.65332-6.22021,17.0293c0,0,4.24561,0.96387,11.52686-9.15723
		c0,0,1.36572-3.85742,1.67139,2.89258c0.30273,6.74609,8.18848,21.04102,14.86035,20.39941c0,0-10.46387-6.74609-11.07129-14.61816
		c0,0,5.61182,7.39063,8.94873,7.39063c0,0-10.46436-11.08691,0.75879-17.83203c0,0-0.15186,17.67285,10.0083,22.96875
		c0,0-1.06055-3.0498,0-4.65527c1.06348-1.60547,4.25049,5.14063,2.88428,7.71387
		c-1.36475,2.56641-3.94482,10.91797-8.34277,11.4043c-4.39941,0.48047-4.39941-2.57422-3.79004-3.21484
		c0,0-4.39893,2.72852-0.30371,4.98145c4.09375,2.24609,8.18994,0,9.25146-0.64746c1.06152-0.63867-1.66846,5.78418-6.67529,6.91016
		c0,0,1.36621,3.53516,7.88672-1.28516c6.52051-4.82129,8.19287-9.31836,8.19287-9.31836s4.854,10.9209,8.79492,11.24805
		c0,0-5.91455-5.94531-3.48682-13.97656c2.42383-8.03125,2.42383,7.06934,5.46045,8.83398c0,0-1.06348-11.72461,3.94189-11.40723
		c5.00586,0.32031,2.07666,20.31934-0.65137,23.05176c-2.73047,2.73242-7.99316,6.83105-6.32715-2.80859
		c0,0-5.76123,1.12305-4.09424,9.63965c1.67041,8.51563,18.50537,16.86719,31.39648,1.28418
		c5.44629-6.58105,7.12598-13.17285,7.12598-13.17285s4.09668,7.55371-3.79199,14.61719c0,0,5.31152,1.28516,9.55762-9.63672
		c4.24707-10.92383,3.48926-15.58496,3.33496-18.63672c-0.15137-3.0498,2.73242,11.56738,13.65234,13.65625
		c0,0-6.21582-3.85547-8.19141-10.44336c-1.9707-6.58301,3.63867,4.33789,5.76367,4.5
		c2.12402,0.15918-9.25098-7.38965,0.4541-17.34961c0,0,3.94727,2.56738,5.1582,6.2666
		c1.21094,3.69336,1.5166-2.41113,3.6416-4.82227c2.12109-2.4082,8.03613-1.44434,11.8291-2.4082
		c3.79395-0.96289,10.61719-6.90723,5.00293-13.33301c0,0,0,4.17773-1.96777,4.82031
		c-1.97266,0.63965-11.68066-0.48633-2.27734-22.1709c0,0,2.82031,6.07715-0.21191,15.07324c0,0,4.61035-4.14844,6.7334-11.37891
		c2.125-7.22852,2.5791-20.88184,2.5791-20.88184s3.63867,11.88965-1.97363,28.1123c0,0,10.4668-12.53223,3.18652-41.60547
		c0,0,11.37598-2.73535,13.34863-6.58789c1.97168-3.85449-11.37695,4.01465-11.07324-8.51563c0,0,6.97656,2.73438,3.6416-0.47656
		c-3.33887-3.21582-10.31543-19.60449-2.88281-23.45898c0,0,2.57617,1.60742,1.0625,6.10352c0,0,1.06348,2.41211,1.96973-2.24902
		c0.9082-4.6582,3.18555-8.51074-4.70117-26.18555c-1.31055-2.93652,6.21875,7.71582,7.73438,13.01465
		c0,0-3.0332-17.34863-7.58398-20.40137c0,0,10.76953,0.32129,11.22461-4.17871c0,0-3.64063,3.05371-8.34082,0.64355
		c-4.70313-2.4082-11.52734-11.24316-8.49414-20.71973c3.03418-9.48145,2.42773,12.04688,2.42773,12.04688
		s3.79102-1.93066,4.70117-24.90186c0.35645-9.02441,1.51855-8.99512,0.91309-10.27832
		c-0.6123-1.28516,5.45703,6.74463,17.73926,3.53223c0,0-16.52637-6.74805-17.73926-19.27783
		c-1.21875-12.53027-0.76172-20.07813,4.39551-3.53174c5.15625,16.54395-1.0625-14.94043-5.00781-19.76025
		c-3.93945-4.82031-12.8916-13.17432-12.8916-13.17432s12.74219-4.33691,6.97852,4.1792c0,0,2.12402,2.89014,4.85352-0.96533
		c2.73242-3.854-1.36523-13.49463-4.09375-13.65234c-2.73145-0.16504,7.2793-2.57324,8.49219-5.78516
		c0,0-7.27832,2.24756-13.49902,1.92725c0,0,10.16016-5.14063,10.92188-5.94287c0.75879-0.80469-19.86914,4.33691-24.11816,3.85449
		c-4.24316-0.48242,12.59082-6.42578,14.25781-13.49658c0,0-15.31641,7.0708-35.18652,4.02246c0,0,9.55273-9.64258,16.68555-1.93262
		c0,0,5.30566-2.56689-5.30859-7.54883c0,0-5.00684-1.12646-6.2207-0.64355c-1.21484,0.48242,4.85449-9.15527,0.75781-11.72607
		c0,0-0.90625,6.42627-6.6709,7.87061c-5.76465,1.44678-8.79883,6.10547-28.81934,1.60596c0,0,14.41016-3.05029,14.56055-5.93994
		c0.15332-2.89404-2.88379,0.7998-11.8291,1.28223c-8.9502,0.48047-18.80811,1.28516-24.26709,0.16113
		c-5.46094-1.12451,5.30859-4.3374,1.36426-14.93896c0,0-5.30664,14.45557-17.29053,14.77783
		c-11.98047,0.32275-17.59326,6.10449-17.89795,8.51465c-0.30322,2.41211-3.33447,0.48096-3.63916-6.74658
		c-0.30273-7.22852-4.70068,3.69385-5.7627,10.92383c-1.06445,7.22754,0.55469,12.42334,1.56641,13.27881
		c1.01074,0.85645-3.25928-13.01758-8.38477-17.70313c0,0,0.90234,16.41748,7.37305,20.91455c0,0-6.87451-1.28467-10.11084-0.64063
		c-3.23535,0.64063,8.4917,1.9292,11.12256,3.64014c2.62891,1.71436-11.12256,2.78809-11.93164,5.78223
		c0,0,8.89893-2.99414,11.93164-3.2124c3.03516-0.21143-9.70557,9.42822-9.50244,12.8501c0,0,2.82764-3.63867,6.06348-3.85254
		c3.23779-0.21338-1.21143,9.42529-9.50195,11.35352c-8.29199,1.92578-4.24854,3.64111-4.24854,3.64111l8.90039-0.64355
		c0,0-5.86523,14.13574-16.38184,11.56885c0,0,3.03369,3.42578,8.89746,1.06787c0,0-8.49219,10.49512-7.68311,13.92188
		c0,0,2.82959-4.71143,6.67334-5.56934c3.84229-0.85498-7.28271,21.84717,1.41406,34.70166c0,0-1.01025-12.20996,1.82031-16.27783
		c0,0,1.41406-2.78516,1.41406,5.35449c0,8.13623,3.23828,23.55908,4.04639,21.20264
		c0.80713-2.35547-4.65186,19.92285-1.21338,23.13184c0,0,1.81934-11.56445,4.65137-14.13574
		C43.15723,273.44824,49.021,303.75781,43.25977,316.76953z"/>
	<path fill="#67652F" d="M43.25977,316.76953c0,0-2.58008,12.85059-11.22314,11.56641
		c-8.64746-1.28516-0.45459-3.53613,0.30127-4.6582c0.75781-1.12695-6.06543-1.44629-6.6748,7.70898
		c-0.60303,9.15723,4.24805,10.92871,5.61377,11.08398c1.36475,0.16504-6.67285,2.57324-10.92041-10.9248
		c0,0-1.21191,16.87109,16.9873,15.74805c0,0-8.49414,18.63281-0.75732,25.06152c0,0-2.88135-12.0498,5.91211-19.11914
		c0,0-1.51416,19.27637,1.97461,24.41504c0,0-6.67529,15.10059-17.44189,13.17676c0,0,5.00537,4.81738,17.44189-4.66016
		c0,0-0.75977,13.65332-6.22021,17.0293c0,0,4.24561,0.96387,11.52686-9.15723c0,0,1.36572-3.85742,1.67139,2.89258
		c0.30273,6.74609,8.18848,21.04102,14.86035,20.39941c0,0-10.46387-6.74609-11.07129-14.61816c0,0,5.61182,7.39063,8.94873,7.39063
		c0,0-10.46436-11.08691,0.75879-17.83203c0,0-0.15186,17.67285,10.0083,22.96875c0,0-1.06055-3.0498,0-4.65527
		c1.06348-1.60547,4.25049,5.14063,2.88428,7.71387c-1.36475,2.56641-3.94482,10.91797-8.34277,11.4043
		c-4.39941,0.48047-4.39941-2.57422-3.79004-3.21484c0,0-4.39893,2.72852-0.30371,4.98145
		c4.09375,2.24609,8.18994,0,9.25146-0.64746c1.06152-0.63867-1.66846,5.78418-6.67529,6.91016c0,0,1.36621,3.53516,7.88672-1.28516
		c6.52051-4.82129,8.19287-9.31836,8.19287-9.31836s4.854,10.9209,8.79492,11.24805c0,0-5.91455-5.94531-3.48682-13.97656
		c2.42383-8.03125,2.42383,7.06934,5.46045,8.83398c0,0-1.06348-11.72461,3.94189-11.40723
		c5.00586,0.32031,2.57861,21.84863-0.15137,24.58008c-2.73047,2.73535-8.49316,5.30273-6.82715-4.33691
		c0,0-5.76123,1.12305-4.09424,9.63965c1.67041,8.51563,18.50537,16.86719,31.39648,1.28418
		c5.44629-6.58105,7.12598-13.17285,7.12598-13.17285s4.09668,7.55371-3.79199,14.61719c0,0,5.31152,1.28516,9.55762-9.63672
		c4.24707-10.92383,3.48926-15.58496,3.33496-18.63672c-0.15137-3.0498,2.73242,11.56738,13.65234,13.65625
		c0,0-6.21582-3.85547-8.19141-10.44336c-1.9707-6.58301,3.63867,4.33789,5.76367,4.5
		c2.12402,0.15918-9.25098-7.38965,0.4541-17.34961c0,0,3.94727,2.56738,5.1582,6.2666
		c1.21094,3.69336,1.5166-2.41113,3.6416-4.82227c2.12109-2.4082,8.03613-1.44434,11.8291-2.4082
		c3.79395-0.96289,10.61719-6.90723,5.00293-13.33301c0,0,0,4.17773-1.96777,4.82031
		c-1.97266,0.63965-11.68066-0.48633-2.27734-22.1709c0,0,3.48828,2.40918,0.45605,11.40723c0,0,3.94238-0.48242,6.06543-7.71289
		c2.125-7.22852,2.5791-20.88184,2.5791-20.88184s3.63867,11.88965-1.97363,28.1123c0,0,10.4668-12.53223,3.18652-41.60547
		c0,0,11.37598-2.73535,13.34863-6.58789c1.97168-3.85449-11.37695,4.01465-11.07324-8.51563c0,0,2.94043,9.41895,7.1875,0.74512
		c0,0-1.77344,1.36426-3.5459-1.22168c-2.62109-3.8252-10.31543-19.60449-2.88281-23.45898c0,0,2.57617,1.60742,1.0625,6.10352
		c0,0,1.06348,2.41211,1.96973-2.24902c0.9082-4.6582,3.18555-8.51074-4.70117-26.18555
		c-1.31055-2.93652,6.21875,7.71582,7.73438,13.01465c0,0-3.0332-17.34863-7.58398-20.40137c0,0,10.76953,0.32129,11.22461-4.17871
		c0,0-3.64063,3.05371-8.34082,0.64355c-4.70313-2.4082-11.52734-11.24316-8.49414-20.71973
		c3.03418-9.48145,2.42773,12.04688,2.42773,12.04688s3.79102-1.93066,4.70117-24.90186
		c0.35645-9.02441,1.51855-8.99512,0.91309-10.27832c-0.6123-1.28516,5.45703,6.74463,17.73926,3.53223
		c0,0-16.52637-6.74805-17.73926-19.27783c-1.21875-12.53027-1.32422-19.46631,3.83105-2.91943
		c5.15723,16.5459-0.49805-15.55273-4.44336-20.37256c-3.93945-4.82031-12.8916-13.17432-12.8916-13.17432
		s12.74219-4.33691,6.97852,4.1792c0,0,2.12402,2.89014,4.85352-0.96533c2.73242-3.854-1.36523-13.49463-4.09375-13.65234
		c-2.73145-0.16504,7.2793-2.57324,8.49219-5.78516c0,0-7.27832,2.24756-13.49902,1.92725c0,0,10.16016-5.14063,10.92188-5.94287
		c0.75879-0.80469-19.86914,4.33691-24.11816,3.85449c-4.24316-0.48242,12.59082-6.42578,14.25781-13.49658
		c0,0-15.31641,7.0708-35.18652,4.02246c0,0,9.55273-9.64258,16.68555-1.93262c0,0,5.30566-2.56689-5.30859-7.54883
		c0,0-5.00684-1.12646-6.2207-0.64355c-1.21484,0.48242,4.85449-9.15527,0.75781-11.72607c0,0-0.90625,6.42627-6.6709,7.87061
		c-5.76465,1.44678-8.79883,6.10547-28.81934,1.60596c0,0,14.41016-3.05029,14.56055-5.93994
		c0.15332-2.89404-2.88379,0.7998-11.8291,1.28223c-8.9502,0.48047-18.80811,1.28516-24.26709,0.16113
		c-5.46094-1.12451,5.30859-4.3374,1.36426-14.93896c0,0-5.30664,14.45557-17.29053,14.77783
		c-11.98047,0.32275-17.59326,6.10449-17.89795,8.51465c-0.30322,2.41211-3.33447,0.48096-3.63916-6.74658
		c-0.30273-7.22852-4.70068,3.69385-5.7627,10.92383c-1.06445,7.22754,0.55469,12.42334,1.56641,13.27881
		c1.01074,0.85645-6.33398-14.69971-9.77441-18.58105c0,0,2.29199,17.29541,8.7627,21.79248c0,0-6.87451-1.28467-10.11084-0.64063
		c-3.23535,0.64063,8.4917,1.9292,11.12256,3.64014c2.62891,1.71436-11.12256,2.78809-11.93164,5.78223
		c0,0,8.89893-2.99414,11.93164-3.2124c3.03516-0.21143-9.70557,9.42822-9.50244,12.8501c0,0,2.82764-3.63867,6.06348-3.85254
		c3.23779-0.21338-1.21143,9.42529-9.50195,11.35352c-8.29199,1.92578-4.24854,3.64111-4.24854,3.64111l8.90039-0.64355
		c0,0-5.86523,14.13574-16.38184,11.56885c0,0,3.03369,3.42578,8.89746,1.06787c0,0-8.49219,10.49512-7.68311,13.92188
		c0,0,2.82959-4.71143,6.67334-5.56934c3.84229-0.85498-8.36914,24.14795,4.81055,40.25732c0,0-4.40674-17.76563-1.57617-21.8335
		c0,0,1.41406-2.78516,1.41406,5.35449c0,8.13623,8.3667,17.82764,3.31201,21.89697c0,0-0.07373,1.66211,0.73438-0.69434
		c0.80713-2.35547-4.65186,19.92285-1.21338,23.13184c0,0,1.81934-11.56445,4.65137-14.13574
		C43.15723,273.44824,49.021,303.75781,43.25977,316.76953z"/>
	<path d="M150.81641,274.15332c0,0,1.69336,11.66895,7.37402,10.50293c5.67969-1.16797,0.2998-3.20898-0.2002-4.23145
		c-0.49902-1.02246,3.98438-1.31348,4.38477,7.00293c0.39551,8.31348-2.78711,9.92188-3.68555,10.06348
		c-0.89746,0.14941,4.38574,2.33496,7.1709-9.91797c0,0,0.7998,15.31641-11.1582,14.29688c0,0,5.58008,16.92285,0.49805,22.75977
		c0,0,1.8916-10.94434-3.88477-17.36133c0,0,0.99512,17.50195-1.29492,22.17285c0,0,4.38477,13.71094,11.45703,11.96289
		c0,0-3.28711,4.37207-11.45703-4.23242c0,0,0.49609,12.39941,4.08398,15.46484c0,0-2.78906,0.87305-7.57324-8.31348
		c0,0-0.89551-3.50488-1.0957,2.62207c-0.19824,6.125-5.38184,19.10938-9.7666,18.52637c0,0,6.88086-6.125,7.27734-13.27441
		c0,0-3.68652,6.71094-5.87695,6.71094c0,0,6.87207-10.06543-0.5-16.19141c0,0,0.09668,16.04102-6.57813,20.85547
		c0,0,0.69824-2.7666,0-4.22559c-0.69629-1.46191-2.78906,4.66602-1.89063,7.00098
		c0.89551,2.33496,2.58887,9.91895,5.48145,10.35449c2.88477,0.44043,2.88477-2.33203,2.48828-2.91504
		c0,0,2.88965,2.47949,0.19824,4.52051c-2.68652,2.04688-5.38184,0-6.0752-0.58496c-0.69824-0.58008,1.0957,5.25195,4.38281,6.27832
		c0,0-0.89453,3.20508-5.18164-1.1709c-4.28418-4.375-5.38184-8.45996-5.38184-8.45996s-3.18945,9.91602-5.77734,10.21289
		c0,0,3.88379-5.39941,2.29102-12.69238c-1.59375-7.2959-1.59375,6.41699-3.59082,8.02344c0,0,0.70117-10.64941-2.58594-10.36133
		c-3.29004,0.29492-1.69336,19.84473,0.09668,22.32324c1.7959,2.48145,5.58105,4.81348,4.48633-3.94043
		c0,0,3.78711,1.01953,2.69043,8.75391c-1.09668,7.7334-12.1582,15.31543-20.62646,1.16699
		c-3.57617-5.97852-4.68359-11.96289-4.68359-11.96289s-2.68799,6.8584,2.49561,13.27734c0,0-3.49023,1.16504-6.27881-8.75391
		c-2.78857-9.92188-2.29199-14.15039-2.19238-16.92188c0.09912-2.77148-1.79346,10.50586-8.96826,12.39844
		c0,0,4.08301-3.50098,5.37939-9.48047c1.29541-5.98145-2.39111,3.94141-3.78418,4.08203
		c-1.39697,0.14453,6.07666-6.70801-0.30029-15.75293c0,0-2.59229,2.33496-3.3877,5.68945
		c-0.79639,3.35547-0.99463-2.18848-2.39014-4.37695c-1.396-2.18848-5.28271-1.3125-7.77344-2.18848
		c-2.49072-0.87305-6.97705-6.27246-3.28857-12.10645c0,0,0,3.79395,1.29492,4.37598
		c1.29541,0.58496,7.67383-0.43457,1.49756-20.13184c0,0-2.29346,2.18848-0.30029,10.36035c0,0-2.5918-0.4375-3.98633-7.00781
		c-1.39453-6.56055-1.69482-18.95801-1.69482-18.95801s-2.39014,10.79102,1.29688,25.52832c0,0-6.87402-11.38086-2.0918-37.78418
		c0,0-7.47217-2.47852-8.77002-5.98047c-1.29346-3.50391,7.4751,3.64453,7.27441-7.7334c0,0-4.38184,6.12695-7.1748-1.75
		c0,0,2.59082,4.2334,4.78418,1.31641c2.19385-2.9209,6.77588-17.80176,1.89111-21.30078L150.81641,274.15332z"/>
	<path d="M81.92236,174.99658c0.40869,1.4375-3.67627-5.07178-14.65332-4.17676c0,0,6.47461,0.76855,8.97998,3.58594
		c2.50684,2.81396-3.96484-1.44971-6.07959-1.1582c-2.11475,0.29346,9.77441,1.9375,1.01367,8.40381
		c0,0-4.11768-0.55029-5.63037-2.1084c-1.51172-1.56445-1.29492,1.41699-3.19287,2.94043
		c-1.89551,1.52881-7.82813,2.09375-11.49805,3.21631c-3.66846,1.12061-9.92041,5.15918-3.8252,7.26367
		c0,0-0.35449-2.00146,1.5415-2.65234c1.89697-0.65234,11.59375-1.80225,4.12012,10.23584c0,0-3.65283-0.54639-1.41162-5.38916
		c0,0-3.86084,0.91748-5.34912,4.75195c-1.49023,3.83691-0.7915,10.46533-0.7915,10.46533s-4.60156-5.07031-0.41846-13.82715
		c0,0-9.29443,7.82813,0.35791,20.51074c0,0-11.02197,3.28809-12.64648,5.48193c-1.62549,2.18848,10.91309-3.90723,11.67041,2.1582
		c0,0-7.17285-2.07617-10.64014,2.82275c0,0,3.50684-2.92041,7.07861-1.96094c3.5708,0.96143,11.85303,7.60693,4.8291,10.75049
		c0,0-2.68896-0.32373-1.56543-2.74414c0,0-1.25391-0.96973-1.76074,1.42188c-0.50781,2.39258-2.43457,4.6377,6.85791,11.74268
		c1.5459,1.18164-6.79932-2.61621-8.74854-4.89551c0,0,4.46289,7.79297,9.22217,8.4668c0,0-10.67822,1.71875-10.75,3.95605
		c0,0,3.34375-2.1001,8.19727-1.75879c4.85352,0.33838,12.34912,3.3916,10.14893,8.45996L81.92236,174.99658z"/>
	<path d="M128.18066,261.43164c12.70117-0.1084,18.64844-2.04102,18.97168-2.84961c0.32129-0.80566,3.53613-0.16211,3.85645,2.25879
		c0.32227,2.41895,4.9873-1.23633,6.10938-3.65723c1.125-2.41895-0.58789-4.15625-1.66113-4.44482
		c-1.07129-0.28711,7.93164,2.43701,8.14648,4.87549c0,0-0.21484-4.44629-7.07324-5.95215c0,0,7.28711,0.43262,10.7168,0.21777
		c3.42871-0.21777-9.00391-0.64502-11.79004-1.21826c-2.78613-0.57471,11.79004-0.93311,12.64648-1.93506
		c0,0-9.42969,1.00195-12.64648,1.07227c-3.21289,0.07275,10.28906-3.1543,10.07715-4.29883c0,0-3.00195,1.21777-6.43262,1.28955
		c-3.43066,0.0708,1.28711-3.15332,10.07422-3.7998c8.78906-0.64502,4.50098-1.21826,4.50098-1.21826l-9.43164,0.21338
		c0,0,6.2168-4.72998,17.36328-3.87158c0,0-3.21484-1.14355-9.43262-0.35547c0,0,9.00488-3.51465,8.14648-4.66113
		c0,0-3.00098,1.57813-7.07324,1.86133c-4.07324,0.29004,7.71387-7.31006-1.50098-11.6123c0,0,1.07227,4.08789-1.92969,5.44873
		c0,0-1.49902,0.93311-1.49902-1.79053c0-2.72314-4.28906-7.09863,1.07227-8.45996c0,0-4.50293,0.57324-5.36133,1.36133
		c-0.85449,0.79053,4.93066-6.66553,1.28906-7.74121c0,0-1.93066,3.87158-4.93066,4.73291
		c-3.00293,0.85938-9.21973-9.2832-3.1084-13.63965c0,0,2.73145-4.30078,11.89551-3.86816
		c9.16406,0.42578,0.48242,1.18164-0.31934,1.55811c-0.80469,0.37402,6.42773,0.48242,7.07129-2.58203
		c0.64258-3.06396-4.50195-3.65527-5.94824-3.71045c-1.44727-0.05371,7.07422-0.86182,11.57617,3.65674
		c0,0,1.28516-5.64551-18.00684-5.27051c0,0,9.00391-6.23389,0.80371-8.38721c0,0,3.05469,4.03418-6.26953,6.39844
		c0,0,1.6084-6.45215-2.08691-8.17285c0,0,7.07129-5.0542,18.48535-4.40771c0,0-5.30566-1.6123-18.48535,1.55957
		c0,0,0.80176-4.57031,6.58887-5.69873c0,0-4.50195-0.32227-12.21777,3.06348c0,0-1.44629,1.29248-1.76855-0.96777
		c-0.32031-2.2583-8.68164-7.04199-15.75488-6.82813c0,0,11.09277,2.25879,11.7373,4.89404c0,0-5.9502-2.47412-9.48633-2.47412
		c0,0,11.09082,3.71045-0.80371,5.96777L128.18066,261.43164z"/>
	<path fill="#C5C19D" stroke="#000000" stroke-width="4.39334" stroke-miterlimit="10" d="M106.84131,143.85596
		c0,0,41.53076,1.52344,45.71436,48.70898c4.18848,47.18506,16.36328,47.56592,18.64844,48.70801
		c2.2832,1.14209-1.9043,47.9458-23.97266,49.84717c0,0-8.75293,79.15039-39.95654,79.15039h-0.06738
		c-31.20508,0-39.95459-79.15039-39.95459-79.15039c-22.0708-1.90137-26.25879-48.70508-23.97461-49.84717
		s14.46191-1.52295,18.64355-48.70801C66.11133,145.37939,106.84131,143.85596,106.84131,143.85596z"/>
	<g>
		<g>
			<path fill="#727A35" stroke="#000000" stroke-width="2.63601" stroke-miterlimit="10" d="M128.24219,249.67627
				L128.24219,249.67627c-5.55273,0-9.64648-2.17432-11.52148-6.11768c-1.28906-2.71045-1.42578-6.00342-0.37988-9.03857
				c2.06152-5.97363,7.50488-10.14746,13.24316-10.14746c0.55176,0,1.10547,0.03955,1.64258,0.11963
				c4.67871,0.69092,10.88281,3.67334,13.46289,8.58447c1.24121,2.35498,1.45215,5.31787,0.55859,7.9126
				c-1.99707,5.8252-8.77051,7.83838-14.10254,8.50146C130.15332,249.61426,129.17871,249.67627,128.24219,249.67627z"/>
		</g>
		<g>
			<path d="M128.24219,249.33594L128.24219,249.33594c-5.55273,0-9.64648-2.22852-11.52148-6.27344
				c-1.28906-2.77832-1.42578-6.1582-0.37988-9.27344c2.06152-6.12695,7.50488-10.40869,13.24316-10.40869
				c0.55176,0,1.10547,0.04395,1.64258,0.12305c4.67871,0.70996,10.88281,3.76807,13.46289,8.80566
				c1.24121,2.42041,1.45215,5.4541,0.55859,8.11865c-1.99707,5.97266-8.77051,8.03662-14.10254,8.71875
				C130.15332,249.27051,129.17871,249.33594,128.24219,249.33594z"/>
		</g>
		<path fill="#E31B23" d="M119.74609,232.6543c-1.46094,4.34473,3.11523,7.28223,10.20703,6.37939
			c7.08984-0.90088,11.65527-4.06104,10.21094-6.87158c-1.44043-2.81738-6.01563-5.52637-10.19824-6.15967
			C125.77832,225.375,121.20898,228.30371,119.74609,232.6543z"/>
		<ellipse cx="127.28223" cy="230.24414" rx="3.21973" ry="4.43506"/>
		<g>
			<path d="M119.78809,232.66748c-0.36426,1.05127-0.35547,2.24902,0.18164,3.21143c0.53711,0.95703,1.4541,1.625,2.44531,2.04443
				c2.0127,0.82031,4.24414,0.95215,6.43359,0.85303c2.20215-0.12695,4.43457-0.42822,6.53125-1.18994
				c1.05176-0.3623,2.05762-0.86572,2.9502-1.5127c0.88086-0.62939,1.6875-1.51221,1.83008-2.52734
				c0.14746-1.01611-0.6543-1.90088-1.35254-2.68848c-0.75293-0.77734-1.63477-1.43359-2.56055-2.01318
				c-1.86426-1.14111-3.94824-1.94434-6.08008-2.33398c-2.08984-0.40576-4.28906,0.11377-6.17871,1.1958
				C122.10156,228.78809,120.49902,230.53662,119.78809,232.66748z M119.7041,232.64111
				c0.71973-2.13086,2.09473-4.06396,3.96973-5.41992c1.85449-1.35791,4.30371-2.05615,6.65234-1.63379
				c2.28711,0.39453,4.43945,1.30957,6.36523,2.56055c0.96191,0.62842,1.86133,1.36572,2.63086,2.23926
				c0.38184,0.43994,0.72949,0.90918,1.00195,1.44238c0.28613,0.51074,0.44629,1.18848,0.31152,1.79297
				c-0.26074,1.24365-1.22266,2.04785-2.12598,2.70264c-0.94238,0.64551-1.97559,1.12305-3.02246,1.5459
				c-2.1123,0.7959-4.32031,1.38428-6.58398,1.63428c-2.25586,0.21338-4.66504,0.03027-6.73145-1.08691
				c-1.01465-0.55273-1.93652-1.37158-2.4082-2.43848C119.2959,234.91406,119.33105,233.69971,119.7041,232.64111z"/>
		</g>
		<ellipse fill="#C5C19D" cx="127.20459" cy="230.1377" rx="0.38428" ry="1.42871"/>
	</g>
	<g>
		<g>
			<path fill="#727A35" stroke="#000000" stroke-width="2.63601" stroke-miterlimit="10" d="M86.86816,249.67627
				c-0.97949,0-1.99756-0.06201-3.03369-0.18555c-5.57666-0.66309-12.66455-2.67627-14.75586-8.50146
				c-0.93018-2.59473-0.70996-5.55762,0.58838-7.91602c2.69922-4.90771,9.18799-7.89014,14.07275-8.58105
				c0.57178-0.08008,1.14893-0.11963,1.72363-0.11963c6.00244,0,11.69971,4.17383,13.85205,10.15039
				c1.09375,3.03223,0.95117,6.3252-0.39697,9.03564C96.95703,247.50195,92.67676,249.67627,86.86816,249.67627z"/>
		</g>
		<g>
			<path d="M86.86816,249.33594c-0.97949,0-1.99756-0.06543-3.03369-0.18945c-5.57666-0.68213-12.66455-2.74609-14.75586-8.71875
				c-0.93018-2.66455-0.70996-5.69824,0.58838-8.12109c2.69922-5.03516,9.18799-8.09326,14.07275-8.80127
				c0.57178-0.08105,1.14893-0.125,1.72363-0.125c6.00244,0,11.69971,4.28174,13.85205,10.41211
				c1.09375,3.11182,0.95117,6.4917-0.39697,9.27002C96.95703,247.10742,92.67676,249.33594,86.86816,249.33594z"/>
		</g>
		<path fill="#E31B23" d="M94.9502,232.6543c1.52832,4.34473-3.25684,7.28223-10.67432,6.37939
			c-7.41455-0.90088-12.18799-4.06104-10.67871-6.87158c1.50732-2.81738,6.29199-5.52637,10.66992-6.15967
			C88.64209,225.375,93.42139,228.30371,94.9502,232.6543z"/>
		<ellipse cx="88.18921" cy="230.24414" rx="3.36694" ry="4.43506"/>
		<g>
			<path d="M94.9917,232.64063c0.39844,1.0835,0.43018,2.354-0.11377,3.42676c-0.53174,1.07959-1.52246,1.87061-2.58203,2.40479
				c-2.1582,1.08252-4.62256,1.23096-6.94629,1.02979c-2.33105-0.24609-4.61035-0.82861-6.80029-1.60938
				c-1.08545-0.41895-2.16064-0.88428-3.14893-1.521c-0.9458-0.65088-1.97314-1.43408-2.27783-2.71094
				c-0.15771-0.62305,0.02246-1.33008,0.32813-1.84668c0.29492-0.54346,0.66455-1.01709,1.07031-1.45947
				c0.81641-0.87695,1.76074-1.61279,2.7666-2.23584c2.01172-1.24219,4.24316-2.14063,6.59717-2.51416
				c2.40283-0.43457,4.92041,0.22803,6.87109,1.56836C92.72412,228.5083,94.21973,230.45166,94.9917,232.64063z M94.90869,232.66797
				c-0.76465-2.18848-2.47949-3.93896-4.45361-5.00098c-1.98145-1.06299-4.25049-1.55615-6.42188-1.16846
				c-2.20557,0.40332-4.36523,1.1958-6.31787,2.32715c-0.96875,0.57617-1.89453,1.23145-2.69238,2.0127
				c-0.73633,0.7915-1.60303,1.69092-1.42725,2.73535c0.17676,1.04053,1.05225,1.91699,1.97607,2.54102
				c0.94092,0.64111,1.99023,1.13281,3.07959,1.49121c2.17529,0.74902,4.47754,1.04004,6.75098,1.16992
				c2.26318,0.11523,4.56104-0.0332,6.66699-0.80615c1.03613-0.40381,2.01611-1.04785,2.60742-2.0127
				C95.28369,234.99414,95.29688,233.74414,94.90869,232.66797z"/>
		</g>
		<ellipse fill="#C5C19D" cx="88.02979" cy="230.1377" rx="0.3999" ry="1.42871"/>
	</g>
	<g>
		<g>
			<path fill="#C5C19D" d="M142.62207,204.74072c-7.13867,18.30811-23.10059,32.13086-35.67432,32.04395
				c-12.57617,0.08691-28.53857-13.73584-35.67676-32.04395"/>
			<path d="M142.7041,204.77344c-1.23828,4.03516-3.04004,7.91504-5.2793,11.52539c-2.24219,3.60693-4.8916,6.98877-7.99219,9.91357
				c-3.11914,2.90527-6.63281,5.36035-10.36719,7.354c-3.72656,1.96826-7.77637,3.55078-12.12354,3.69922
				c-4.33105,0.18115-8.61035-1.20801-12.37549-3.22559c-3.79102-2.0293-7.22852-4.66113-10.25098-7.68164
				c-5.99902-6.08008-10.57227-13.53906-13.12646-21.58594l0.16406-0.06348c3.58105,7.59766,8.35449,14.5459,14.28076,20.31738
				c2.95068,2.88281,6.16357,5.52148,9.73096,7.56641c3.5625,2.01465,7.4668,3.54932,11.58691,3.71094
				c4.10303,0.16895,8.23779-1.17285,11.83838-3.23633c3.62402-2.08154,6.76074-4.89746,9.61426-7.89453
				c5.78613-5.95215,10.50488-12.87988,14.13574-20.46484L142.7041,204.77344z"/>
		</g>
	</g>
	<g>
		<g>
			<path fill="#C5C19D" d="M95.97217,250.04541c2.34912-11.35498,7.59814-19.9209,11.73682-19.86621
				c4.13281-0.05469,9.3877,8.51123,11.73438,19.86621"/>
			<path d="M95.92139,250.03467c0.48047-4.01611,1.57764-7.99316,3.39844-11.64404c0.94531-1.80811,2.08594-3.51172,3.37354-5.08545
				c0.64893-0.78174,1.33154-1.5459,2.14209-2.18457c0.81055-0.61182,1.75049-1.19629,2.87598-1.22656
				c1.104-0.05127,2.1626,0.43066,3.00732,1.04346c0.86328,0.61719,1.60059,1.36621,2.25488,2.16797
				c1.30957,1.60596,2.36523,3.38232,3.23242,5.23291c1.7002,3.71875,2.78809,7.68115,3.28809,11.69629l-0.10156,0.02148
				c-1.14551-3.86963-2.44434-7.66699-4.19043-11.24072c-0.86621-1.7832-1.81152-3.53662-2.99707-5.10059
				c-0.59863-0.77295-1.24219-1.5127-1.98535-2.11865c-0.74512-0.58936-1.57715-1.09668-2.51563-1.13184
				c-0.91602-0.04492-1.86768,0.3584-2.64746,0.94873c-0.79443,0.58398-1.49414,1.30908-2.09863,2.10205
				c-1.20703,1.59619-2.06641,3.42236-2.85449,5.24805c-1.62451,3.6416-2.91406,7.42432-4.08057,11.29297L95.92139,250.03467z"/>
		</g>
	</g>
	<g>
		<path d="M100.02197,224.3584c-0.99463-1.80615-1.72852-3.74854-2.27832-5.74316c-0.51416-2.00049-0.88477-4.07129-0.80469-6.16455
			c0.08252-2.08838,0.58838-4.16455,1.53857-6.01318c0.48828-0.91602,1.08301-1.77783,1.79834-2.5332
			c0.74658-0.71875,1.35791-1.50537,1.91455-2.35352c2.1543-3.43359,3.03955-7.48535,3.27197-11.49707
			c0.11914-2.01221,0.09521-4.04297-0.14111-6.05322c-0.24268-2.00293-0.59863-4.02783-1.47607-5.87256l0.0752-0.04492
			c1.1499,1.73486,1.6958,3.79248,2.08105,5.81787c0.35254,2.04395,0.49365,4.12646,0.39697,6.20361
			c-0.10303,2.07715-0.45361,4.14453-1.05469,6.14111c-0.59766,1.99414-1.50195,3.91602-2.7583,5.57959
			c-0.61182,0.83496-1.35596,1.59668-2.08838,2.29492c-0.71338,0.71094-1.32324,1.53613-1.74805,2.4541
			c-0.9043,1.82129-1.11572,3.88916-1.0791,5.88428c0.06299,4.02393,1.06494,8.01221,2.43115,11.86182L100.02197,224.3584z"/>
	</g>
	<g>
		<path d="M114.80371,224.32031c1.58496-3.75244,2.63574-7.80518,2.57422-11.86426c-0.0459-2.01758-0.42383-4.04785-1.3457-5.82227
			c-0.4541-0.88672-1.04688-1.69727-1.74707-2.39941c-0.73145-0.68457-1.46484-1.50195-2.06055-2.34619
			c-2.42578-3.44336-3.51172-7.6543-3.69141-11.78564c-0.06445-2.0752,0.04297-4.15576,0.4043-6.19678
			c0.38086-2.02441,0.91211-4.0791,2.04492-5.82275l0.07617,0.04492c-0.45703,0.91162-0.76563,1.88428-0.99512,2.87207
			c-0.23926,0.98535-0.40723,1.98779-0.51855,2.99463c-0.22754,2.01318-0.28613,4.0459-0.13477,6.06055
			c0.28711,4.00098,1.14844,8.08057,3.39063,11.43213c0.57324,0.83887,1.19434,1.56982,1.94141,2.30273
			c0.72949,0.76367,1.34082,1.64063,1.7998,2.58691c0.93262,1.89551,1.27246,4.00928,1.27441,6.07471
			c-0.05762,4.15283-1.23535,8.18311-2.93262,11.90674L114.80371,224.32031z"/>
	</g>
	<g>
		<g>
			<path fill="#C5C19D" d="M98.38379,249.40088c1.88525-4.45313,6.1001-7.81494,9.41846-7.79395
				c3.3208-0.021,7.53467,3.34082,9.4165,7.79395"/>
			<path d="M98.34375,249.3833c0.56934-2.09082,1.82129-4.021,3.50391-5.43018c0.8623-0.68652,1.83008-1.21777,2.81396-1.67139
				c0.98096-0.45752,2.01563-0.83691,3.14209-0.91553c1.12012-0.08447,2.25488,0.19971,3.25879,0.67188
				c1.01172,0.46924,1.94629,1.09082,2.7627,1.8374c1.61328,1.50537,2.84766,3.41992,3.43359,5.5083l-0.08008,0.03418
				c-1.09375-1.84668-2.41016-3.49121-3.97852-4.84473c-1.53809-1.35156-3.34473-2.52832-5.3999-2.72559
				c-1.021-0.07715-2.08447,0.19629-3.01221,0.68945c-0.93213,0.5-1.72119,1.22217-2.45215,1.96094
				c-1.49951,1.44971-2.7998,3.07764-3.91211,4.92041L98.34375,249.3833z"/>
		</g>
	</g>
	<g>
		<path d="M112.98438,196.75684c1.45605,1.20654,3.11328,2,4.81738,2.70264c0.8457,0.37012,1.72168,0.72803,2.6416,0.92432
			c0.91895,0.19922,1.86523,0.23877,2.80273,0.20117c1.87598-0.0918,3.72266-0.30029,5.56543-0.59863
			c1.84863-0.25684,3.68848-0.60547,5.5752-0.89404l0.02539,0.08398c-1.72656,0.82275-3.56641,1.38379-5.45117,1.73535
			c-1.88965,0.30273-3.83105,0.39795-5.73438,0.1543c-0.95215-0.1167-1.89063-0.26611-2.83301-0.40186
			c-0.94238-0.13477-1.90332-0.24805-2.83887-0.51611c-0.92773-0.27979-1.80957-0.71924-2.61133-1.27002
			c-0.79688-0.55371-1.53223-1.22705-2.0293-2.06738L112.98438,196.75684z"/>
	</g>
	<g>
		<path d="M95.82324,263.19531c-2.3584,0.93652-4.34033,2.48145-6.18164,4.15137c-0.93311,0.82715-1.84863,1.70801-2.61523,2.71387
			c-0.76416,1.00684-1.38721,2.11621-1.9165,3.26172c-1.03955,2.30176-1.89258,4.66406-2.61426,7.07324
			c-0.75977,2.39941-1.38428,4.84277-2.04785,7.30859l-0.08691-0.01367c0.11328-2.55469,0.54736-5.09082,1.23682-7.5625
			c0.73828-2.45508,1.73389-4.85156,3.08789-7.0332c0.67236-1.09277,1.38037-2.15332,2.10986-3.20117
			c0.72119-1.05273,1.4541-2.11719,2.33447-3.06934c1.78955-1.83789,4.10059-3.3418,6.67676-3.71484L95.82324,263.19531z"/>
	</g>
	<g>
		<path stroke="#000000" stroke-width="0.87867" stroke-miterlimit="10" d="M134.02539,335.66895
			c-1.91016,8.33301-8.37598,10.15332-16.25488,8.01074c-6.36816-1.48926-13.56836-1.48926-19.93701,0
			c-7.87939,2.14258-14.34424,0.32227-16.25293-8.01074c-2.05762-10.92969-1.83154-22.20703,0.57471-33.1377
			c2.18311-8.33496,8.53418-10.23535,16.06348-8.12988c6.11182,1.45605,13.05469,1.45605,19.16406,0
			c7.53027-2.10547,13.88281-0.20508,16.06836,8.12988C135.85742,313.46191,136.08398,324.73926,134.02539,335.66895z"/>
	</g>
	<path stroke="#000000" stroke-width="6.15068" stroke-miterlimit="10" d="M94.67334,306.5332
		c0,0-7.70508,47.56348,15.98389,99.22266c23.68652,51.65625,22.54492,60.79199,0.56934,87.0498
		c0,0,43.95117-11.13379,16.26758-90.76172c-14.3125-41.16504-6.37305-86.94824-5.23242-95.51074H94.67334z"/>
	<g>
		<path fill="#C5C19D" stroke="#000000" stroke-width="1.75734" stroke-miterlimit="10" d="M125.0625,330.9082
			c-1.65625-2.09863-2.31641-1.6582-2.31641-1.6582l-0.83008,1.4375v1.43848l-0.33105,1.43359c0,0-0.3291,0.88574-0.3291,1.21875
			c0,0.33203-0.66406,1.3252-0.66406,2.32324c0,0.99414-0.16797,1.10547,0.16602,2.20801
			c0.33203,1.10645,0.99414,2.43164,0.99414,2.43164l1.98828,0.33301l1.32227,0.11035
			c0.66504-0.11035,1.99023-1.10547,1.99023-1.10547s0.49512-0.44043,0.66211-1.87891
			c0.16309-1.4375-0.33105-2.65137-0.33105-2.65137s0,0.55273-0.16699-0.88574c-0.16406-1.43848-0.16406-0.33203-0.16406-1.99121
			L125.0625,330.9082z"/>
		<path fill="#C5C19D" stroke="#000000" stroke-width="1.75734" stroke-miterlimit="10" d="M117.94336,343.51172
			c0.66113-0.1084,1.15625,0.66211,1.48828-0.44141c0.33105-1.10547-0.16406,0.33301,0.33105-1.10547
			c0.49805-1.43848,1.16211-1.87891,0.99512-2.65527c-0.16602-0.77441-0.49707-0.66113-1.49023-1.76758
			c-0.99316-1.10449-0.66309-0.55566-0.99316-1.10449c-0.33105-0.55371-1.16016-0.22461-1.16016-0.22461l-0.82715,0.22461
			l-1.49121,0.44336c0,0-0.5-0.55664-1.32617,1.21484c-0.82715,1.76758-1.49023,2.10254-1.1582,2.87598
			c0.33105,0.76953,1.82031,2.09863,1.82031,2.09863l2.81641,0.33301L117.94336,343.51172z"/>
		<path fill="#C5C19D" stroke="#000000" stroke-width="1.75734" stroke-miterlimit="10" d="M111.48242,342.18457l-0.99219,1.32715
			l-1.16211,0.33105c0,0-2.48193,0.77441-2.64844,0.22168c-0.16455-0.55273-0.16455,0.33203-0.16455-0.99414
			c0-1.3291,0.16455-2.43164-0.16602-3.31641c-0.33057-0.88574-0.49609-1.43848-0.49609-1.43848l0.82666-1.6582
			c1.15967-0.77344,1.15967-0.77344,1.15967-0.77344s0.49658-0.99316,0.6626-1.32617c0.16699-0.33301,1.16016,0.2207,1.16016,0.2207
			l0.66211,1.77051l2.15137,1.43359l-0.49609,2.32422L111.48242,342.18457z"/>
		<path fill="#C5C19D" stroke="#000000" stroke-width="1.75734" stroke-miterlimit="10" d="M102.8042,344.61719
			c0,0,2.47656-0.5127,2.47656-1.14453c0-0.63477,0.76221-1.39844,0.76221-2.16309c0-0.76563,0.19092-2.29004-0.18994-3.43457
			c-0.38135-1.14453-0.57275-2.41504-1.52393-2.92383c-0.95313-0.50879-0.57031,0.37988-0.95313-0.50879
			c-0.38135-0.89063-1.14307-1.65527-1.14307-1.65527l-0.38281,2.7998c0,0-2.28516-1.40039-2.47607,0.50879
			c-0.18994,1.90723,0.38135,3.55957,0.38135,3.55957l-0.19043,3.56152l1.14307,0.8877L102.8042,344.61719z"/>
		<path fill="#C5C19D" stroke="#000000" stroke-width="1.75734" stroke-miterlimit="10" d="M96.67334,343.82031
			c0,0,1.14258-0.25293,1.5249-1.01855c0.38086-0.76074,1.14209-1.90723,1.14209-2.9248c0-1.0166,0.38086-1.27051-0.38281-2.29102
			c-0.75928-1.01465-4.00049-3.30469-4.00049-3.30469l-2.28613,3.05273c0,0-0.1875,0.89063-0.38037,2.03516
			c-0.19189,1.14258-0.38037,2.9248-0.38037,2.9248l2.28564,1.65137L96.67334,343.82031z"/>
		<path fill="#C5C19D" stroke="#000000" stroke-width="1.75734" stroke-miterlimit="10" d="M89.29053,342.51758
			c0,0,1.82178-0.1123,1.82178-0.66406c0-0.55371,0.49854-0.66113,0.49854-1.10742c0-0.43945,0.33057-0.88086,0.16504-2.65039
			c-0.16504-1.77148,0.33057-2.65234,0.33057-3.42578c0-0.77441-0.33057-1.55078-1.1582-2.32324
			c-0.82813-0.77344-1.98877-2.32422-1.98877-2.32422l-1.49072,1.99121c0,0-1.32422,1.21484-1.48877,2.65625
			c-0.16602,1.43359,0,2.87207,0,2.87207s0.16455,1.76758,0.3291,2.32129C86.4751,340.41797,87.30469,342.51758,89.29053,342.51758z
			"/>
	</g>
	<path fill="#E31B23" d="M92.96143,303.30176c0,0-5.99316,50.79492,17.6958,102.4541
		c23.68652,51.65625,22.54492,60.79199,0.56934,87.0498c0,0,43.95117-11.13379,16.26758-90.76172
		c-14.3125-41.16504-5.13672-89.04004-3.99512-97.60059L92.96143,303.30176z"/>
	<g>
		<path d="M107.23193,316.80762c-0.17822,7.95703,0.07129,15.87988,0.5625,23.77637
			c0.52783,7.89258,1.32471,15.76074,2.53174,23.56445c0.57031,3.90625,1.26367,7.79395,2.04883,11.66309
			c0.75195,3.87598,1.66895,7.71777,2.62109,11.55273c1.95508,7.6582,4.33105,15.21191,7.07813,22.6875
			c-3.75098-7.03027-6.70898-14.49219-9.05762-22.13086c-1.20215-3.81445-2.17676-7.69531-3.08203-11.58984
			c-0.87012-3.90332-1.59277-7.83887-2.21289-11.78809c-1.17041-7.91016-1.86328-15.88965-1.97461-23.87695
			C105.63965,332.6875,105.96533,324.68066,107.23193,316.80762z"/>
	</g>
	<g>
		<path fill="#C5C19D" d="M161.44043,242.40283c0,0,4.81934-4.03076,8.83789-4.27148
			c4.01758-0.23877,13.07324-6.88428,15.11816-6.69678c2.0459,0.18945,4.60645-4.82031,6.27441-4.54297
			c1.68457,0.27881,6.93457-4.28418,8.66602-3.24316c1.72949,1.04443,2.64355,1.79688,2.64355,1.79688
			s1.84961-0.74658-0.89746,2.26758s-6.22266,8.32617-8.24902,11.15576c-2.02539,2.83447-10.17676,8.27246-11.6582,15.11963
			c-1.48145,6.84863-6.12695,7.73828-6.73047,9.29688c-0.60352,1.55957,2.63477,4.96484-0.0127,5.28027
			c-2.64551,0.31641-2.3125,2.4834-2.3125,2.4834s-2.46582,6.53027-9.90332,8.61719
			c-7.43652,2.08691-3.8877,6.75098-3.33594,7.59766c0.55371,0.8457-2.54883,12.25293-7.78516,8.36621
			C146.8584,291.74219,152.79199,248.66357,161.44043,242.40283z"/>
		<path d="M164.22559,263.16016c-1.99121,8.87402-8.1123,14.5-8.1123,14.5s11.40332-0.97754,14.95605-8.83984
			c3.55176-7.86035,3.00195-9.7627,5.24121-10.74902C176.31055,258.07129,162.2041,276.72559,164.22559,263.16016z"/>
		<path stroke="#000000" stroke-width="0.87867" stroke-miterlimit="10" d="M164.70801,262.48242"/>
		<g>
			<path d="M192.58203,227.11816c-1.26074,0.44385-2.34082,1.22217-3.1709,2.22217
				c-0.83398,0.99854-1.48535,2.14746-2.14355,3.30859c-1.2832,2.32764-2.7002,4.76807-4.81934,6.64502
				c-1.03711,0.94775-2.22168,1.73779-3.47461,2.36475l-0.88867,0.45557l-0.82617,0.47314
				c-0.54492,0.34375-1.08691,0.69141-1.60254,1.07715c-2.06934,1.53662-3.86035,3.45068-5.37793,5.59082
				c-1.50293,2.15234-2.72852,4.52295-3.71387,6.99756c-0.97852,2.48145-1.67285,5.06152-2.24316,7.68652
				c-1.34961,5.25879-3.91309,10.19531-7.74316,14.22656l-0.52344-1.19043c2-0.26367,4.03516-0.8291,5.93848-1.55273
				c1.90527-0.74023,3.71191-1.72559,5.21777-3.02539c0.75293-0.64941,1.42285-1.37793,1.98047-2.17773
				c0.5791-0.81348,0.9707-1.62012,1.39844-2.62891c0.83008-1.91797,1.60254-3.85254,2.31641-5.83691
				c0.39258-0.99219,0.64355-2.01172,1.37793-3.10547c0.37109-0.54688,0.97363-1.02148,1.55273-1.26855
				c0.2832-0.12695,0.46875-0.2002,0.68555-0.31445c0.21289-0.10938,0.42383-0.22852,0.62988-0.35645
				c1.65234-1.03223,2.97168-2.62109,3.70996-4.46289c0.19141-0.45801,0.34766-0.93311,0.46973-1.41943
				c0.10254-0.44043,0.22754-1.08789,0.47949-1.6167c0.4873-1.07617,1.29883-1.92285,2.16602-2.59131
				c0.87598-0.67334,1.83496-1.17188,2.77539-1.66406c0.92383-0.50586,1.92383-0.91943,2.63672-1.65625l0.14063,0.10547
				c-0.66699,0.89502-1.64453,1.41455-2.5127,2.00537c-0.88672,0.57568-1.75391,1.16748-2.51074,1.84814
				c-0.75684,0.67529-1.38965,1.46533-1.71484,2.35742c-0.1709,0.44775-0.21582,0.85498-0.30957,1.45313
				c-0.0957,0.5498-0.23242,1.09521-0.41016,1.62891c-0.72559,2.13525-2.16406,4.03174-4.04785,5.33447
				c-0.23633,0.16309-0.48145,0.31543-0.73242,0.45898c-0.24609,0.14453-0.5459,0.28418-0.74121,0.38281
				c-0.38281,0.19629-0.62793,0.41504-0.84473,0.75195c-0.42773,0.69043-0.75293,1.74414-1.0957,2.72949
				c-0.67383,2.01758-1.42871,4.03613-2.30566,5.99512c-0.40039,0.9375-0.9248,2.05664-1.60547,2.95215
				c-0.67676,0.92188-1.47363,1.74219-2.34277,2.45508c-1.74316,1.42773-3.74219,2.44238-5.79688,3.18457
				c-2.06934,0.74219-4.17871,1.19434-6.3877,1.40332l-1.99023,0.1875l1.4668-1.37793
				c1.86523-1.75098,3.57422-3.84766,4.96094-6.08691c1.39746-2.24316,2.51465-4.68945,3.17578-7.25781
				c0.62109-2.60449,1.26367-5.2334,2.13281-7.79199c0.83789-2.56934,1.89746-5.09131,3.31738-7.44238
				c1.41406-2.34521,3.22852-4.52002,5.48242-6.17383c0.55371-0.42432,1.14063-0.80371,1.74023-1.15918
				c0.62891-0.36377,1.22949-0.66504,1.83887-0.95605c1.1543-0.55518,2.23242-1.24854,3.21582-2.06689
				c1.98145-1.63818,3.43652-3.83789,4.90234-6.09229c0.74316-1.12012,1.52246-2.26416,2.5293-3.22607
				c0.9873-0.97217,2.24902-1.69922,3.58691-1.95166L192.58203,227.11816z"/>
		</g>
		<path d="M202.08301,227.71289c2.74707-3.01416,0.89746-2.26465,0.89746-2.26465s-0.91406-0.75537-2.64355-1.7998
			c-1.73145-1.04102-6.98145,3.52197-8.66602,3.24316l5.47168-0.99023l-1.98242,2.72412l3.22168-1.11328
			c0,0,2.47754-1.36523,2.10352-0.74609c-0.36914,0.61963-1.73242,0.99365-2.47461,1.4873
			c-0.74512,0.49707-2.1084,1.73779-0.99219,1.61377C198.13184,229.7417,202.08301,227.71289,202.08301,227.71289z"/>
		<path fill="none" stroke="#000000" stroke-width="2.63601" stroke-miterlimit="10" d="M161.44043,242.40283
			c0,0,4.81934-4.03076,8.83789-4.27148c4.01758-0.23877,13.07324-6.88428,15.11816-6.69678
			c2.0459,0.18945,4.60645-4.82031,6.27441-4.54297c1.68457,0.27881,6.93457-4.28418,8.66602-3.24316
			c1.72949,1.04443,2.64355,1.79688,2.64355,1.79688s1.84961-0.74658-0.89746,2.26758s-6.22266,8.32617-8.24902,11.15576
			c-2.02539,2.83447-10.17676,8.27246-11.6582,15.11963c-1.48145,6.84863-6.12695,7.73828-6.73047,9.29688
			c-0.60352,1.55957,2.63477,4.96484-0.0127,5.28027c-2.64551,0.31641-2.3125,2.4834-2.3125,2.4834
			s-2.46582,6.53027-9.90332,8.61719c-7.43652,2.08691-3.8877,6.75098-3.33594,7.59766
			c0.55371,0.8457-2.54883,12.25293-7.78516,8.36621C146.8584,291.74219,152.79199,248.66357,161.44043,242.40283z"/>
	</g>
	<g>
		<path d="M120.36719,263.10938c2.57617,0.37305,4.88672,1.87695,6.67676,3.71484c0.88086,0.95215,1.61328,2.01563,2.33496,3.06836
			c0.72949,1.04785,1.4375,2.10938,2.11035,3.20215c1.35449,2.18066,2.35059,4.57813,3.08887,7.03223
			c0.68945,2.47168,1.12402,5.00879,1.23633,7.56348l-0.08594,0.01367c-0.66406-2.46582-1.28906-4.90918-2.04883-7.30859
			c-0.72168-2.40918-1.57422-4.77148-2.61426-7.07422c-0.5293-1.14551-1.15332-2.25391-1.91699-3.26172
			c-0.76758-1.00488-1.68262-1.88574-2.61621-2.71289c-1.84082-1.6709-3.82324-3.21484-6.18262-4.15137L120.36719,263.10938z"/>
	</g>
	<g>
		<g>
			<path d="M106.84473,249.18311c-2.00488,0.52686-3.50244,1.87793-4.61816,3.42725
				c-1.13135,1.57227-1.84668,3.41211-2.62988,5.27148c-0.77051,1.86914-1.45264,3.86816-1.66113,5.93457
				c-0.24951,2.0625-0.09521,4.15527,0.12939,6.21777l0.03906,0.36035l-0.4458,0.2998
				c-1.4917,1.00488-3.00586,2.07324-4.31738,3.26855c-1.30225,1.19727-2.46045,2.54297-3.08057,3.95996
				c-0.30713,0.70996-0.42822,1.43262-0.36035,2.16211c0.08154,0.72754,0.37012,1.47852,0.83105,2.18359
				c0.92041,1.42383,2.33691,2.6709,3.8042,3.85742l-0.10449,0.19336c-1.80566-0.61328-3.58936-1.48926-5.02148-3.01367
				c-0.69775-0.76465-1.30518-1.72852-1.55127-2.85547c-0.27344-1.12207-0.125-2.32813,0.25439-3.36133
				c0.78223-2.09668,2.30518-3.56055,3.8418-4.77734c1.57227-1.20703,3.22119-2.20215,5.06055-2.92383l-0.40674,0.65918
				c0.19727-2.11426,0.48486-4.2041,0.66162-6.29883c0.21875-2.08887,0.25-4.22656,0.67822-6.36328
				c0.42236-2.12793,1.4248-4.18945,2.93213-5.87402c1.48486-1.65039,3.74023-2.92383,5.97363-2.54736L106.84473,249.18311z"/>
		</g>
		<g>
			<path d="M108.96875,248.96338c2.2334-0.37646,4.48828,0.89697,5.97363,2.54688c1.50781,1.68506,2.51074,3.74561,2.93262,5.87451
				c0.42871,2.13672,0.45996,4.27441,0.67871,6.3623c0.17676,2.0957,0.46484,4.18555,0.66211,6.2998l-0.40625-0.65918
				c1.83887,0.72168,3.48828,1.7168,5.06055,2.92383c1.53711,1.21582,3.06055,2.68066,3.84277,4.77734
				c0.37988,1.0332,0.52832,2.24023,0.25488,3.36133c-0.24707,1.12793-0.85449,2.0918-1.55273,2.85547
				c-1.43262,1.52441-3.21582,2.40039-5.02148,3.01367l-0.10547-0.19336c1.46777-1.18652,2.88477-2.43262,3.80566-3.85742
				c0.46094-0.70508,0.75-1.45605,0.83203-2.18359c0.06738-0.72949-0.05371-1.45215-0.36035-2.16211
				c-0.62109-1.41699-1.7793-2.7627-3.08203-3.95996c-1.31152-1.19531-2.82617-2.26367-4.31738-3.26855l-0.44629-0.2998
				l0.03906-0.36035c0.22461-2.0625,0.37891-4.15527,0.12891-6.21875c-0.20801-2.06543-0.89063-4.06445-1.66113-5.93359
				c-0.78418-1.85938-1.49902-3.69922-2.63086-5.27148c-1.11523-1.54932-2.61328-2.90039-4.61816-3.42725L108.96875,248.96338z"/>
		</g>
		<g>
			<path d="M92.33301,280.39746c1.04395-0.9082,2.61035-1.10156,3.9873-0.76367c1.39893,0.33008,2.61133,1.13867,3.59912,2.06934
				c1.01611,0.91992,1.78613,2.03906,2.36572,3.22363c0.58301,1.18652,1,2.4248,1.48486,3.61035l-0.02344-0.04199
				c0.51074,0.88281,1.36133,1.66797,2.30322,2.01855c0.96094,0.37207,1.95117,0.14063,2.68457-0.44336
				c0.74414-0.58496,1.34863-1.39648,1.89258-2.26367c0.55664-0.90039,1.08984-1.86621,1.625-2.82031
				c0.52539-0.96582,1.08105-1.92578,1.70996-2.87402c0.63574-0.94629,1.31836-1.89453,2.30273-2.74707
				c0.49414-0.41406,1.12305-0.80566,1.8877-0.94824c0.77344-0.14648,1.54785,0.0957,2.09863,0.43457
				c1.10254,0.72461,1.74316,1.69824,2.28613,2.69824l-0.16797,0.14063c-0.88379-0.67676-1.78809-1.37598-2.68457-1.64746
				c-0.90234-0.27539-1.42871,0.05469-2.06152,0.75586c-1.20801,1.45508-2.16797,3.53711-3.42188,5.36523
				c-0.6123,0.94238-1.24902,1.86035-1.94922,2.78613c-0.7334,0.93066-1.62695,1.83105-2.81836,2.35547
				c-1.17188,0.56641-2.63721,0.49902-3.69629-0.08398c-1.0835-0.56934-1.88672-1.38574-2.63721-2.3125h-0.00049l-0.02295-0.04199
				c-0.6084-1.10254-1.38623-2.10742-2.17041-3.05762c-0.79102-0.94629-1.5542-1.86719-2.34326-2.73145
				c-0.81152-0.84473-1.69727-1.57617-2.70898-2.06934c-1.00391-0.47949-2.18652-0.70508-3.40674-0.42383L92.33301,280.39746z"/>
		</g>
	</g>
	<g>
		<path fill="#C5C19D" d="M14.24512,226.38721c0,0,0.20166-7.45996,3.87012-4.2793
			c3.67236,3.18213,8.09424,7.31934,11.36426,7.90771c3.26855,0.59277,20.57227,11.12939,22.66211,14.81592
			c2.08691,3.68799,10.44141,43.00537,9.17725,48.32178c-1.26514,5.32031-5.22412,4.77637-10.49658-1.72266
			c0,0,1.01563-9.12793-3.33057-12.06348c-4.3457-2.93652-4.3457-2.93652-4.3457-2.93652s-6.51758-4.40137-8.12354-14.76855
			c-1.604-10.36475-10.29102-19.65479-12.87109-20.29102c-2.5791-0.63672-2.86865-5.04834-1.2998-5.75391
			c0,0-9.14209-1.61914-8.36426-7.9043C12.63721,226.49268,14.24512,226.38721,14.24512,226.38721z"/>
		<path d="M20.28174,234.67041c0,0-8.57227-0.67236-7.79443-6.95752c0.1499-1.21729,1.75781-1.32324,1.75781-1.32324
			s0.20166-7.4624,3.87012-4.28174c0,0-1.25146,0.96436-1.22705,1.46045c0.02295,0.49463,1.41895,3.77979,1.41895,3.77979
			l-2.1748-1.38818c0,0,0.10449,2.22607,0.62354,2.69922c0.5166,0.47217-1.59912,0.32373-1.59912,0.32373l0.29297,1.6582
			L20.28174,234.67041z"/>
		<path d="M47.50391,258.78418c3.04443,5.14551,3.70947,9.12207,3.86279,12.87988c0,0,3.46289,7.01758,4.88135,7.53223
			c1.41699,0.50781-15.48633-7.4375-16.86816-14.39746c0,0,10.78174,9.84961,9.00146,4.9707
			C47.08447,266.20898,47.50391,258.78418,47.50391,258.78418z"/>
		<g>
			<path d="M17.49121,222.67188c3.7334,3.47363,7.47998,6.9292,11.28613,10.29736c1.9126,1.66992,3.83496,3.33301,5.83057,4.86377
				c0.5,0.38037,1.00439,0.75146,1.51611,1.1001c0.24951,0.17578,0.50977,0.32666,0.81934,0.57422
				c0.29834,0.24121,0.53711,0.47217,0.77783,0.71777c0.93115,0.979,1.71387,2.01465,2.45898,3.07666
				c2.93506,4.26807,5.11426,8.9375,7.08887,13.65723c0.98486,2.3623,1.91748,4.74414,2.74268,7.16895
				c0.79004,2.43359,1.55566,4.89648,1.77539,7.51855l-0.04297-0.16895c1.17383,2.15527,2.42529,4.34766,3.88867,6.22461
				c0.18213,0.22754,0.37207,0.44629,0.55908,0.62305c0.09131,0.08691,0.18701,0.16211,0.25098,0.19824
				c0.03906,0.02246,0.03613,0.01758,0.05127,0.02148l0.01416,0.00488c0.01709,0.00586,0.00391-0.00098-0.04688-0.01367
				c-0.03711-0.00879-0.07568-0.01367-0.11328-0.01367c0.43652-0.75684-1.03174,0.99902-0.54102,1.15234
				c0.02783,0.03516,0.07959,0.07813,0.10303,0.09375l-0.00732-0.00391l-0.07129-0.03906l-1.64258-0.85742
				c-1.10693-0.58105-2.20752-1.18066-3.28613-1.82227c-2.16016-1.27637-4.27686-2.64355-6.28613-4.19922
				c-1.99414-1.56445-3.93408-3.29883-5.31641-5.66504c-0.32666-0.60254-0.61035-1.25-0.77148-1.96484
				c-0.14209-0.66895-0.24561-1.21484-0.3999-1.79883c-0.29053-1.16699-0.67676-2.3125-1.09229-3.45117
				c-0.84033-2.27539-1.92969-4.47168-3.18066-6.5752c-2.48682-4.22363-5.60742-8.08838-9.0918-11.62793l0.11719-0.13086
				c3.89014,3.11572,7.354,6.82227,10.14893,11.02344c1.38232,2.10938,2.61084,4.33301,3.59668,6.68066
				c0.50146,1.16992,0.91064,2.38281,1.25195,3.61816c0.17627,0.61523,0.31982,1.28809,0.44629,1.83105
				c0.12012,0.49805,0.35156,0.99512,0.61963,1.47949c1.11621,1.95898,2.94873,3.62305,4.79834,5.16797
				c1.88281,1.53613,3.91406,2.92383,5.99951,4.22754c1.04639,0.64746,2.09912,1.28613,3.16553,1.90918l1.62256,0.94043
				l0.12842,0.08008l0.04199,0.02832c0.03906,0.02637,0.10547,0.08203,0.14844,0.12988
				c0.49707,0.16016-0.97852,1.92871-0.55273,1.16504c-0.04736-0.00195-0.09521-0.00879-0.14209-0.01953l-0.07471-0.02051
				l-0.01367-0.00488c-0.13232-0.04395-0.27588-0.11914-0.36572-0.18164c-0.19775-0.13184-0.33594-0.26367-0.46533-0.39453
				c-0.25342-0.2627-0.45703-0.52637-0.65186-0.79199c-1.46338-2.14551-2.50879-4.38672-3.59424-6.65039l-0.0415-0.08691
				l-0.00146-0.08203c-0.04639-2.48145-0.66699-4.98145-1.44922-7.38281c-0.78369-2.41211-1.7793-4.75684-2.896-7.03711
				c-2.26953-4.54248-4.90674-8.9043-7.71826-13.06006c-0.71191-1.02686-1.44629-2.04932-2.26025-2.93018
				c-0.43164-0.46924-0.75146-0.72217-1.3501-1.12598c-0.53125-0.38281-1.04297-0.78125-1.54688-1.18604
				c-2.00977-1.62305-3.89893-3.35107-5.74658-5.12012c-3.69482-3.53662-7.21777-7.2334-10.61377-11.04541L17.49121,222.67188z"/>
		</g>
		<path fill="none" stroke="#000000" stroke-width="2.63601" stroke-miterlimit="10" d="M14.24512,226.38721
			c0,0,0.20166-7.45996,3.87012-4.2793c3.67236,3.18213,8.09424,7.31934,11.36426,7.90771
			c3.26855,0.59277,20.57227,11.12939,22.66211,14.81592c2.08691,3.68799,10.44141,43.00537,9.17725,48.32178
			c-1.26514,5.32031-5.22412,4.77637-10.49658-1.72266c0,0,1.01563-9.12793-3.33057-12.06348
			c-4.3457-2.93652-4.3457-2.93652-4.3457-2.93652s-6.51758-4.40137-8.12354-14.76855
			c-1.604-10.36475-10.29102-19.65479-12.87109-20.29102c-2.5791-0.63672-2.86865-5.04834-1.2998-5.75391
			c0,0-9.14209-1.61914-8.36426-7.9043C12.63721,226.49268,14.24512,226.38721,14.24512,226.38721z"/>
	</g>
	<polygon points="59.75,279.91797 61.06836,292.65918 62.82568,292.88086 66.99756,291.34277 	"/>
	<polygon points="66.62744,199.48877 68.06543,186.75928 65.90088,183.04688 61.98877,186.7793 	"/>
	<polygon points="149.10352,197.91699 150.25488,180.05469 146.81348,178.98975 138.1709,183.7041 	"/>
	<path d="M146.08008,289.80469l5.0498-5.93164c0,0,0.87988,3.2959,0.87988,4.61426c0,1.31738-1.53711,5.70996-2.19629,5.70996
		C149.15332,294.19727,146.08008,289.80469,146.08008,289.80469z"/>
	<g>
		<path fill="#C5C19D" d="M155.69922,239.62402c4.92676,10.10156,6.32324,19.8252,3.20898,28.47168
			c-3.01465,8.03809-12.36035,23.26074-21.59668,34.11816"/>
		<path d="M155.75488,239.62939c1.72461,3.06836,2.86035,5.8501,3.70215,8.38672c0.81641,2.53662,1.32129,4.85791,1.48438,7.06396
			c0.14063,2.2041-0.0459,4.31055-0.31934,6.46094c-0.28027,2.15039-0.65723,4.32813-1.35352,6.60938
			c-0.67285,2.27637-1.73047,4.6543-3.06445,7.19531c-1.33398,2.54004-2.88672,5.2627-4.71582,8.16895
			c-1.83203,2.90234-3.9248,5.99023-6.25195,9.20996c-2.34375,3.18848-4.95996,6.56543-7.89453,9.54199
			c-0.02148-0.03809-0.04102-0.07324-0.06055-0.11133c2.70313-3.30176,5.05371-6.67871,7.19434-9.87793
			c2.14941-3.2002,4.04883-6.26563,5.80664-9.12305c3.51563-5.72949,6.40723-10.65234,8.2627-15.1123
			c0.91211-2.23926,1.46094-4.39941,1.63574-6.57031c0.17188-2.16992-0.03613-4.36328-0.36426-6.63379
			c-0.31348-2.26416-0.71484-4.58105-1.36621-7.07275c-0.63965-2.4917-1.51953-5.1499-2.80762-8.14746
			C155.68066,239.62012,155.71973,239.625,155.75488,239.62939z"/>
	</g>
	<g>
		<path fill="#C5C19D" d="M56.97656,240.29541c-5.28857,10.4624-5.89014,20.29053-2.5,28.75732
			c3.39551,7.86035,12.15283,22.53516,20.20215,32.89746"/>
		<path d="M57.0415,240.28613c-1.36182,3.08838-2.23828,5.80811-2.84082,8.34424c-0.61572,2.53955-0.94971,4.88623-1.17969,7.17334
			c-0.24756,2.29199-0.36133,4.50488-0.09033,6.66699c0.27148,2.16016,0.91504,4.28809,1.88916,6.47363
			c1.97607,4.35156,4.85059,9.10059,8.15088,14.63574c1.65039,2.75684,3.39502,5.71875,5.33594,8.80957
			c1.92969,3.08398,4.01709,6.33984,6.40039,9.50391c-0.021,0.04102-0.03955,0.07715-0.06055,0.11523
			c-2.60498-2.82617-4.93066-6.07129-7.04834-9.13672c-2.104-3.09473-4.02979-6.06738-5.75488-8.86621
			c-1.72168-2.80469-3.22803-5.43359-4.55469-7.89844c-1.33008-2.46191-2.43311-4.77637-3.1792-7.01367
			c-0.76709-2.23633-1.2417-4.39453-1.62646-6.52734c-0.37695-2.13574-0.67822-4.23535-0.63867-6.44922
			c0.06152-2.21973,0.48486-4.57471,1.26855-7.16748c0.81055-2.59668,1.95801-5.45508,3.80029-8.64404
			C56.95557,240.2998,56.99902,240.29053,57.0415,240.28613z"/>
	</g>
	<g>
		<path fill="#C5C19D" d="M87.91309,319.64258c1.67334,3.17871,2.34277,2.51172,2.34277,2.51172l0.83545-2.17871v-2.17285
			l0.33496-2.17676c0,0,0.33447-1.33691,0.33447-1.84082c0-0.5,0.66895-2.00879,0.66895-3.51074
			c0-1.50879,0.16748-1.67676-0.16699-3.34668c-0.33398-1.67383-1.00342-3.68164-1.00342-3.68164l-2.0083-0.50098l-1.33789-0.16895
			c-0.66797,0.16895-2.0083,1.67188-2.0083,1.67188s-0.50146,0.6709-0.66943,2.84375
			c-0.16602,2.17578,0.33545,4.01758,0.33545,4.01758s0-0.83887,0.16797,1.33789c0.16602,2.17188,0.16602,0.50391,0.16602,3.01172
			L87.91309,319.64258z"/>
		<path fill="#C5C19D" d="M95.10791,300.56738c-0.66943,0.16895-1.17236-1-1.50635,0.6709
			c-0.33496,1.67188,0.16748-0.50391-0.33496,1.67188c-0.50098,2.17383-1.17041,2.84375-1.00391,4.01758
			c0.16699,1.16992,0.50293,1.00293,1.50635,2.67578s0.66943,0.83887,1.00342,1.67285
			c0.33545,0.83496,1.16992,0.33594,1.16992,0.33594l0.83838-0.33594l1.50537-0.66797c0,0,0.50244,0.83691,1.33887-1.84277
			c0.83545-2.67676,1.50635-3.17871,1.16943-4.34863c-0.33398-1.1709-1.83838-3.17871-1.83838-3.17871l-2.8457-0.50195
			L95.10791,300.56738z"/>
		<path fill="#C5C19D" d="M101.63232,302.57617l1.00439-2.00879l1.1709-0.50098c0,0,2.5083-1.16992,2.67676-0.33301
			c0.16748,0.83398,0.16748-0.50391,0.16748,1.50488c0,2.00781-0.16748,3.68066,0.1665,5.01855
			c0.33545,1.33887,0.50293,2.17578,0.50293,2.17578l-0.83691,2.50879c-1.16992,1.16992-1.16992,1.16992-1.16992,1.16992
			s-0.50293,1.50684-0.66992,2.00879c-0.16846,0.49902-1.17236-0.33496-1.17236-0.33496l-0.66943-2.67578l-2.17432-2.17676
			l0.50293-3.51074L101.63232,302.57617z"/>
		<path fill="#C5C19D" d="M110.40039,298.89648c0,0-2.50293,0.77051-2.50293,1.73242s-0.76953,2.11621-0.76953,3.27344
			c0,1.15527-0.19238,3.46387,0.19336,5.19531c0.38477,1.73145,0.57617,3.65625,1.54102,4.42871
			c0.95996,0.77051,0.57617-0.5791,0.95996,0.77051c0.38574,1.34668,2.20703,3.4043,2.20703,3.4043l0.43164-3.27148
			c0,0,1.21191,0.24805,1.40332-2.63867c0.19434-2.88477-0.38379-5.3877-0.38379-5.3877l0.19238-5.39258l-1.15527-1.34375
			L110.40039,298.89648z"/>
		<path fill="#C5C19D" d="M116.59375,300.10254c0,0-1.15527,0.38184-1.54102,1.53809
			c-0.38379,1.15527-1.15332,2.8877-1.15332,4.42773c0,1.53809-0.38379,1.92676,0.38574,3.46484
			c0.76758,1.54102,4.04102,5.00488,4.04102,5.00488l2.30957-4.62012c0,0,0.19238-1.34668,0.38574-3.08203
			c0.19043-1.73047,0.38477-4.4248,0.38477-4.4248l-2.30957-2.5L116.59375,300.10254z"/>
		<path fill="#C5C19D" d="M124.05176,302.07324c0,0-1.84082,0.16797-1.84082,1.00586c0,0.83496-0.50391,1.00195-0.50391,1.67285
			c0,0.66797-0.33398,1.33691-0.16504,4.01367c0.16504,2.67969-0.33496,4.0166-0.33496,5.1875s0.33301,2.34375,1.16992,3.51367
			c0.83789,1.1709,2.00879,3.5127,2.00879,3.5127l1.50488-3.0127c0,0,1.33887-1.83789,1.50781-4.01367
			c0.16504-2.17676,0-4.34961,0-4.34961s-0.16602-2.67578-0.33496-3.51465
			C126.89551,305.25195,126.06055,302.07324,124.05176,302.07324z"/>
	</g>
	<g>
		<path fill="none" stroke="#000000" stroke-width="1.75734" stroke-miterlimit="10" d="M87.91309,319.64258
			c1.67334,3.17871,2.34277,2.51172,2.34277,2.51172l0.83545-2.17871v-2.17285l0.33496-2.17676c0,0,0.33447-1.33691,0.33447-1.84082
			c0-0.5,0.66895-2.00879,0.66895-3.51074c0-1.50879,0.16748-1.67676-0.16699-3.34668
			c-0.33398-1.67383-1.00342-3.68164-1.00342-3.68164l-2.0083-0.50098l-1.33789-0.16895
			c-0.66797,0.16895-2.0083,1.67188-2.0083,1.67188s-0.50146,0.6709-0.66943,2.84375
			c-0.16602,2.17578,0.33545,4.01758,0.33545,4.01758s0-0.83887,0.16797,1.33789c0.16602,2.17188,0.16602,0.50391,0.16602,3.01172
			L87.91309,319.64258z"/>
		<path fill="none" stroke="#000000" stroke-width="1.75734" stroke-miterlimit="10" d="M95.10791,300.56738
			c-0.66943,0.16895-1.17236-1-1.50635,0.6709c-0.33496,1.67188,0.16748-0.50391-0.33496,1.67188
			c-0.50098,2.17383-1.17041,2.84375-1.00391,4.01758c0.16699,1.16992,0.50293,1.00293,1.50635,2.67578
			s0.66943,0.83887,1.00342,1.67285c0.33545,0.83496,1.16992,0.33594,1.16992,0.33594l0.83838-0.33594l1.50537-0.66797
			c0,0,0.50244,0.83691,1.33887-1.84277c0.83545-2.67676,1.50635-3.17871,1.16943-4.34863
			c-0.33398-1.1709-1.83838-3.17871-1.83838-3.17871l-2.8457-0.50195L95.10791,300.56738z"/>
		<path fill="none" stroke="#000000" stroke-width="1.75734" stroke-miterlimit="10" d="M101.63232,302.57617l1.00439-2.00879
			l1.1709-0.50098c0,0,2.5083-1.16992,2.67676-0.33301c0.16748,0.83398,0.16748-0.50391,0.16748,1.50488
			c0,2.00781-0.16748,3.68066,0.1665,5.01855c0.33545,1.33887,0.50293,2.17578,0.50293,2.17578l-0.83691,2.50879
			c-1.16992,1.16992-1.16992,1.16992-1.16992,1.16992s-0.50293,1.50684-0.66992,2.00879
			c-0.16846,0.49902-1.17236-0.33496-1.17236-0.33496l-0.66943-2.67578l-2.17432-2.17676l0.50293-3.51074L101.63232,302.57617z"/>
		<path fill="none" stroke="#000000" stroke-width="1.75734" stroke-miterlimit="10" d="M110.40039,298.89648
			c0,0-2.50293,0.77051-2.50293,1.73242s-0.76953,2.11621-0.76953,3.27344c0,1.15527-0.19238,3.46387,0.19336,5.19531
			c0.38477,1.73145,0.57617,3.65625,1.54102,4.42871c0.95996,0.77051,0.57617-0.5791,0.95996,0.77051
			c0.38574,1.34668,2.20703,3.4043,2.20703,3.4043l0.43164-3.27148c0,0,1.21191,0.24805,1.40332-2.63867
			c0.19434-2.88477-0.38379-5.3877-0.38379-5.3877l0.19238-5.39258l-1.15527-1.34375L110.40039,298.89648z"/>
		<path fill="none" stroke="#000000" stroke-width="1.75734" stroke-miterlimit="10" d="M116.59375,300.10254
			c0,0-1.15527,0.38184-1.54102,1.53809c-0.38379,1.15527-1.15332,2.8877-1.15332,4.42773
			c0,1.53809-0.38379,1.92676,0.38574,3.46484c0.76758,1.54102,4.04102,5.00488,4.04102,5.00488l2.30957-4.62012
			c0,0,0.19238-1.34668,0.38574-3.08203c0.19043-1.73047,0.38477-4.4248,0.38477-4.4248l-2.30957-2.5L116.59375,300.10254z"/>
		<path fill="none" stroke="#000000" stroke-width="1.75734" stroke-miterlimit="10" d="M124.05176,302.07324
			c0,0-1.84082,0.16797-1.84082,1.00586c0,0.83496-0.50391,1.00195-0.50391,1.67285c0,0.66797-0.33398,1.33691-0.16504,4.01367
			c0.16504,2.67969-0.33496,4.0166-0.33496,5.1875s0.33301,2.34375,1.16992,3.51367c0.83789,1.1709,2.00879,3.5127,2.00879,3.5127
			l1.50488-3.0127c0,0,1.33887-1.83789,1.50781-4.01367c0.16504-2.17676,0-4.34961,0-4.34961s-0.16602-2.67578-0.33496-3.51465
			C126.89551,305.25195,126.06055,302.07324,124.05176,302.07324z"/>
	</g>
	<g>
		<path fill="#67652F" d="M70.5127,195.93652c0,0-5.27295-7.68945-4.83301-11.2041c0,0-12.95947-10.10498-11.6416-16.69629
			c0,0-10.98193-10.54297-8.12793-14.9375c0,0-8.12793-7.46631-8.56641-13.83838c0,0-7.25-8.12793-6.58984-14.71826
			c0,0-8.56738-12.52148-6.1499-16.69336c0,0-4.1748-6.81055-4.1748-14.05908c0-7.24902-4.17432-14.05957-2.41699-17.57373
			c0,0-1.53613-7.9082-1.09717-10.98242c0,0-1.53906-12.7417,1.53711-15.81641c0,0,2.1958-33.38867,10.76221-41.95752
			c0,0-1.75635,28.11816-0.43848,32.73193s0.43848,8.34668-0.6582,7.90723c0,0,4.1748,14.71777,2.85547,15.81543
			c0,0,4.39307,10.10547,3.73438,10.98486c0,0,4.83154,13.83789,3.29492,14.93848c0,0,7.02979,14.27637,5.71094,14.05566
			c-1.31787-0.22021,6.59131,11.8623,6.1499,14.2793c-0.43701,2.4165,9.88672,12.74219,9.22705,14.93652
			c-0.65771,2.19678,12.95996,13.18262,10.98389,14.27832c-1.97754,1.09863,12.52246,13.40039,10.76367,13.83887
			c-1.75732,0.44092,13.18018,14.06152,11.64404,15.59619c0,0,10.32422,9.00732,8.78467,17.35547
			C99.73047,202.52393,70.5127,195.93652,70.5127,195.93652z"/>
		<path fill="#C5C19D" d="M76.66406,195.93652c0,0-5.27246-7.68945-4.83252-11.2041c0,0-12.96094-10.10498-11.64258-16.69629
			c0,0-10.98438-10.54297-8.12695-14.9375c0,0-8.12793-7.46631-8.56787-13.83838c0,0-7.24854-8.12793-6.5918-14.71826
			c0,0-8.56592-12.52148-6.14941-16.69336c0,0-4.17432-6.81055-4.17432-14.05908c0-7.24902-4.17334-14.05957-2.41455-17.57373
			c0,0-1.53906-7.9082-1.09961-10.98242c0,0-1.53711-12.7417,1.53955-15.81641c0,0-2.93066-23.06689,4.61035-41.95752
			c0,0-1.75635,28.11816-0.43848,32.73193s0.43848,8.34668-0.6582,7.90723c0,0,4.1748,14.71777,2.85547,15.81543
			c0,0,4.39307,10.10547,3.73438,10.98486c0,0,4.83154,13.83789,3.29492,14.93848c0,0,7.02979,14.27637,5.71094,14.05566
			c-1.31787-0.22021,6.59131,11.8623,6.1499,14.2793c-0.43701,2.4165,9.88672,12.74219,9.22705,14.93652
			c-0.65771,2.19678,12.95996,13.18262,10.98389,14.27832c-1.97754,1.09863,12.52246,13.40039,10.76367,13.83887
			c-1.75732,0.44092,13.18018,14.06152,11.64404,15.59619c0,0,10.32422,9.00732,8.78467,17.35547
			C99.73047,202.52393,76.66406,195.93652,76.66406,195.93652z"/>
		<g>
			<g>
				<path d="M65.96875,184.71826c0.66602-2.6084,2.18457-5.01074,4.22803-6.80469c1.04785-0.87549,2.23047-1.55713,3.43164-2.15186
					c1.19824-0.60498,2.44824-1.10498,3.74805-1.47949c2.604-0.76123,5.4082-0.75684,8.0625-0.26563
					c2.65869,0.52637,5.1958,1.51416,7.51904,2.83984c0.02148,0.01172,0.02881,0.03906,0.0166,0.06006
					c-0.01025,0.01855-0.03271,0.02637-0.05176,0.02002c-2.54297-0.81299-5.0708-1.5752-7.65186-1.99805
					c-2.56787-0.4751-5.19287-0.60059-7.78809-0.18701c-1.29248,0.21729-2.56836,0.62207-3.72217,1.26221
					c-1.15381,0.64307-2.15674,1.51563-3.06885,2.43848c-1.85107,1.82227-3.42676,3.92627-4.64014,6.29443
					c-0.00928,0.02246-0.03516,0.03271-0.05762,0.02344C65.97461,184.76221,65.96533,184.73828,65.96875,184.71826z"/>
			</g>
			<g>
				<path d="M54.29199,169.41406c0.60791-2.59717,2.08594-5.00342,4.10352-6.79102c1.0332-0.87402,2.2041-1.55273,3.39307-2.14355
					c1.18652-0.59961,2.4209-1.104,3.70801-1.47559c2.57617-0.76709,5.34912-0.78174,7.98389-0.33545
					c2.63916,0.48438,5.16748,1.41895,7.49512,2.68506c0.02148,0.01172,0.0293,0.03857,0.01758,0.06006
					c-0.01025,0.01855-0.03223,0.02686-0.05176,0.021c-2.53613-0.74902-5.05273-1.45898-7.61621-1.8418
					c-2.55078-0.43213-5.15088-0.54004-7.72021-0.12012c-1.28076,0.21436-2.54199,0.62402-3.68311,1.25879
					c-1.1416,0.63916-2.13135,1.50732-3.02832,2.42725c-1.82227,1.81348-3.35791,3.91553-4.51758,6.28174
					c-0.00879,0.02246-0.03467,0.03369-0.05713,0.0249C54.29932,169.45752,54.28906,169.43408,54.29199,169.41406z"/>
			</g>
			<g>
				<path d="M46.1626,154.8457c0.39746-2.42871,1.58008-4.75049,3.33105-6.5293c0.89893-0.87158,1.94678-1.56055,3.01758-2.15967
					c1.06836-0.60742,2.19287-1.11279,3.37549-1.48779c2.37109-0.76563,4.95703-0.74463,7.37988-0.26904
					c2.42822,0.51563,4.73047,1.46875,6.82617,2.72998c0.02051,0.0127,0.02734,0.04004,0.01465,0.06055
					c-0.01074,0.01807-0.03223,0.02539-0.05176,0.01953c-2.32227-0.75244-4.61963-1.47998-6.96826-1.89014
					c-2.33447-0.45703-4.7251-0.59863-7.08398-0.18408c-1.17334,0.21631-2.32715,0.62695-3.34668,1.26611
					c-1.01855,0.64404-1.87109,1.5083-2.62891,2.41406c-1.55127,1.78564-2.81836,3.81738-3.78027,6.05127
					c-0.00781,0.02295-0.0332,0.03516-0.05615,0.02734C46.17188,154.8877,46.16064,154.86523,46.1626,154.8457z"/>
			</g>
			<g>
				<path d="M37.8877,139.83496c0.2876-2.17773,1.37256-4.27881,3.02734-5.78857c0.84863-0.73584,1.83301-1.27881,2.82764-1.73389
					c0.99316-0.46338,2.02734-0.83252,3.10303-1.09277c2.1582-0.53223,4.44482-0.37598,6.58447,0.12305
					c2.1377,0.55078,4.16504,1.43799,6.00781,2.60596c0.021,0.0127,0.02686,0.04004,0.01367,0.06104
					c-0.01074,0.01709-0.03223,0.02441-0.05078,0.01807c-2.07471-0.66016-4.10986-1.32715-6.18457-1.77295
					c-2.06299-0.48047-4.16943-0.74512-6.29102-0.56104c-1.05566,0.10352-2.11035,0.37598-3.05615,0.87402
					c-0.94531,0.50293-1.74219,1.23291-2.44482,2.00391c-1.43994,1.51318-2.59473,3.29395-3.45068,5.28271
					c-0.00781,0.02344-0.0332,0.03564-0.05615,0.02783C37.89844,139.87598,37.88672,139.854,37.8877,139.83496z"/>
			</g>
			<g>
				<path d="M31.1499,125.63428c0.08984-2.00928,0.85205-4.00391,2.14648-5.5874c0.67432-0.77393,1.49072-1.3999,2.32617-1.95264
					c0.83545-0.55322,1.71582-1.04248,2.66309-1.41406c1.90039-0.75732,4.03857-0.79834,6.02393-0.44287
					c1.9917,0.39893,3.87451,1.17285,5.57178,2.2251c0.02051,0.0127,0.02686,0.04004,0.01416,0.06104
					c-0.01074,0.01709-0.03174,0.02441-0.05029,0.01904c-1.91748-0.54004-3.79346-1.08838-5.69922-1.38232
					c-1.89453-0.33691-3.82324-0.42188-5.71973-0.02002c-0.94238,0.2085-1.86377,0.59326-2.63916,1.18652
					c-0.77783,0.5918-1.38135,1.37305-1.91113,2.16602c-1.10107,1.56396-1.95605,3.29346-2.63916,5.15625
					c-0.00684,0.02344-0.03125,0.03711-0.05469,0.03027C31.16309,125.67383,31.15039,125.65332,31.1499,125.63428z"/>
			</g>
			<g>
				<path d="M24.77979,110.03564c0.17334-1.9375,1.09082-3.81592,2.49756-5.20166c0.72803-0.6748,1.57959-1.18359,2.43262-1.63379
					c0.854-0.44971,1.73291-0.854,2.66162-1.16064c1.85889-0.63477,3.88867-0.66064,5.80811-0.36719
					c1.92041,0.34619,3.76074,1.0127,5.43945,1.95947c0.021,0.01221,0.02881,0.03906,0.0166,0.06055
					c-0.00977,0.01758-0.02979,0.02539-0.04883,0.02148c-1.87451-0.4248-3.7041-0.86963-5.55127-1.11523
					c-1.83887-0.28125-3.69727-0.37793-5.54932-0.09229c-0.92236,0.14697-1.83496,0.44482-2.63477,0.94141
					c-0.80225,0.49561-1.45996,1.18311-2.04443,1.89014c-1.20752,1.38525-2.18213,2.96143-2.94141,4.71631
					c-0.00781,0.02295-0.03271,0.03564-0.05615,0.02783C24.79102,110.07568,24.77979,110.0542,24.77979,110.03564z"/>
			</g>
			<g>
				<path d="M20.49658,92.24414c0.05371-1.74219,1.27637-3.38916,2.8623-4.14844c0.80762-0.36816,1.66992-0.51611,2.50488-0.64795
					c0.83691-0.13281,1.67383-0.24512,2.52441-0.31445c1.70459-0.14697,3.42334,0.0791,5.06738,0.48584
					c1.63721,0.45264,3.2124,1.09424,4.67334,1.95605c0.021,0.0127,0.02783,0.04004,0.01563,0.06104
					c-0.00977,0.0166-0.02979,0.02441-0.04785,0.021c-1.65918-0.34082-3.25781-0.77393-4.86768-1.12891
					c-1.59863-0.39844-3.20215-0.72705-4.84521-0.91406c-0.82031-0.08398-1.66113-0.08154-2.46484,0.11328
					c-0.80469,0.19141-1.54736,0.57617-2.20898,1.00977c-1.34912,0.81982-2.46436,1.97705-3.12646,3.52148
					c-0.00732,0.02344-0.03174,0.03662-0.05566,0.0293C20.51025,92.28271,20.49805,92.26221,20.49658,92.24414z"/>
			</g>
			<g>
				<path d="M17.97168,77.95947c0.22998-1.59033,1.48486-2.92822,2.92725-3.57715c0.74316-0.30811,1.52734-0.43945,2.28564-0.57861
					c0.76025-0.13672,1.51563-0.28369,2.28711-0.39453c1.54395-0.23486,3.12354-0.13379,4.64697,0.13867
					c1.51807,0.31982,2.99072,0.81982,4.36133,1.54736c0.02197,0.01172,0.03027,0.03857,0.01855,0.06055
					c-0.00879,0.0166-0.02734,0.02539-0.04492,0.02344c-1.53662-0.19531-3.01758-0.48486-4.50195-0.70947
					c-1.47705-0.2666-2.95215-0.47852-4.4585-0.58008c-0.75244-0.04346-1.51709-0.00635-2.24561,0.19189
					s-1.39844,0.56592-2.01465,0.95166c-1.25146,0.73193-2.37891,1.64258-3.17627,2.95068l-0.00342,0.00488
					c-0.0127,0.021-0.04004,0.02734-0.06055,0.01465C17.97705,77.99414,17.96973,77.97656,17.97168,77.95947z"/>
			</g>
			<g>
				<path d="M17.16553,66.09863c0.13916-1.4043,1.24951-2.60645,2.52588-3.14502c0.6582-0.25488,1.34912-0.33984,2.01172-0.44482
					c0.66406-0.10156,1.32275-0.22412,1.99561-0.31592c1.34766-0.20068,2.72363-0.09229,4.04492,0.16553
					c1.31543,0.30664,2.58643,0.77344,3.75684,1.45654c0.021,0.01221,0.02832,0.04004,0.01611,0.06104
					c-0.00928,0.01611-0.02734,0.02393-0.04443,0.02197c-1.34326-0.15283-2.62646-0.40967-3.91113-0.62012
					c-1.27588-0.25244-2.54688-0.46924-3.85059-0.604c-0.65088-0.06201-1.31592-0.0498-1.94971,0.11377
					c-0.63379,0.16504-1.21436,0.48828-1.74463,0.82129c-1.08105,0.62402-2.05225,1.38379-2.76563,2.51221l-0.00342,0.00537
					c-0.01318,0.02051-0.04053,0.02686-0.06104,0.01367C17.17139,66.13086,17.16406,66.11475,17.16553,66.09863z"/>
			</g>
			<g>
				<path d="M18.9248,49.9834c0.01563-0.73486,0.5249-1.34961,1.13135-1.65234c0.31982-0.13916,0.68018-0.1582,0.98975-0.25
					c0.31348-0.08594,0.60303-0.22998,0.90625-0.37744c0.60352-0.31055,1.28174-0.41602,1.93896-0.41895
					c0.65918,0.0459,1.30859,0.21143,1.8916,0.58789c0.02246,0.01465,0.02881,0.04443,0.01416,0.06641
					c-0.00635,0.01025-0.0166,0.01758-0.02783,0.02051c-0.66602,0.18311-1.27881,0.22754-1.88428,0.2627
					c-0.60645-0.01074-1.19531-0.00537-1.82813-0.04883c-0.31299-0.00732-0.63086,0.02979-0.90674,0.17285
					c-0.27881,0.13818-0.48828,0.40137-0.70117,0.60205c-0.44971,0.37891-0.90088,0.6626-1.44287,1.06934L19,50.02197
					c-0.02051,0.01563-0.05029,0.01123-0.06592-0.00928C18.92773,50.00391,18.9248,49.99365,18.9248,49.9834z"/>
			</g>
		</g>
		<path fill="none" stroke="#000000" stroke-width="1.75734" stroke-linecap="round" stroke-miterlimit="10" d="M70.5127,195.93652
			c0,0-5.27295-7.68945-4.83301-11.2041c0,0-12.95947-10.10498-11.6416-16.69629c0,0-10.98193-10.54297-8.12793-14.9375
			c0,0-8.12793-7.46631-8.56641-13.83838c0,0-7.25-8.12793-6.58984-14.71826c0,0-8.56738-12.52148-6.1499-16.69336
			c0,0-4.1748-6.81055-4.1748-14.05908c0-7.24902-4.17432-14.05957-2.41699-17.57373c0,0-1.53613-7.9082-1.09717-10.98242
			c0,0-1.53906-12.7417,1.53711-15.81641c0,0,2.1958-33.38867,10.76221-41.95752c0,0-1.75635,28.11816-0.43848,32.73193
			s0.43848,8.34668-0.6582,7.90723c0,0,4.1748,14.71777,2.85547,15.81543c0,0,4.39307,10.10547,3.73438,10.98486
			c0,0,4.83154,13.83789,3.29492,14.93848c0,0,7.02979,14.27637,5.71094,14.05566c-1.31787-0.22021,6.59131,11.8623,6.1499,14.2793
			c-0.43701,2.4165,9.88672,12.74219,9.22705,14.93652c-0.65771,2.19678,12.95996,13.18262,10.98389,14.27832
			c-1.97754,1.09863,12.52246,13.40039,10.76367,13.83887c-1.75732,0.44092,13.18018,14.06152,11.64404,15.59619
			c0,0,10.32422,9.00732,8.78467,17.35547C99.73047,202.52393,70.5127,195.93652,70.5127,195.93652z"/>
		<g>
			<path d="M95.04248,179.9707c0,0-7.76221-5.5625-11.8623-5.4165c0,0,7.76221,0,8.78857,1.02197
				C92.99414,176.60205,95.04248,179.9707,95.04248,179.9707z"/>
			<path d="M72.92969,158.88184c0,0,6.81006,2.63818,10.65332,7.14063l-3.62305-5.10791
				C79.95996,160.91455,75.896,158.71777,72.92969,158.88184z"/>
			<path d="M70.00244,149.4375c0,0-4.39502-3.87842-7.46973-4.31982c0,0,2.63672-0.43799,5.85645,1.31641
				C71.61035,148.19287,70.00244,149.4375,70.00244,149.4375z"/>
			<path d="M59.01758,134.79248c0,0-4.90674-2.63379-6.73682-2.78076c0,0,3.36963-0.73438,6.15186,1.1709L59.01758,134.79248z"/>
			<path d="M50.08594,120.71484c0,0-1.81396-3.23877-4.88965-3.56885c0,0,1.86816-0.76758,4.28418,1.20801L50.08594,120.71484z"/>
			<path d="M38.55273,102.5376c0,0,4.11865,1.37354,4.94287,3.07568c0,0,0.49365-1.97607-1.59229-2.58154
				C39.81494,102.4292,38.55273,102.5376,38.55273,102.5376z"/>
			<path d="M32.69482,88.33447c0,0,4.57715,1.97607,5.52686,3.73486c0,0,0.98975-2.41699-1.24414-3.29639
				C34.74414,87.89355,32.69482,88.33447,32.69482,88.33447z"/>
			<path d="M34.45117,76.43555c0,0-2.48975-2.16162-5.16211-2.125c0,0,3.00342-1.05957,4.50391,0.51172
				C35.29443,76.39893,34.45117,76.43555,34.45117,76.43555z"/>
			<path d="M30.82764,65.34375c0,0-0.87842-1.83203-3.51465-2.08984c0,0,1.93994-0.4375,2.89111,0
				C31.15723,63.69531,30.82764,65.34375,30.82764,65.34375z"/>
		</g>
	</g>
	<g>
		<path d="M102.85205,196.1582c-1.40479,2.01416-3.53223,3.47363-5.81396,4.3501c-1.15967,0.41406-2.36426,0.65234-3.55322,0.88135
			c-1.18896,0.23633-2.38281,0.44092-3.59326,0.5874c-2.42188,0.3042-4.90088,0.14404-7.2915-0.33984
			c-2.38623-0.52393-4.69482-1.35889-6.83008-2.51318l0.03223-0.08203c2.3374,0.63428,4.64355,1.25146,6.98242,1.67676
			c2.32861,0.47363,4.68848,0.74512,7.0791,0.77783c1.19385,0.00586,2.39648-0.10156,3.56006-0.38525
			c1.16309-0.28955,2.26855-0.76709,3.3335-1.27832c2.14453-0.98486,4.20801-2.14941,6.02637-3.73047L102.85205,196.1582z"/>
	</g>
	<g>
		<path fill="#67652F" d="M110.86035,189.27002c0,0,4.97852-15.96338,7.75977-17.28271
			c2.7832-1.31592,7.32227-12.74072,12.88867-14.64258c0,0,5.41797-9.81152,9.80957-12.01025
			c4.39355-2.19434,8.05469-10.90918,9.92188-12.44775c1.86719-1.53955,7.03125-12.41162,8.89648-13.51172
			c1.86719-1.09619,5.16309-13.17773,6.48242-13.50732c1.31543-0.32764,3.18359-10.87402,5.16016-12.84863
			c1.97754-1.97949,1.97754-12.19141,3.29395-13.51221c1.31836-1.31738,1.54004-9.44482,2.30664-10.7627
			c0.76953-1.31738,1.75781-13.83984,2.63672-15.04639c0.87891-1.20898,0.3291-34.59961-2.08594-37.78271
			c0,0,8.78613,8.23877,12.52051,30.09277c0,0,1.86816,8.56738,1.31836,10.32617c-0.54883,1.75537,1.97656,10.32275,0.5498,14.16602
			c-1.42773,3.84473,1.31738,8.34814,0.3291,10.65625c-0.99023,2.30566-1.31836,12.08203-2.52637,15.48535
			c-1.20898,3.40527-0.21973,7.02783-3.62402,13.40039c-3.40527,6.36914-3.9541,11.97119-5.82227,15.15771
			c-1.86523,3.18262-2.85547,8.89648-6.47949,13.39893c-3.62402,4.50293-5.49219,10.76318-8.56836,13.83838
			c-3.07324,3.07568-4.39258,10.76465-7.79688,13.50928c-3.40527,2.74561-8.45801,12.74219-10.54395,14.27832
			c-2.08691,1.53857-6.80957,7.02979-4.06348,10.10645C143.22363,190.33105,122.53809,209.18555,110.86035,189.27002z"/>
		<path fill="#C5C19D" d="M110.86035,189.27002c0,0,4.97852-15.96338,7.75977-17.28271
			c2.7832-1.31592,7.32227-12.74072,12.88867-14.64258c0,0,5.41797-9.81152,9.80957-12.01025
			c4.39355-2.19434,8.05469-10.90918,9.92188-12.44775c1.86719-1.53955,7.03125-12.41162,8.89648-13.51172
			c1.86719-1.09619,5.16309-13.17773,6.48242-13.50732c1.31543-0.32764,3.18359-10.87402,5.16016-12.84863
			c1.97754-1.97949,1.97754-12.19141,3.29395-13.51221c1.31836-1.31738,1.54004-9.44482,2.30664-10.7627
			c0.76953-1.31738,1.75781-13.83984,2.63672-15.04639c0.87891-1.20898,0.3291-34.59961-2.08594-37.78271
			c0,0,2.08594,8.23877,5.82031,30.09277c0,0,1.86816,8.56738,1.31934,10.32617c-0.5498,1.75537,1.97754,10.32275,0.54883,14.16602
			c-1.42871,3.84473,1.31836,8.34814,0.3291,10.65625c-0.98828,2.30566-1.31738,12.08203-2.52637,15.48535
			c-1.20898,3.40527-0.2207,7.02783-3.62402,13.40039c-3.40625,6.36914-3.95508,11.97119-5.82129,15.15771
			c-1.86621,3.18262-2.85742,8.89648-6.48145,13.39893c-3.62402,4.50293-5.49121,10.76318-8.56738,13.83838
			c-3.07422,3.07568-4.39063,10.76465-7.79785,13.50928c-3.4043,2.74561-8.45703,12.74219-10.54297,14.27832
			c-2.08789,1.53857-9.66602,13.1123-2.63574,13.65967C137.95117,193.88428,122.72266,205.89307,110.86035,189.27002z"/>
		<g>
			<path d="M147.20508,180.21484c-1.36328-2.44873-3.14648-4.57666-5.20996-6.38184c-1.0166-0.91846-2.125-1.77637-3.37109-2.40039
				c-1.24609-0.61719-2.59766-1.01611-3.96777-1.22021c-2.74609-0.40137-5.5166-0.29785-8.24121,0.13574
				c-2.73633,0.38379-5.42676,1.09668-8.13281,1.86426c-0.02344,0.00635-0.04785-0.00684-0.05469-0.03027
				c-0.00586-0.02051,0.00391-0.04199,0.02148-0.05176c2.50684-1.28809,5.21191-2.22412,8.01953-2.70801
				c2.80469-0.4458,5.73438-0.42676,8.48633,0.31934c1.37598,0.35986,2.70313,0.854,3.99121,1.43359
				c1.28906,0.57324,2.56543,1.22998,3.71289,2.09277c2.25195,1.7627,4.00195,4.20117,4.82813,6.91553
				c0.00684,0.02344-0.00586,0.04785-0.0293,0.05518C147.23828,180.24463,147.21484,180.23242,147.20508,180.21484z"/>
		</g>
		<g>
			<path d="M157.23926,166.65283c-0.78613-2.65186-1.84863-5.1748-3.2793-7.4668c-0.69922-1.15186-1.51074-2.27148-2.56445-3.14844
				c-1.05273-0.87207-2.31445-1.48242-3.63086-1.79639c-2.64941-0.62451-5.38672-0.31152-7.98438,0.41846
				c-2.62207,0.69336-5.1416,1.79346-7.66406,2.94385c-0.02246,0.01025-0.04883,0.00049-0.05859-0.02197
				c-0.00879-0.01904-0.00293-0.04199,0.01367-0.0542c2.24707-1.63379,4.74805-2.96045,7.45605-3.77002
				c2.69336-0.7627,5.69531-0.96729,8.37598,0.02295c1.33301,0.479,2.55957,1.18359,3.66895,2.03418
				c1.11523,0.8418,2.15039,1.82324,2.99414,2.96338c1.62793,2.31885,2.55371,5.08252,2.75879,7.86133
				c0.00195,0.02441-0.01563,0.04541-0.04004,0.04736C157.26367,166.68799,157.24414,166.67188,157.23926,166.65283z"/>
		</g>
		<g>
			<path d="M165.47656,152.77637c-0.97754-2.15088-2.25586-4.08838-3.78906-5.79883c-0.75098-0.8667-1.58691-1.69824-2.5791-2.31982
				c-0.99121-0.61816-2.11035-1.01855-3.24805-1.24219c-2.28711-0.42822-4.6084-0.36182-6.88965,0.0083
				c-2.29297,0.31982-4.54688,0.94189-6.83008,1.58594c-0.02344,0.00684-0.04785-0.00684-0.05469-0.03027
				c-0.00586-0.02002,0.00391-0.04102,0.02148-0.05078c2.07324-1.16113,4.3418-2.0083,6.71484-2.43018
				c2.36816-0.38477,4.87207-0.32568,7.16016,0.45166c1.14258,0.38184,2.23145,0.87598,3.27051,1.46191
				c1.04297,0.57617,2.07031,1.22803,2.95996,2.05664c1.72949,1.69678,2.93164,3.92822,3.34766,6.28516
				c0.00488,0.02393-0.01172,0.04639-0.03516,0.05078C165.50488,152.80811,165.48438,152.79443,165.47656,152.77637z"/>
		</g>
		<g>
			<path d="M173.71484,139.12549c-1.03125-1.92871-2.33789-3.62451-3.86133-5.09863
				c-0.74609-0.75146-1.56641-1.47021-2.51953-1.98389c-0.9541-0.50732-2.00781-0.81982-3.07227-0.9624
				c-2.13574-0.27783-4.27441-0.14258-6.37793,0.23926c-2.11523,0.33545-4.19434,0.92529-6.30957,1.51953
				c-0.02344,0.00684-0.04883-0.00684-0.05469-0.03027c-0.00586-0.02002,0.00293-0.04053,0.01953-0.05078
				c1.90234-1.10938,3.99023-1.92285,6.17773-2.36035c2.18652-0.39697,4.49609-0.41309,6.64453,0.21191
				c1.07324,0.29932,2.10156,0.70703,3.09961,1.17871c1,0.46436,1.99707,0.98975,2.87988,1.69287
				c1.71973,1.44531,2.97461,3.44922,3.45801,5.6167c0.00488,0.02393-0.00977,0.04736-0.0332,0.05273
				C173.74512,139.15527,173.72461,139.14258,173.71484,139.12549z"/>
		</g>
		<g>
			<path d="M180.74414,125.21484c-1.04492-1.69775-2.28906-3.18018-3.71094-4.4834
				c-0.69434-0.66846-1.44629-1.31592-2.31641-1.77783c-0.86816-0.46387-1.83008-0.73535-2.79883-0.86719
				c-1.94336-0.25195-3.88379-0.17188-5.80273,0.13477c-1.92773,0.25781-3.83203,0.73682-5.77637,1.21631
				c-0.02441,0.00635-0.04785-0.0083-0.05371-0.03223c-0.00488-0.01953,0.00391-0.03955,0.02051-0.04883
				c1.74219-0.99951,3.66113-1.70313,5.66406-2.06055c2.00098-0.31982,4.10449-0.27686,6.05078,0.3208
				c0.97363,0.29004,1.90527,0.66846,2.82129,1.08105c0.91504,0.41162,1.83789,0.86133,2.66309,1.47461
				c1.60254,1.26807,2.82813,3.04346,3.32129,5.01221c0.00586,0.02344-0.00781,0.04736-0.03223,0.05322
				C180.77539,125.24268,180.75391,125.23096,180.74414,125.21484z"/>
		</g>
		<g>
			<path d="M186.28906,110.67383c-1.06641-1.52441-2.38672-2.74268-3.85254-3.77539
				c-0.71973-0.53516-1.49316-1.04688-2.35254-1.37598c-0.8584-0.32813-1.77734-0.4834-2.69141-0.52148
				c-1.83301-0.07031-3.6416,0.08301-5.44043,0.36963c-1.80566,0.24805-3.59863,0.63379-5.43945,0.98145
				c-0.02441,0.00439-0.04785-0.01123-0.05176-0.03516c-0.00391-0.01953,0.00586-0.03906,0.02246-0.04785
				c1.66113-0.87549,3.46094-1.47803,5.32031-1.82373c1.8623-0.29492,3.79883-0.33203,5.65039,0.07861
				c0.92578,0.19434,1.8252,0.4585,2.72266,0.729c0.89551,0.27295,1.80957,0.56445,2.65332,1.0293
				c1.64355,0.9707,3.00879,2.52246,3.54102,4.35742c0.00586,0.02344-0.00684,0.04785-0.03027,0.05469
				C186.32227,110.69971,186.2998,110.68848,186.28906,110.67383z"/>
		</g>
		<g>
			<path d="M189.96973,96.875c-0.87207-1.50684-2.07813-2.66455-3.45605-3.5918c-0.67676-0.48242-1.41797-0.93359-2.23438-1.20117
				c-0.81738-0.26514-1.68457-0.35498-2.54004-0.33887c-1.71582,0.04053-3.39844,0.26074-5.07617,0.57861
				c-1.68555,0.27393-3.36035,0.65039-5.08887,0.95801c-0.02441,0.00439-0.04785-0.01172-0.05176-0.03564
				c-0.00391-0.01953,0.00586-0.03857,0.02246-0.04736c1.54883-0.83496,3.21777-1.4248,4.94531-1.7959
				c1.73047-0.32568,3.53418-0.43506,5.28418-0.1377c0.875,0.13965,1.72949,0.33887,2.58301,0.54492
				c0.85059,0.21045,1.72461,0.43457,2.53516,0.84961c1.57715,0.8667,2.85645,2.41846,3.16113,4.19189
				c0.00391,0.02393-0.01172,0.04688-0.03613,0.05127c-0.01855,0.00293-0.03613-0.00586-0.04492-0.02148L189.96973,96.875z"/>
		</g>
		<g>
			<path d="M192.72168,81.18066c-1.19434-1.00781-2.58398-1.57568-4.00098-2.10791c-0.70313-0.28369-1.43457-0.56982-2.19922-0.7041
				c-0.76465-0.1377-1.54883-0.13184-2.32129-0.0625c-1.54688,0.15381-3.06738,0.36182-4.58887,0.6167
				c-1.5293,0.20996-3.05566,0.46631-4.63477,0.62598c-0.02441,0.00293-0.0459-0.01514-0.04883-0.03955
				c-0.00195-0.01904,0.00879-0.03662,0.02539-0.04443c1.42773-0.69727,2.94922-1.16309,4.50488-1.46631
				c1.56152-0.2583,3.16504-0.354,4.74609-0.17334l2.35547,0.26074c0.78418,0.07227,1.58789,0.11035,2.37793,0.28809
				c0.78516,0.18994,1.53516,0.53369,2.21094,0.98682c0.66992,0.45459,1.28809,1.03223,1.64551,1.771
				c0.01074,0.02197,0.00195,0.04834-0.02051,0.05908c-0.01563,0.00781-0.03418,0.00488-0.04688-0.00635L192.72168,81.18066z"/>
		</g>
		<g>
			<path d="M191.94727,71.1748c-0.80273-1.05566-1.82031-1.74707-2.91504-2.354c-0.53809-0.32227-1.11621-0.64502-1.74609-0.81396
				c-0.62891-0.17041-1.29102-0.19287-1.94043-0.14893c-1.30078,0.10645-2.57227,0.27783-3.84863,0.48975
				c-1.2832,0.16797-2.56738,0.38086-3.9082,0.49023c-0.02441,0.00195-0.04688-0.01611-0.04883-0.04102
				c-0.00098-0.01807,0.00879-0.03467,0.02344-0.04297c1.18457-0.64453,2.46387-1.06787,3.78027-1.33057
				c1.32227-0.2168,2.69238-0.27588,4.02539-0.0459l1.97754,0.35107c0.65723,0.1084,1.3418,0.19336,1.99707,0.43066
				c1.26563,0.51172,2.42578,1.60498,2.68555,2.98633c0.00488,0.02393-0.01074,0.04688-0.03516,0.05176
				c-0.0166,0.00293-0.0332-0.00391-0.04297-0.01709L191.94727,71.1748z"/>
		</g>
		<g>
			<path d="M191.81348,56.11084c0.0127,0.03027,0.02539,0.05713,0.03613,0.09326c-0.00391,0.0415,0.05371,0.05322-0.03223,0.1709
				c-0.19922,0.05713-0.17969-0.03711-0.22559-0.0376l-0.08496-0.06445c-0.10352-0.0835-0.19922-0.16309-0.28613-0.24951
				c-0.17969-0.16748-0.3457-0.33691-0.5127-0.50391c-0.33105-0.33545-0.66406-0.65039-0.97461-0.99463
				c-0.30664-0.3457-0.60352-0.73926-1.00293-1.00293c-0.39551-0.26709-0.86035-0.41357-1.32813-0.48145
				c-0.94336-0.11475-1.84473-0.14551-2.7627-0.06396c-0.9209,0.03271-1.84766,0.15479-2.85156,0.21191
				c-0.02539,0.00146-0.04688-0.01758-0.04785-0.04297c-0.00195-0.01611,0.00684-0.03076,0.01855-0.04004
				c0.82031-0.5918,1.79102-0.94287,2.80566-1.06299c1.01172-0.0791,2.07715,0.06445,2.9834,0.53955l1.3252,0.69336
				c0.43848,0.22363,0.92871,0.4043,1.3457,0.70215c0.41406,0.29932,0.74609,0.69531,1.02051,1.11572
				c0.1377,0.21094,0.25977,0.43066,0.36133,0.65771c0.05566,0.10986,0.09668,0.22998,0.1416,0.33789l0.03223,0.0752
				c-0.00488,0.03711,0.06152,0.00781-0.07813,0.04492c-0.03613,0.08398,0.0293-0.05078,0.0293-0.09131
				c0-0.02393,0.01953-0.04346,0.04395-0.04346c0.01758,0,0.0332,0.01123,0.04004,0.02686L191.81348,56.11084z"/>
		</g>
		<path fill="none" stroke="#000000" stroke-width="1.75734" stroke-miterlimit="10" d="M110.86035,189.27002
			c0,0,4.97852-15.96338,7.75977-17.28271c2.7832-1.31592,7.32227-12.74072,12.88867-14.64258c0,0,5.41797-9.81152,9.80957-12.01025
			c4.39355-2.19434,8.05469-10.90918,9.92188-12.44775c1.86719-1.53955,5.05371-12.22461,8.89648-13.51172
			c4.16504-1.3877,5.16309-13.17773,6.48242-13.50732c1.31543-0.32764,2.08496-10.46826,5.16016-12.84863
			c2.21191-1.71484,1.97754-12.19141,3.29395-13.51221c1.31836-1.31738,1.54004-9.44482,2.30664-10.7627
			c0.76953-1.31738,1.75781-13.83984,2.63672-15.04639c0.87891-1.20898,0.3291-34.59961-2.08594-37.78271
			c0,0,8.78613,8.23877,12.52051,30.09277c0,0,1.86816,8.56738,1.31836,10.32617c-0.54883,1.75537,1.97656,10.32275,0.5498,14.16602
			c-1.42773,3.84473,1.31738,8.34814,0.3291,10.65625c-0.99023,2.30566-1.31836,12.08203-2.52637,15.48535
			c-1.20898,3.40527,0.53418,7.49316-3.62402,13.40039c-4.61328,6.55615-3.9541,11.97119-5.82227,15.15771
			c-1.86523,3.18262-2.42383,9.27832-6.47949,13.39893c-4.72266,4.79883-5.49219,10.76318-8.56836,13.83838
			c-3.07324,3.07568-4.39258,10.76465-7.79688,13.50928c-3.40527,2.74561-8.45801,12.74219-10.54395,14.27832
			c-2.08691,1.53857-6.80957,7.02979-4.06348,10.10645C143.22363,190.33105,122.53809,209.18555,110.86035,189.27002z"/>
		<g>
			<path d="M115.39941,178.21436c0,0,7.46777-7.76074,14.05664-8.2002c0,0-9.8125-0.58691-11.71289,2.63574
				C115.83887,175.87109,115.39941,178.21436,115.39941,178.21436z"/>
			<path d="M141.39355,146.14307c0,0,5.70996-3.2959,8.27344-3.07666C152.22949,143.28516,143.88281,141.38281,141.39355,146.14307z
				"/>
			<path d="M150.61914,134.13574c-0.12207,0.2334,9.51855-3.87988,10.69141-3.51514
				C161.31055,130.62061,153.62012,128.27637,150.61914,134.13574z"/>
			<path d="M128.50586,160.31152c0,0,9.44531-5.71143,11.09277-5.71143C139.59863,154.6001,129.71387,154.92676,128.50586,160.31152
				z"/>
			<path d="M159.25781,120.55127c0,0,4.28418-2.30811,9.22754-2.52588C168.48535,118.02539,163.10156,115.2793,159.25781,120.55127z
				"/>
			<path d="M165.79297,110.33643c0,0,2.36133-5.05273,6.42578-5.16113C172.21875,105.17529,165.32715,103.30811,165.79297,110.33643
				z"/>
			<path d="M170.95605,95.34473c0,0,2.52539-2.9668,5.87598-3.24072c0,0-3.625-0.21875-4.77734,0.87939
				C170.90039,94.08008,170.95605,95.34473,170.95605,95.34473z"/>
			<path d="M174.92871,82.58545c0,0,1.02344-3.44141,3.7334-3.80762c0,0-2.12109-0.51318-3.44043,1.31836
				C173.9043,81.92871,174.92871,82.58545,174.92871,82.58545z"/>
			<path d="M177.27051,71.52881c0,0,4.32227-3.5874,5.56641-3.5874c0,0-2.93066-0.73242-4.90625,0.51318
				C175.95215,69.69727,177.27051,71.52881,177.27051,71.52881z"/>
		</g>
	</g>
</g>
</svg>