<svg xmlns="http://www.w3.org/2000/svg" width="214.667" height="504" viewBox="0 0 214.66699 504"><path stroke="#000" stroke-width="7.908" stroke-miterlimit="10" d="M43.26 316.77s-2.58 12.85-11.223 11.566c-8.648-1.285-.455-3.536.3-4.658.759-1.127-6.065-1.447-6.674 7.709-.603 9.157 4.248 10.928 5.614 11.084 1.365.165-6.673 2.573-10.92-10.925 0 0-1.212 16.871 16.987 15.748 0 0-8.494 18.633-.758 25.061 0 0-2.88-12.05 5.913-19.119 0 0-1.515 19.277 1.974 24.415 0 0-6.675 15.101-17.442 13.177 0 0 5.006 4.818 17.442-4.66 0 0-.76 13.653-6.22 17.03 0 0 4.246.963 11.527-9.158 0 0 1.366-3.857 1.671 2.893.303 6.746 8.189 21.04 14.86 20.399 0 0-10.463-6.746-11.07-14.618 0 0 5.611 7.39 8.948 7.39 0 0-10.464-11.086.759-17.832 0 0-.152 17.673 10.008 22.97 0 0-1.06-3.05 0-4.656 1.064-1.606 4.25 5.14 2.884 7.714-1.364 2.566-3.944 10.918-8.342 11.404-4.4.48-4.4-2.574-3.79-3.215 0 0-4.4 2.729-.304 4.982 4.094 2.246 8.19 0 9.251-.648 1.062-.638-1.668 5.784-6.675 6.91 0 0 1.366 3.536 7.887-1.285 6.52-4.821 8.193-9.318 8.193-9.318s4.854 10.92 8.795 11.248c0 0-5.915-5.945-3.487-13.977 2.424-8.03 2.424 7.07 5.46 8.834 0 0-1.063-11.724 3.942-11.407 5.006.32 2.077 20.32-.651 23.052-2.73 2.732-7.993 6.831-6.327-2.809 0 0-5.762 1.123-4.095 9.64 1.67 8.516 18.506 16.867 31.397 1.284 5.446-6.58 7.126-13.173 7.126-13.173s4.096 7.554-3.792 14.617c0 0 5.311 1.286 9.557-9.636 4.247-10.924 3.49-15.585 3.335-18.637-.151-3.05 2.733 11.567 13.653 13.656 0 0-6.216-3.855-8.192-10.443-1.97-6.583 3.639 4.338 5.764 4.5 2.124.16-9.251-7.39.454-17.35 0 0 3.947 2.568 5.158 6.267 1.211 3.693 1.517-2.411 3.642-4.822 2.12-2.409 8.036-1.445 11.829-2.409 3.794-.962 10.617-6.907 5.003-13.333 0 0 0 4.178-1.968 4.82-1.973.64-11.68-.486-2.277-22.17 0 0 2.82 6.077-.212 15.073 0 0 4.61-4.148 6.733-11.379 2.125-7.228 2.58-20.882 2.58-20.882s3.638 11.89-1.974 28.113c0 0 10.467-12.533 3.186-41.606 0 0 11.376-2.735 13.349-6.588 1.972-3.854-11.377 4.015-11.073-8.515 0 0 6.976 2.734 3.641-.477-3.339-3.216-10.315-19.604-2.883-23.459 0 0 2.577 1.608 1.063 6.104 0 0 1.063 2.412 1.97-2.25.908-4.658 3.185-8.51-4.702-26.185-1.31-2.936 6.22 7.716 7.735 13.015 0 0-3.033-17.349-7.584-20.402 0 0 10.77.322 11.224-4.178 0 0-3.64 3.053-8.34.643-4.703-2.408-11.528-11.243-8.494-20.72 3.034-9.481 2.427 12.047 2.427 12.047s3.791-1.93 4.701-24.902c.357-9.024 1.519-8.995.914-10.278-.613-1.285 5.457 6.745 17.739 3.532 0 0-16.527-6.748-17.74-19.277-1.218-12.53-.761-20.079 4.396-3.532 5.156 16.544-1.062-14.94-5.008-19.76-3.94-4.82-12.891-13.175-12.891-13.175s12.742-4.337 6.978 4.18c0 0 2.124 2.89 4.854-.966 2.732-3.854-1.366-13.495-4.094-13.652-2.732-.165 7.28-2.573 8.492-5.785 0 0-7.278 2.247-13.499 1.927 0 0 10.16-5.14 10.922-5.943.759-.805-19.87 4.337-24.118 3.854-4.243-.482 12.59-6.425 14.258-13.496 0 0-15.317 7.07-35.187 4.022 0 0 9.553-9.642 16.686-1.932 0 0 5.305-2.567-5.309-7.55 0 0-5.007-1.126-6.22-.643-1.215.483 4.854-9.155.757-11.726 0 0-.906 6.427-6.67 7.87-5.765 1.448-8.8 6.106-28.82 1.607 0 0 14.41-3.05 14.56-5.94.154-2.894-2.883.8-11.829 1.282-8.95.48-18.808 1.285-24.267.161-5.46-1.124 5.309-4.337 1.365-14.939 0 0-5.307 14.456-17.291 14.778-11.98.323-17.593 6.105-17.898 8.515-.303 2.412-3.334.48-3.64-6.747-.302-7.228-4.7 3.694-5.762 10.924-1.064 7.228.555 12.423 1.567 13.279 1.01.856-3.26-13.018-8.385-17.703 0 0 .902 16.417 7.373 20.914 0 0-6.875-1.284-10.111-.64-3.235.64 8.492 1.929 11.123 3.64 2.629 1.714-11.123 2.788-11.932 5.782 0 0 8.899-2.994 11.932-3.212 3.035-.212-9.706 9.428-9.503 12.85 0 0 2.828-3.639 6.064-3.853 3.237-.213-1.212 9.425-9.502 11.354-8.292 1.925-4.249 3.64-4.249 3.64l8.9-.643s-5.865 14.136-16.381 11.57c0 0 3.033 3.425 8.897 1.067 0 0-8.492 10.495-7.683 13.922 0 0 2.83-4.712 6.673-5.57 3.843-.854-7.282 21.848 1.414 34.702 0 0-1.01-12.21 1.82-16.278 0 0 1.415-2.785 1.415 5.355 0 8.136 3.238 23.559 4.046 21.202.807-2.355-4.652 19.923-1.213 23.132 0 0 1.82-11.564 4.651-14.135 2.83-2.572 8.694 27.738 2.933 40.75z"/><path fill="#67652F" d="M43.26 316.77s-2.58 12.85-11.223 11.566c-8.648-1.285-.455-3.536.3-4.658.759-1.127-6.065-1.447-6.674 7.709-.603 9.157 4.248 10.928 5.614 11.084 1.365.165-6.673 2.573-10.92-10.925 0 0-1.212 16.871 16.987 15.748 0 0-8.494 18.633-.758 25.061 0 0-2.88-12.05 5.913-19.119 0 0-1.515 19.277 1.974 24.415 0 0-6.675 15.101-17.442 13.177 0 0 5.006 4.818 17.442-4.66 0 0-.76 13.653-6.22 17.03 0 0 4.246.963 11.527-9.158 0 0 1.366-3.857 1.671 2.893.303 6.746 8.189 21.04 14.86 20.399 0 0-10.463-6.746-11.07-14.618 0 0 5.611 7.39 8.948 7.39 0 0-10.464-11.086.759-17.832 0 0-.152 17.673 10.008 22.97 0 0-1.06-3.05 0-4.656 1.064-1.606 4.25 5.14 2.884 7.714-1.364 2.566-3.944 10.918-8.342 11.404-4.4.48-4.4-2.574-3.79-3.215 0 0-4.4 2.729-.304 4.982 4.094 2.246 8.19 0 9.251-.648 1.062-.638-1.668 5.784-6.675 6.91 0 0 1.366 3.536 7.887-1.285 6.52-4.821 8.193-9.318 8.193-9.318s4.854 10.92 8.795 11.248c0 0-5.915-5.945-3.487-13.977 2.424-8.03 2.424 7.07 5.46 8.834 0 0-1.063-11.724 3.942-11.407 5.006.32 2.579 21.849-.151 24.58-2.73 2.736-8.493 5.303-6.827-4.337 0 0-5.762 1.123-4.095 9.64 1.67 8.516 18.506 16.867 31.397 1.284 5.446-6.58 7.126-13.173 7.126-13.173s4.096 7.554-3.792 14.617c0 0 5.311 1.286 9.557-9.636 4.247-10.924 3.49-15.585 3.335-18.637-.151-3.05 2.733 11.567 13.653 13.656 0 0-6.216-3.855-8.192-10.443-1.97-6.583 3.639 4.338 5.764 4.5 2.124.16-9.251-7.39.454-17.35 0 0 3.947 2.568 5.158 6.267 1.211 3.693 1.517-2.411 3.642-4.822 2.12-2.409 8.036-1.445 11.829-2.409 3.794-.962 10.617-6.907 5.003-13.333 0 0 0 4.178-1.968 4.82-1.973.64-11.68-.486-2.277-22.17 0 0 3.488 2.409.456 11.407 0 0 3.942-.482 6.065-7.713 2.125-7.228 2.58-20.882 2.58-20.882s3.638 11.89-1.974 28.113c0 0 10.466-12.533 3.186-41.606 0 0 11.376-2.735 13.349-6.588 1.972-3.854-11.377 4.015-11.073-8.515 0 0 2.94 9.419 7.187.745 0 0-1.773 1.364-3.546-1.222-2.62-3.825-10.315-19.604-2.883-23.459 0 0 2.577 1.608 1.063 6.104 0 0 1.063 2.412 1.97-2.25.908-4.658 3.185-8.51-4.702-26.185-1.31-2.936 6.22 7.716 7.735 13.015 0 0-3.033-17.349-7.584-20.402 0 0 10.77.322 11.224-4.178 0 0-3.64 3.053-8.34.643-4.703-2.408-11.528-11.243-8.494-20.72 3.034-9.481 2.427 12.047 2.427 12.047s3.791-1.93 4.701-24.902c.357-9.024 1.519-8.995.913-10.278-.612-1.285 5.458 6.745 17.74 3.532 0 0-16.527-6.748-17.74-19.277-1.218-12.53-1.324-19.467 3.832-2.92 5.157 16.546-.499-15.553-4.444-20.372-3.94-4.82-12.891-13.175-12.891-13.175s12.742-4.337 6.978 4.18c0 0 2.124 2.89 4.854-.966 2.732-3.854-1.366-13.495-4.094-13.652-2.732-.165 7.28-2.573 8.492-5.785 0 0-7.278 2.247-13.499 1.927 0 0 10.16-5.14 10.922-5.943.759-.805-19.87 4.337-24.118 3.854-4.243-.482 12.59-6.425 14.258-13.496 0 0-15.317 7.07-35.187 4.022 0 0 9.553-9.642 16.686-1.932 0 0 5.305-2.567-5.309-7.55 0 0-5.007-1.126-6.22-.643-1.216.483 4.854-9.155.757-11.726 0 0-.906 6.427-6.67 7.87-5.765 1.448-8.8 6.106-28.82 1.607 0 0 14.41-3.05 14.56-5.94.154-2.894-2.883.8-11.829 1.282-8.95.48-18.808 1.285-24.267.161-5.46-1.124 5.309-4.337 1.365-14.939 0 0-5.307 14.456-17.291 14.778-11.98.323-17.593 6.105-17.898 8.515-.303 2.412-3.334.48-3.64-6.747-.302-7.228-4.7 3.694-5.762 10.924-1.064 7.228.555 12.423 1.567 13.279 1.01.856-6.334-14.7-9.775-18.581 0 0 2.292 17.295 8.763 21.792 0 0-6.875-1.284-10.111-.64-3.235.64 8.492 1.929 11.123 3.64 2.628 1.714-11.123 2.788-11.932 5.782 0 0 8.899-2.994 11.932-3.212 3.035-.212-9.706 9.428-9.503 12.85 0 0 2.828-3.639 6.064-3.853 3.237-.213-1.212 9.425-9.502 11.354-8.292 1.926-4.249 3.64-4.249 3.64l8.9-.643s-5.865 14.136-16.381 11.57c0 0 3.033 3.425 8.897 1.067 0 0-8.492 10.495-7.683 13.922 0 0 2.83-4.712 6.673-5.57 3.843-.854-8.369 24.148 4.81 40.258 0 0-4.406-17.766-1.575-21.834 0 0 1.414-2.785 1.414 5.355 0 8.136 8.367 17.827 3.312 21.897 0 0-.074 1.662.734-.695.807-2.355-4.652 19.923-1.213 23.132 0 0 1.82-11.564 4.651-14.135 2.83-2.572 8.694 27.738 2.933 40.75z"/><path d="M150.816 274.153s1.694 11.67 7.374 10.503c5.68-1.168.3-3.209-.2-4.231-.499-1.023 3.985-1.314 4.385 7.003.396 8.313-2.787 9.922-3.686 10.063-.897.15 4.386 2.335 7.171-9.918 0 0 .8 15.317-11.158 14.297 0 0 5.58 16.923.498 22.76 0 0 1.892-10.944-3.885-17.361 0 0 .996 17.502-1.294 22.172 0 0 4.384 13.711 11.457 11.963 0 0-3.288 4.372-11.457-4.232 0 0 .496 12.4 4.083 15.465 0 0-2.789.873-7.573-8.314 0 0-.895-3.505-1.095 2.622-.199 6.125-5.382 19.11-9.767 18.527 0 0 6.88-6.125 7.277-13.275 0 0-3.686 6.711-5.877 6.711 0 0 6.872-10.065-.5-16.191 0 0 .097 16.04-6.578 20.855 0 0 .698-2.766 0-4.225-.696-1.462-2.789 4.666-1.89 7 .895 2.336 2.588 9.92 5.481 10.355 2.885.44 2.885-2.332 2.488-2.915 0 0 2.89 2.48.199 4.52-2.687 2.047-5.382 0-6.076-.584-.698-.58 1.096 5.252 4.383 6.278 0 0-.894 3.205-5.181-1.17-4.285-4.376-5.382-8.46-5.382-8.46s-3.19 9.915-5.778 10.212c0 0 3.884-5.4 2.291-12.692-1.593-7.296-1.593 6.417-3.59 8.023 0 0 .7-10.65-2.586-10.361-3.29.295-1.694 19.844.096 22.323 1.796 2.481 5.581 4.813 4.487-3.94 0 0 3.787 1.02 2.69 8.753-1.097 7.734-12.158 15.316-20.626 1.167-3.577-5.978-4.684-11.962-4.684-11.962s-2.688 6.858 2.496 13.277c0 0-3.49 1.165-6.28-8.754-2.788-9.922-2.291-14.15-2.192-16.922.1-2.771-1.793 10.506-8.968 12.399 0 0 4.083-3.501 5.38-9.48 1.295-5.982-2.392 3.94-3.785 4.081-1.397.145 6.077-6.708-.3-15.753 0 0-2.592 2.335-3.388 5.69-.796 3.355-.994-2.189-2.39-4.377-1.396-2.189-5.282-1.313-7.773-2.189-2.49-.873-6.977-6.272-3.289-12.106 0 0 0 3.794 1.295 4.376 1.296.585 7.674-.435 1.498-20.132 0 0-2.294 2.188-.3 10.36 0 0-2.592-.437-3.987-7.008-1.394-6.56-1.695-18.958-1.695-18.958s-2.39 10.791 1.297 25.529c0 0-6.874-11.381-2.092-37.784 0 0-7.472-2.479-8.77-5.98-1.293-3.505 7.475 3.644 7.275-7.734 0 0-4.382 6.127-7.175-1.75 0 0 2.59 4.233 4.784 1.316 2.194-2.92 6.776-17.802 1.891-21.3l90.971 1.458zM81.922 174.997c.41 1.437-3.676-5.072-14.653-4.177 0 0 6.475.768 8.98 3.586 2.507 2.814-3.965-1.45-6.08-1.158-2.114.293 9.775 1.937 1.014 8.403 0 0-4.118-.55-5.63-2.108-1.512-1.564-1.295 1.417-3.193 2.94-1.896 1.53-7.828 2.094-11.498 3.217-3.669 1.12-9.92 5.159-3.825 7.263 0 0-.355-2.001 1.541-2.652 1.897-.652 11.594-1.802 4.12 10.236 0 0-3.653-.547-1.411-5.39 0 0-3.861.918-5.35 4.753-1.49 3.837-.791 10.465-.791 10.465s-4.602-5.07-.418-13.827c0 0-9.295 7.828.357 20.51 0 0-11.022 3.289-12.646 5.483-1.626 2.188 10.913-3.908 11.67 2.158 0 0-7.172-2.076-10.64 2.822 0 0 3.507-2.92 7.079-1.96 3.57.961 11.853 7.606 4.829 10.75 0 0-2.689-.324-1.565-2.744 0 0-1.254-.97-1.761 1.422-.508 2.392-2.435 4.637 6.858 11.742 1.546 1.182-6.8-2.616-8.749-4.895 0 0 4.463 7.793 9.222 8.467 0 0-10.678 1.718-10.75 3.956 0 0 3.344-2.1 8.198-1.759 4.853.338 12.349 3.392 10.149 8.46l24.943-85.963zM128.18 261.432c12.702-.109 18.65-2.041 18.972-2.85.322-.806 3.536-.162 3.857 2.259.322 2.419 4.987-1.237 6.11-3.657 1.124-2.42-.589-4.157-1.662-4.445-1.071-.287 7.932 2.437 8.147 4.875 0 0-.215-4.446-7.074-5.952 0 0 7.287.433 10.717.218 3.429-.218-9.004-.645-11.79-1.218-2.786-.575 11.79-.933 12.647-1.935 0 0-9.43 1.002-12.647 1.072-3.213.073 10.29-3.154 10.077-4.299 0 0-3.002 1.218-6.432 1.29-3.431.07 1.287-3.154 10.074-3.8 8.789-.645 4.5-1.219 4.5-1.219l-9.43.214s6.216-4.73 17.362-3.872c0 0-3.214-1.143-9.432-.355 0 0 9.005-3.515 8.146-4.661 0 0-3 1.578-7.073 1.861-4.073.29 7.714-7.31-1.501-11.612 0 0 1.072 4.088-1.93 5.448 0 0-1.499.934-1.499-1.79 0-2.723-4.289-7.099 1.073-8.46 0 0-4.503.573-5.362 1.361-.854.79 4.93-6.665 1.29-7.74 0 0-1.931 3.87-4.931 4.732-3.003.86-9.22-9.283-3.109-13.64 0 0 2.732-4.3 11.896-3.868 9.164.426.482 1.182-.32 1.558-.804.374 6.428.483 7.072-2.582.642-3.064-4.502-3.655-5.949-3.71-1.447-.054 7.075-.862 11.577 3.657 0 0 1.285-5.646-18.007-5.271 0 0 9.004-6.234.804-8.387 0 0 3.054 4.034-6.27 6.398 0 0 1.608-6.452-2.087-8.173 0 0 7.071-5.054 18.485-4.407 0 0-5.305-1.613-18.485 1.56 0 0 .802-4.571 6.589-5.7 0 0-4.502-.322-12.218 3.064 0 0-1.446 1.293-1.768-.968-.32-2.258-8.682-7.042-15.755-6.828 0 0 11.093 2.259 11.737 4.894 0 0-5.95-2.474-9.486-2.474 0 0 11.09 3.71-.804 5.968l-6.11 83.444z"/><path fill="#C5C19D" stroke="#000" stroke-width="4.393" stroke-miterlimit="10" d="M106.841 143.856s41.531 1.523 45.715 48.709c4.188 47.185 16.363 47.566 18.648 48.708 2.283 1.142-1.904 47.946-23.973 49.847 0 0-8.752 79.15-39.956 79.15h-.067c-31.206 0-39.955-79.15-39.955-79.15-22.07-1.901-26.259-48.705-23.975-49.847s14.462-1.523 18.644-48.708c4.19-47.186 44.92-48.709 44.92-48.709z"/><path fill="#727A35" stroke="#000" stroke-width="2.636" stroke-miterlimit="10" d="M128.242 249.676c-5.553 0-9.646-2.174-11.521-6.117-1.29-2.71-1.426-6.004-.38-9.039 2.061-5.974 7.505-10.147 13.243-10.147.552 0 1.105.04 1.643.12 4.678.69 10.882 3.673 13.462 8.584 1.242 2.355 1.453 5.318.56 7.912-1.998 5.825-8.771 7.839-14.103 8.502-.993.123-1.967.185-2.904.185z"/><path d="M128.242 249.336c-5.553 0-9.646-2.229-11.521-6.274-1.29-2.778-1.426-6.158-.38-9.273 2.061-6.127 7.505-10.409 13.243-10.409.552 0 1.105.044 1.643.123 4.678.71 10.882 3.768 13.462 8.806 1.242 2.42 1.453 5.454.56 8.119-1.998 5.972-8.771 8.036-14.103 8.718-.993.125-1.967.19-2.904.19z"/><path fill="#E31B23" d="M119.746 232.654c-1.46 4.345 3.115 7.283 10.207 6.38 7.09-.901 11.655-4.061 10.211-6.872-1.44-2.817-6.016-5.526-10.198-6.16-4.188-.627-8.757 2.302-10.22 6.652z"/><ellipse cx="127.282" cy="230.244" rx="3.22" ry="4.435"/><path d="M119.788 232.667c-.364 1.052-.355 2.25.182 3.212.537.957 1.454 1.625 2.445 2.044 2.013.82 4.244.952 6.434.853 2.202-.127 4.434-.428 6.53-1.19a11.302 11.302 0 0 0 2.951-1.512c.88-.63 1.688-1.512 1.83-2.528.148-1.016-.654-1.9-1.352-2.688-.753-.777-1.635-1.434-2.56-2.013a17.879 17.879 0 0 0-6.081-2.334c-2.09-.406-4.29.114-6.179 1.196-1.886 1.081-3.489 2.83-4.2 4.96zm-.084-.026c.72-2.13 2.095-4.064 3.97-5.42 1.854-1.358 4.304-2.056 6.652-1.634 2.287.395 4.44 1.31 6.365 2.561.962.628 1.862 1.366 2.631 2.24.382.44.73.908 1.002 1.442.286.51.446 1.188.312 1.793-.261 1.243-1.223 2.047-2.126 2.702-.943.646-1.976 1.123-3.023 1.546-2.112.796-4.32 1.384-6.584 1.634-2.256.214-4.665.03-6.731-1.087-1.015-.552-1.937-1.371-2.408-2.438-.468-1.066-.433-2.28-.06-3.339z"/><ellipse fill="#C5C19D" cx="127.205" cy="230.138" rx=".384" ry="1.429"/><path fill="#727A35" stroke="#000" stroke-width="2.636" stroke-miterlimit="10" d="M86.868 249.676c-.98 0-1.997-.062-3.034-.185-5.576-.663-12.664-2.677-14.755-8.502-.93-2.594-.71-5.557.588-7.916 2.7-4.907 9.188-7.89 14.073-8.58a12.44 12.44 0 0 1 1.723-.12c6.003 0 11.7 4.173 13.852 10.15 1.094 3.032.952 6.325-.397 9.036-1.961 3.943-6.241 6.117-12.05 6.117z"/><path d="M86.868 249.336c-.98 0-1.997-.065-3.034-.19-5.576-.682-12.664-2.746-14.755-8.718-.93-2.665-.71-5.698.588-8.121 2.7-5.036 9.188-8.094 14.073-8.802a12.298 12.298 0 0 1 1.723-.125c6.003 0 11.7 4.282 13.852 10.412 1.094 3.112.952 6.492-.397 9.27-1.961 4.045-6.241 6.274-12.05 6.274z"/><path fill="#E31B23" d="M94.95 232.654c1.529 4.345-3.257 7.283-10.674 6.38-7.415-.901-12.188-4.061-10.679-6.872 1.507-2.817 6.292-5.526 10.67-6.16 4.375-.627 9.154 2.302 10.683 6.652z"/><ellipse cx="88.189" cy="230.244" rx="3.367" ry="4.435"/><path d="M94.992 232.64c.398 1.084.43 2.355-.114 3.427-.532 1.08-1.523 1.871-2.582 2.405-2.158 1.083-4.623 1.231-6.946 1.03-2.331-.246-4.61-.829-6.8-1.61-1.086-.418-2.161-.884-3.15-1.52-.945-.651-1.973-1.434-2.277-2.711-.158-.623.022-1.33.328-1.847a7.348 7.348 0 0 1 1.07-1.46c.816-.876 1.76-1.612 2.767-2.235 2.011-1.243 4.243-2.141 6.597-2.514 2.403-.435 4.92.228 6.87 1.568a11.134 11.134 0 0 1 4.237 5.468zm-.083.028c-.765-2.189-2.48-3.939-4.454-5.001-1.981-1.063-4.25-1.556-6.422-1.168a19.753 19.753 0 0 0-6.318 2.327c-.968.576-1.894 1.231-2.692 2.012-.736.792-1.603 1.691-1.427 2.736.176 1.04 1.052 1.917 1.976 2.54.94.642 1.99 1.134 3.08 1.492 2.175.749 4.477 1.04 6.75 1.17 2.264.115 4.561-.033 6.667-.806 1.036-.404 2.016-1.048 2.608-2.013.607-.963.62-2.213.232-3.289z"/><ellipse fill="#C5C19D" cx="88.03" cy="230.138" rx=".4" ry="1.429"/><path fill="#C5C19D" d="M142.622 204.74c-7.139 18.309-23.1 32.132-35.674 32.045-12.576.087-28.539-13.736-35.677-32.044"/><path d="M142.704 204.773c-1.238 4.036-3.04 7.915-5.28 11.526-2.241 3.607-4.89 6.989-7.991 9.913-3.12 2.906-6.633 5.36-10.368 7.354-3.726 1.969-7.776 3.551-12.123 3.7-4.331.18-8.61-1.208-12.376-3.226-3.79-2.03-7.228-4.661-10.25-7.682-6-6.08-10.573-13.539-13.127-21.586l.164-.063c3.581 7.598 8.355 14.546 14.28 20.317 2.951 2.883 6.164 5.522 9.732 7.567 3.562 2.014 7.467 3.55 11.587 3.71 4.103.17 8.237-1.172 11.838-3.236 3.624-2.081 6.76-4.897 9.614-7.894 5.786-5.952 10.505-12.88 14.136-20.465l.164.065z"/><path fill="#C5C19D" d="M95.972 250.045c2.35-11.355 7.598-19.92 11.737-19.866 4.133-.054 9.388 8.511 11.734 19.866"/><path d="M95.921 250.035c.48-4.016 1.578-7.993 3.399-11.644a30.006 30.006 0 0 1 3.373-5.086c.65-.782 1.332-1.546 2.142-2.184.811-.612 1.751-1.197 2.876-1.227 1.104-.051 2.163.43 3.008 1.044.863.617 1.6 1.366 2.255 2.167 1.31 1.606 2.365 3.383 3.232 5.233 1.7 3.72 2.788 7.682 3.288 11.697l-.101.021c-1.146-3.87-2.445-7.667-4.19-11.24-.867-1.784-1.812-3.537-2.998-5.101-.599-.773-1.242-1.513-1.985-2.119-.745-.59-1.577-1.096-2.516-1.132-.916-.045-1.868.359-2.647.95-.795.583-1.494 1.308-2.099 2.101-1.207 1.596-2.066 3.422-2.854 5.248-1.625 3.642-2.915 7.425-4.081 11.293l-.102-.021zM100.022 224.358c-.995-1.806-1.729-3.748-2.278-5.743-.515-2-.885-4.071-.805-6.164.082-2.089.588-4.165 1.539-6.013a11.619 11.619 0 0 1 1.798-2.534c.746-.718 1.358-1.505 1.914-2.353 2.155-3.434 3.04-7.486 3.272-11.497.12-2.012.096-4.043-.14-6.054-.243-2.002-.6-4.027-1.477-5.872l.075-.045c1.15 1.735 1.696 3.793 2.081 5.818.353 2.044.494 4.126.397 6.203a25.747 25.747 0 0 1-1.054 6.142c-.598 1.994-1.502 3.916-2.759 5.58-.611.834-1.356 1.596-2.088 2.294-.713.711-1.323 1.536-1.748 2.454-.904 1.822-1.116 3.89-1.08 5.884.064 4.024 1.066 8.013 2.432 11.862l-.079.038zM114.804 224.32c1.585-3.752 2.635-7.805 2.574-11.864-.046-2.018-.424-4.048-1.346-5.822a9.604 9.604 0 0 0-1.747-2.4 15.712 15.712 0 0 1-2.06-2.346c-2.426-3.443-3.512-7.654-3.692-11.785-.064-2.076.043-4.156.404-6.197.381-2.025.913-4.08 2.045-5.823l.077.045c-.457.912-.766 1.884-.996 2.872-.239.985-.407 1.988-.518 2.995a32.405 32.405 0 0 0-.135 6.06c.287 4.001 1.149 8.08 3.39 11.432.574.84 1.195 1.57 1.942 2.303.73.764 1.341 1.64 1.8 2.587.933 1.895 1.272 4.01 1.274 6.075-.057 4.152-1.235 8.183-2.932 11.906l-.08-.038z"/><path fill="#C5C19D" d="M98.384 249.4c1.885-4.452 6.1-7.814 9.418-7.793 3.321-.021 7.535 3.34 9.417 7.794"/><path d="M98.344 249.383c.57-2.09 1.821-4.02 3.504-5.43.862-.686 1.83-1.218 2.814-1.671.98-.458 2.015-.837 3.142-.916 1.12-.084 2.255.2 3.258.672 1.012.47 1.947 1.09 2.763 1.837 1.613 1.506 2.848 3.42 3.434 5.509l-.08.034c-1.094-1.847-2.41-3.491-3.979-4.845-1.538-1.351-3.345-2.528-5.4-2.725-1.02-.078-2.084.196-3.012.69-.932.5-1.721 1.221-2.452 1.96a24.15 24.15 0 0 0-3.912 4.92l-.08-.035zM112.984 196.757c1.456 1.206 3.114 2 4.818 2.702.845.37 1.721.729 2.641.925.92.199 1.866.239 2.803.201 1.876-.092 3.723-.3 5.566-.599 1.848-.257 3.688-.605 5.575-.894l.025.084c-1.726.823-3.566 1.384-5.451 1.736-1.89.302-3.831.398-5.734.154-.953-.117-1.891-.266-2.833-.402-.943-.135-1.904-.248-2.84-.516a9.463 9.463 0 0 1-2.61-1.27c-.798-.554-1.533-1.227-2.03-2.067l.07-.054zM95.823 263.195c-2.358.937-4.34 2.482-6.181 4.152-.934.827-1.849 1.708-2.616 2.714-.764 1.006-1.387 2.116-1.916 3.261-1.04 2.302-1.893 4.664-2.614 7.074-.76 2.399-1.385 4.842-2.048 7.308l-.087-.014c.113-2.554.547-5.09 1.237-7.562.738-2.455 1.734-4.852 3.088-7.033a67.669 67.669 0 0 1 2.11-3.201c.72-1.053 1.454-2.118 2.334-3.07 1.79-1.838 4.1-3.342 6.677-3.715l.016.086z"/><path stroke="#000" stroke-width=".879" stroke-miterlimit="10" d="M134.025 335.669c-1.91 8.333-8.376 10.153-16.254 8.01-6.369-1.489-13.569-1.489-19.938 0-7.879 2.143-14.344.323-16.252-8.01-2.058-10.93-1.832-22.207.574-33.138 2.183-8.335 8.534-10.235 16.064-8.13 6.112 1.456 13.054 1.456 19.164 0 7.53-2.105 13.883-.205 16.068 8.13 2.406 10.93 2.633 22.208.574 33.138z"/><path stroke="#000" stroke-width="6.151" stroke-miterlimit="10" d="M94.673 306.533s-7.705 47.564 15.984 99.223c23.687 51.656 22.545 60.792.57 87.05 0 0 43.95-11.134 16.267-90.762-14.312-41.165-6.373-86.948-5.232-95.51H94.673z"/><g fill="#C5C19D" stroke="#000" stroke-width="1.757" stroke-miterlimit="10"><path d="M125.063 330.908c-1.657-2.098-2.317-1.658-2.317-1.658l-.83 1.438v1.438l-.331 1.434s-.33.885-.33 1.218c0 .332-.663 1.326-.663 2.324 0 .994-.168 1.105.166 2.208.332 1.106.994 2.431.994 2.431l1.988.333 1.323.11c.665-.11 1.99-1.105 1.99-1.105s.495-.44.662-1.879c.163-1.437-.331-2.651-.331-2.651s0 .553-.167-.886c-.164-1.438-.164-.332-.164-1.991l-1.99-2.764z"/><path d="M117.943 343.512c.661-.109 1.157.662 1.489-.442.33-1.105-.164.333.33-1.105.499-1.439 1.163-1.88.996-2.655-.166-.775-.497-.662-1.49-1.768-.994-1.104-.664-.556-.994-1.104-.33-.554-1.16-.225-1.16-.225l-.827.224-1.491.444s-.5-.557-1.326 1.215c-.827 1.767-1.49 2.102-1.158 2.876.33.77 1.82 2.098 1.82 2.098l2.816.333.995.109zM111.482 342.185l-.992 1.327-1.162.33s-2.482.775-2.648.222c-.165-.552-.165.332-.165-.994 0-1.329.165-2.431-.166-3.316-.33-.886-.496-1.439-.496-1.439l.827-1.658 1.16-.773.662-1.326c.167-.333 1.16.22 1.16.22l.662 1.77 2.152 1.434-.496 2.325-.498 1.878z"/><path d="M102.804 344.617s2.477-.513 2.477-1.144c0-.635.762-1.399.762-2.163 0-.766.19-2.29-.19-3.435-.381-1.145-.573-2.415-1.524-2.924-.953-.509-.57.38-.953-.509-.381-.89-1.143-1.655-1.143-1.655l-.383 2.8s-2.285-1.4-2.476.509a9.314 9.314 0 0 0 .381 3.56l-.19 3.56 1.143.888 2.096.513z"/><path d="M96.673 343.82s1.143-.253 1.525-1.018c.381-.761 1.142-1.907 1.142-2.925 0-1.017.381-1.27-.382-2.291-.76-1.015-4.001-3.305-4.001-3.305l-2.286 3.053s-.188.89-.38 2.035c-.192 1.143-.38 2.925-.38 2.925l2.285 1.651 2.477-.125zM89.29 342.518s1.822-.113 1.822-.664c0-.554.499-.662.499-1.108 0-.44.33-.88.165-2.65-.165-1.772.33-2.653.33-3.426 0-.774-.33-1.55-1.158-2.323-.828-.774-1.989-2.325-1.989-2.325l-1.49 1.992s-1.324 1.215-1.489 2.656c-.166 1.434 0 2.872 0 2.872s.165 1.768.33 2.321c.165.555.995 2.655 2.98 2.655z"/></g><path fill="#E31B23" d="M92.961 303.302s-5.993 50.795 17.696 102.454c23.687 51.656 22.545 60.792.57 87.05 0 0 43.95-11.134 16.267-90.762-14.312-41.165-5.137-89.04-3.995-97.6l-30.538-1.142z"/><path d="M107.232 316.808c-.178 7.957.071 15.88.562 23.776.528 7.893 1.325 15.76 2.532 23.564.57 3.907 1.264 7.794 2.049 11.664.752 3.876 1.669 7.717 2.621 11.552 1.955 7.658 4.331 15.212 7.078 22.688-3.75-7.03-6.709-14.492-9.057-22.131-1.203-3.815-2.177-7.695-3.082-11.59a188.704 188.704 0 0 1-2.213-11.788c-1.17-7.91-1.864-15.89-1.975-23.877-.107-7.978.218-15.985 1.485-23.858z"/><path fill="#C5C19D" d="M161.44 242.403s4.82-4.03 8.838-4.272c4.018-.238 13.074-6.884 15.118-6.696 2.046.189 4.607-4.82 6.275-4.543 1.684.278 6.934-4.285 8.666-3.244 1.73 1.045 2.643 1.797 2.643 1.797s1.85-.746-.897 2.268-6.223 8.326-8.249 11.156c-2.025 2.834-10.177 8.272-11.658 15.12-1.482 6.848-6.127 7.738-6.73 9.296-.604 1.56 2.634 4.965-.013 5.28-2.646.317-2.313 2.484-2.313 2.484s-2.466 6.53-9.903 8.617c-7.437 2.087-3.888 6.751-3.336 7.598.554.845-2.549 12.253-7.785 8.366-5.238-3.888.696-46.966 9.344-53.227z"/><path d="M164.226 263.16c-1.992 8.874-8.113 14.5-8.113 14.5s11.404-.977 14.956-8.84c3.552-7.86 3.002-9.762 5.242-10.749 0 0-14.107 18.655-12.085 5.09z"/><path d="M192.582 227.118a7.244 7.244 0 0 0-3.17 2.222c-.835.999-1.486 2.148-2.144 3.309-1.284 2.328-2.7 4.768-4.82 6.645a15.302 15.302 0 0 1-3.474 2.365l-.889.455-.826.473c-.545.344-1.087.692-1.603 1.078-2.07 1.536-3.86 3.45-5.378 5.59-1.503 2.153-2.728 4.523-3.714 6.998-.978 2.481-1.672 5.061-2.243 7.686-1.35 5.26-3.913 10.196-7.743 14.227l-.523-1.19c2-.264 4.035-.83 5.938-1.553 1.905-.74 3.712-1.726 5.218-3.026a11.802 11.802 0 0 0 1.98-2.177c.58-.814.971-1.62 1.399-2.63a99.227 99.227 0 0 0 2.316-5.836c.393-.992.644-2.012 1.378-3.106a3.752 3.752 0 0 1 1.553-1.268c.283-.127.469-.2.685-.315.213-.109.424-.228.63-.356 1.653-1.032 2.972-2.621 3.71-4.463.192-.458.348-.933.47-1.42.103-.44.228-1.087.48-1.616.487-1.076 1.298-1.923 2.166-2.591.876-.674 1.835-1.172 2.775-1.664.924-.506 1.924-.92 2.637-1.657l.14.106c-.667.895-1.644 1.414-2.512 2.005-.887.576-1.754 1.168-2.511 1.848-.757.676-1.39 1.466-1.715 2.358-.17.447-.216.855-.31 1.453-.095.55-.232 1.095-.41 1.629a10.75 10.75 0 0 1-4.048 5.334 10.24 10.24 0 0 1-.732.46c-.246.144-.546.283-.741.382a2.019 2.019 0 0 0-.845.752c-.428.69-.753 1.744-1.096 2.73-.673 2.017-1.428 4.036-2.305 5.995-.4.937-.925 2.056-1.606 2.952a13.595 13.595 0 0 1-2.343 2.455c-1.743 1.428-3.742 2.442-5.796 3.184a25.99 25.99 0 0 1-6.388 1.404l-1.99.187 1.466-1.378a30.379 30.379 0 0 0 4.961-6.087c1.398-2.243 2.515-4.69 3.176-7.257.621-2.605 1.264-5.234 2.133-7.792.838-2.57 1.897-5.092 3.317-7.443 1.414-2.345 3.229-4.52 5.483-6.174.554-.424 1.14-.803 1.74-1.159.629-.364 1.23-.665 1.839-.956a15.583 15.583 0 0 0 3.216-2.067c1.981-1.638 3.436-3.838 4.902-6.092.743-1.12 1.523-2.264 2.53-3.226.987-.972 2.248-1.7 3.586-1.952l.051.17z"/><path d="M202.083 227.713c2.747-3.014.897-2.265.897-2.265s-.914-.755-2.643-1.8c-1.732-1.04-6.982 3.522-8.666 3.244l5.472-.99-1.983 2.723 3.222-1.113s2.477-1.365 2.103-.746c-.369.62-1.732.994-2.474 1.487-.745.497-2.109 1.738-.992 1.614 1.113-.125 5.064-2.154 5.064-2.154z"/><path fill="none" stroke="#000" stroke-width="2.636" stroke-miterlimit="10" d="M161.44 242.403s4.82-4.03 8.838-4.272c4.018-.238 13.074-6.884 15.118-6.696 2.046.189 4.607-4.82 6.275-4.543 1.684.278 6.934-4.285 8.666-3.244 1.73 1.045 2.643 1.797 2.643 1.797s1.85-.746-.897 2.268-6.223 8.326-8.249 11.156c-2.025 2.834-10.177 8.272-11.658 15.12-1.482 6.848-6.127 7.738-6.73 9.296-.604 1.56 2.634 4.965-.013 5.28-2.646.317-2.313 2.484-2.313 2.484s-2.466 6.53-9.903 8.617c-7.437 2.087-3.888 6.751-3.336 7.598.554.845-2.549 12.253-7.785 8.366-5.238-3.888.696-46.966 9.344-53.227z"/><g><path d="M120.367 263.11c2.576.372 4.887 1.876 6.677 3.714.88.952 1.613 2.016 2.335 3.069a68.092 68.092 0 0 1 2.11 3.202c1.355 2.18 2.35 4.578 3.09 7.032.689 2.472 1.123 5.009 1.235 7.563l-.085.014c-.665-2.466-1.29-4.91-2.05-7.308-.721-2.41-1.574-4.772-2.614-7.075-.529-1.145-1.153-2.254-1.917-3.261-.767-1.005-1.682-1.886-2.616-2.713-1.84-1.671-3.823-3.215-6.182-4.152l.017-.086z"/></g><g><path d="M106.845 249.183c-2.005.527-3.503 1.878-4.618 3.427-1.132 1.573-1.847 3.412-2.63 5.272-.77 1.869-1.453 3.868-1.661 5.934-.25 2.063-.096 4.156.129 6.218l.039.36-.446.3c-1.491 1.005-3.006 2.074-4.317 3.269-1.302 1.197-2.46 2.543-3.08 3.96a4.361 4.361 0 0 0-.361 2.162c.081.727.37 1.478.831 2.184.92 1.423 2.337 2.67 3.804 3.857l-.104.193c-1.806-.613-3.59-1.489-5.022-3.013-.698-.765-1.305-1.729-1.551-2.856-.274-1.122-.125-2.328.254-3.361.783-2.097 2.305-3.56 3.842-4.777 1.572-1.208 3.221-2.203 5.06-2.924l-.406.659c.197-2.114.485-4.204.662-6.299.218-2.089.25-4.227.678-6.363a12.51 12.51 0 0 1 2.932-5.874c1.485-1.65 3.74-2.924 5.974-2.548l-.01.22zM108.969 248.963c2.233-.376 4.488.897 5.973 2.547a12.502 12.502 0 0 1 2.933 5.875c.429 2.136.46 4.274.679 6.362.176 2.096.465 4.186.662 6.3l-.406-.66c1.838.722 3.488 1.717 5.06 2.925 1.537 1.215 3.06 2.68 3.843 4.777.38 1.033.528 2.24.255 3.361-.247 1.128-.855 2.092-1.553 2.856-1.433 1.524-3.216 2.4-5.021 3.013l-.106-.193c1.468-1.187 2.885-2.433 3.806-3.857.46-.706.75-1.456.832-2.184a4.372 4.372 0 0 0-.36-2.162c-.622-1.417-1.78-2.763-3.083-3.96-1.311-1.195-2.826-2.264-4.317-3.269l-.446-.3.039-.36c.224-2.062.379-4.155.129-6.219-.208-2.065-.89-4.064-1.661-5.933-.785-1.86-1.5-3.7-2.631-5.272-1.116-1.549-2.614-2.9-4.618-3.427l-.01-.22z"/><path d="M92.333 280.397c1.044-.908 2.61-1.101 3.987-.763 1.4.33 2.612 1.138 3.6 2.07 1.016.92 1.786 2.038 2.365 3.223.583 1.186 1 2.425 1.485 3.61l-.023-.042c.51.883 1.36 1.668 2.303 2.019.96.372 1.951.14 2.684-.444.745-.585 1.349-1.396 1.893-2.263.557-.9 1.09-1.867 1.625-2.82a38.074 38.074 0 0 1 1.71-2.875c.636-.946 1.318-1.894 2.303-2.747.494-.414 1.123-.805 1.887-.948.774-.146 1.548.096 2.099.435 1.102.724 1.743 1.698 2.286 2.698l-.168.14c-.884-.676-1.788-1.376-2.684-1.647-.903-.275-1.43.055-2.062.756-1.208 1.455-2.168 3.537-3.422 5.365a47.278 47.278 0 0 1-1.95 2.786c-.732.93-1.626 1.831-2.817 2.356-1.172.566-2.638.499-3.697-.084-1.083-.57-1.886-1.386-2.637-2.313l-.023-.042c-.609-1.102-1.387-2.107-2.17-3.057-.792-.947-1.555-1.868-2.344-2.732-.812-.845-1.697-1.576-2.709-2.07-1.004-.479-2.187-.704-3.407-.423l-.114-.188z"/></g><g><path fill="#C5C19D" d="M14.245 226.387s.202-7.46 3.87-4.28c3.673 3.183 8.094 7.32 11.365 7.909 3.268.592 20.572 11.129 22.662 14.816 2.087 3.688 10.441 43.005 9.177 48.321-1.265 5.32-5.224 4.777-10.497-1.722 0 0 1.016-9.128-3.33-12.064l-4.346-2.936s-6.518-4.402-8.124-14.769c-1.604-10.365-10.29-19.655-12.87-20.29-2.58-.638-2.87-5.05-1.3-5.755 0 0-9.143-1.619-8.365-7.904.15-1.22 1.758-1.326 1.758-1.326z"/><path d="M20.282 234.67s-8.573-.672-7.795-6.957c.15-1.217 1.758-1.323 1.758-1.323s.202-7.463 3.87-4.282c0 0-1.251.964-1.227 1.46.023.495 1.42 3.78 1.42 3.78l-2.176-1.388s.105 2.226.624 2.7c.516.471-1.6.323-1.6.323l.294 1.658 4.832 4.03zM47.504 258.784c3.044 5.146 3.71 9.122 3.863 12.88 0 0 3.463 7.018 4.881 7.532 1.417.508-15.486-7.437-16.868-14.397 0 0 10.782 9.85 9.001 4.97-1.297-3.56-.877-10.985-.877-10.985z"/><path d="M17.491 222.672c3.734 3.474 7.48 6.93 11.286 10.297 1.913 1.67 3.835 3.333 5.83 4.864.5.38 1.005.751 1.517 1.1.25.176.51.327.82.574.298.242.536.472.777.718.931.98 1.714 2.015 2.46 3.077 2.934 4.268 5.113 8.937 7.088 13.657.985 2.362 1.918 4.744 2.743 7.169.79 2.434 1.555 4.896 1.775 7.518l-.043-.168c1.174 2.155 2.425 4.347 3.889 6.224.182.228.372.446.559.623.091.087.187.162.25.198.04.023.037.018.052.022l.014.005c.017.006.004-.001-.047-.014a.496.496 0 0 0-.113-.014c.437-.756-1.032 1-.54 1.153a.56.56 0 0 0 .102.094l-.007-.004-.071-.04-1.643-.857a70.578 70.578 0 0 1-3.286-1.822c-2.16-1.276-4.277-2.644-6.286-4.2-1.994-1.564-3.934-3.298-5.317-5.664-.326-.603-.61-1.25-.771-1.965-.142-.67-.246-1.215-.4-1.799-.29-1.167-.677-2.313-1.092-3.451-.84-2.276-1.93-4.472-3.181-6.575-2.487-4.224-5.607-8.089-9.092-11.628l.117-.131c3.89 3.116 7.354 6.822 10.15 11.023 1.382 2.11 2.61 4.333 3.596 6.68.501 1.17.91 2.384 1.252 3.62.176.614.32 1.287.446 1.83.12.498.352.995.62 1.48 1.116 1.959 2.949 3.623 4.798 5.168 1.883 1.536 3.914 2.923 6 4.227 1.046.648 2.099 1.286 3.165 1.91l1.623.94.128.08.042.028c.04.026.106.082.149.13.497.16-.979 1.929-.553 1.165a.783.783 0 0 1-.142-.02l-.075-.02-.014-.005a1.567 1.567 0 0 1-.365-.182 2.85 2.85 0 0 1-.466-.394 7.451 7.451 0 0 1-.651-.792c-1.464-2.146-2.51-4.387-3.595-6.65l-.041-.087-.002-.082c-.046-2.482-.667-4.982-1.449-7.383-.784-2.412-1.78-4.757-2.896-7.037-2.27-4.543-4.907-8.905-7.718-13.06-.712-1.027-1.446-2.05-2.26-2.93-.432-.47-.752-.723-1.35-1.127a37.17 37.17 0 0 1-1.547-1.186c-2.01-1.623-3.9-3.35-5.747-5.12-3.695-3.536-7.218-7.233-10.614-11.045l.126-.122z"/><path fill="none" stroke="#000" stroke-width="2.636" stroke-miterlimit="10" d="M14.245 226.387s.202-7.46 3.87-4.28c3.673 3.183 8.094 7.32 11.365 7.909 3.268.592 20.572 11.129 22.662 14.816 2.087 3.688 10.441 43.005 9.177 48.321-1.265 5.32-5.224 4.777-10.497-1.722 0 0 1.016-9.128-3.33-12.064l-4.346-2.936s-6.518-4.402-8.124-14.769c-1.604-10.365-10.29-19.655-12.87-20.29-2.58-.638-2.87-5.05-1.3-5.755 0 0-9.143-1.619-8.365-7.904.15-1.22 1.758-1.326 1.758-1.326z"/></g><path d="M59.75 279.918l1.318 12.741 1.758.222 4.172-1.538zM66.627 199.489l1.438-12.73-2.164-3.712-3.912 3.732zM149.104 197.917l1.15-17.862-3.44-1.065-8.643 4.714zM146.08 289.805l5.05-5.932s.88 3.296.88 4.614-1.537 5.71-2.197 5.71c-.66 0-3.733-4.392-3.733-4.392z"/><g><path fill="#C5C19D" d="M155.7 239.624c4.926 10.102 6.322 19.825 3.208 28.472-3.014 8.038-12.36 23.26-21.596 34.118"/><path d="M155.755 239.63a47.138 47.138 0 0 1 3.702 8.386c.816 2.537 1.321 4.858 1.484 7.064.141 2.204-.045 4.31-.319 6.461-.28 2.15-.657 4.328-1.353 6.61-.673 2.276-1.73 4.654-3.065 7.195a120.502 120.502 0 0 1-4.716 8.169 178.307 178.307 0 0 1-6.252 9.21c-2.343 3.188-4.96 6.565-7.894 9.542a3.125 3.125 0 0 1-.06-.112c2.702-3.301 5.053-6.678 7.194-9.878 2.149-3.2 4.048-6.265 5.806-9.123 3.516-5.73 6.407-10.652 8.263-15.112.912-2.24 1.46-4.4 1.636-6.57.172-2.17-.036-4.364-.365-6.634-.313-2.264-.714-4.581-1.366-7.073-.64-2.492-1.52-5.15-2.807-8.147.038.002.077.007.112.011z"/></g><g><path fill="#C5C19D" d="M56.977 240.295c-5.289 10.463-5.89 20.29-2.5 28.758 3.395 7.86 12.152 22.535 20.202 32.897"/><path d="M57.041 240.286c-1.361 3.089-2.238 5.808-2.84 8.344-.616 2.54-.95 4.887-1.18 7.174-.248 2.292-.361 4.505-.09 6.667.271 2.16.915 4.288 1.889 6.473 1.976 4.352 4.85 9.1 8.15 14.636 1.651 2.757 3.396 5.719 5.337 8.81 1.93 3.084 4.017 6.34 6.4 9.504a4.13 4.13 0 0 1-.06.115c-2.606-2.826-4.931-6.072-7.049-9.137a237.411 237.411 0 0 1-5.755-8.866 160.47 160.47 0 0 1-4.554-7.899c-1.33-2.462-2.434-4.776-3.18-7.013-.767-2.237-1.241-4.395-1.626-6.528-.377-2.135-.678-4.235-.639-6.449.062-2.22.485-4.575 1.269-7.167a41.981 41.981 0 0 1 3.8-8.644c.043-.006.086-.015.129-.02z"/></g><g fill="#C5C19D"><path d="M87.913 319.643c1.673 3.178 2.343 2.511 2.343 2.511l.835-2.178v-2.173l.335-2.177s.335-1.337.335-1.84c0-.5.669-2.01.669-3.512 0-1.508.167-1.676-.167-3.346-.334-1.674-1.004-3.682-1.004-3.682l-2.008-.5-1.338-.17c-.668.17-2.008 1.672-2.008 1.672s-.502.67-.67 2.844c-.166 2.176.336 4.017.336 4.017s0-.838.168 1.338c.166 2.172.166.504.166 3.012l2.008 4.184z"/><path d="M95.108 300.567c-.67.17-1.172-1-1.506.671-.335 1.672.167-.504-.335 1.672-.501 2.174-1.17 2.844-1.004 4.018.167 1.17.503 1.003 1.506 2.676s.67.838 1.003 1.672c.336.835 1.17.336 1.17.336l.839-.336 1.505-.668s.503.837 1.339-1.842c.835-2.677 1.506-3.18 1.17-4.349-.335-1.17-1.839-3.179-1.839-3.179l-2.846-.502-1.002-.169zM101.632 302.576l1.005-2.009 1.17-.5s2.509-1.17 2.677-.334c.168.834.168-.504.168 1.505 0 2.008-.168 3.68.166 5.019.336 1.339.503 2.176.503 2.176l-.837 2.508-1.17 1.17-.67 2.01c-.168.498-1.172-.336-1.172-.336l-.67-2.676-2.174-2.176.503-3.511.501-2.846z"/><path d="M110.4 298.896s-2.503.771-2.503 1.733-.77 2.116-.77 3.273c0 1.156-.191 3.464.194 5.196.385 1.731.576 3.656 1.541 4.428.96.77.576-.579.96.77.386 1.348 2.207 3.405 2.207 3.405l.432-3.271s1.212.248 1.403-2.639c.195-2.885-.384-5.388-.384-5.388l.193-5.392-1.155-1.344-2.118-.77z"/><path d="M116.594 300.103s-1.156.381-1.541 1.538c-.384 1.155-1.154 2.887-1.154 4.427 0 1.538-.383 1.927.386 3.465.768 1.541 4.041 5.005 4.041 5.005l2.31-4.62s.192-1.347.385-3.082c.19-1.73.385-4.425.385-4.425l-2.31-2.5-2.502.192zM124.052 302.073s-1.841.168-1.841 1.006c0 .835-.504 1.002-.504 1.673 0 .668-.334 1.337-.165 4.014.165 2.68-.335 4.016-.335 5.187s.333 2.344 1.17 3.514c.838 1.17 2.009 3.512 2.009 3.512l1.505-3.012s1.338-1.838 1.507-4.014c.165-2.177 0-4.35 0-4.35s-.166-2.675-.335-3.514c-.167-.837-1.002-4.016-3.011-4.016z"/></g><g fill="none" stroke="#000" stroke-width="1.757" stroke-miterlimit="10"><path d="M87.913 319.643c1.673 3.178 2.343 2.511 2.343 2.511l.835-2.178v-2.173l.335-2.177s.335-1.337.335-1.84c0-.5.669-2.01.669-3.512 0-1.508.167-1.676-.167-3.346-.334-1.674-1.004-3.682-1.004-3.682l-2.008-.5-1.338-.17c-.668.17-2.008 1.672-2.008 1.672s-.502.67-.67 2.844c-.166 2.176.336 4.017.336 4.017s0-.838.168 1.338c.166 2.172.166.504.166 3.012l2.008 4.184z"/><path d="M95.108 300.567c-.67.17-1.172-1-1.506.671-.335 1.672.167-.504-.335 1.672-.501 2.174-1.17 2.844-1.004 4.018.167 1.17.503 1.003 1.506 2.676s.67.838 1.003 1.672c.336.835 1.17.336 1.17.336l.839-.336 1.505-.668s.503.837 1.339-1.842c.835-2.677 1.506-3.18 1.17-4.349-.335-1.17-1.839-3.179-1.839-3.179l-2.846-.502-1.002-.169zM101.632 302.576l1.005-2.009 1.17-.5s2.509-1.17 2.677-.334c.168.834.168-.504.168 1.505 0 2.008-.168 3.68.166 5.019.336 1.339.503 2.176.503 2.176l-.837 2.508-1.17 1.17-.67 2.01c-.168.498-1.172-.336-1.172-.336l-.67-2.676-2.174-2.176.503-3.511.501-2.846z"/><path d="M110.4 298.896s-2.503.771-2.503 1.733-.77 2.116-.77 3.273c0 1.156-.191 3.464.194 5.196.385 1.731.576 3.656 1.541 4.428.96.77.576-.579.96.77.386 1.348 2.207 3.405 2.207 3.405l.432-3.271s1.212.248 1.403-2.639c.195-2.885-.384-5.388-.384-5.388l.193-5.392-1.155-1.344-2.118-.77z"/><path d="M116.594 300.103s-1.156.381-1.541 1.538c-.384 1.155-1.154 2.887-1.154 4.427 0 1.538-.383 1.927.386 3.465.768 1.541 4.041 5.005 4.041 5.005l2.31-4.62s.192-1.347.385-3.082c.19-1.73.385-4.425.385-4.425l-2.31-2.5-2.502.192zM124.052 302.073s-1.841.168-1.841 1.006c0 .835-.504 1.002-.504 1.673 0 .668-.334 1.337-.165 4.014.165 2.68-.335 4.016-.335 5.187s.333 2.344 1.17 3.514c.838 1.17 2.009 3.512 2.009 3.512l1.505-3.012s1.338-1.838 1.507-4.014c.165-2.177 0-4.35 0-4.35s-.166-2.675-.335-3.514c-.167-.837-1.002-4.016-3.011-4.016z"/></g><g><path fill="#67652F" d="M70.513 195.937s-5.273-7.69-4.833-11.205c0 0-12.96-10.105-11.642-16.696 0 0-10.982-10.543-8.128-14.937 0 0-8.128-7.467-8.566-13.839 0 0-7.25-8.128-6.59-14.718 0 0-8.567-12.521-6.15-16.693 0 0-4.175-6.81-4.175-14.06 0-7.248-4.174-14.059-2.417-17.573 0 0-1.536-7.908-1.097-10.983 0 0-1.539-12.741 1.537-15.816 0 0 2.196-33.389 10.762-41.958 0 0-1.756 28.119-.438 32.732s.438 8.347-.658 7.908c0 0 4.174 14.717 2.855 15.815 0 0 4.393 10.106 3.735 10.985 0 0 4.831 13.838 3.294 14.938 0 0 7.03 14.277 5.711 14.056-1.317-.22 6.592 11.862 6.15 14.28-.437 2.416 9.887 12.742 9.227 14.936-.657 2.197 12.96 13.182 10.984 14.278-1.977 1.099 12.523 13.4 10.764 13.84-1.757.44 13.18 14.06 11.644 15.595 0 0 10.324 9.008 8.785 17.356-1.537 8.346-30.754 1.759-30.754 1.759z"/><path fill="#C5C19D" d="M76.664 195.937s-5.272-7.69-4.832-11.205c0 0-12.961-10.105-11.643-16.696 0 0-10.984-10.543-8.127-14.937 0 0-8.128-7.467-8.568-13.839 0 0-7.248-8.128-6.592-14.718 0 0-8.566-12.521-6.15-16.693 0 0-4.173-6.81-4.173-14.06 0-7.248-4.174-14.059-2.415-17.573 0 0-1.539-7.908-1.1-10.983 0 0-1.537-12.741 1.54-15.816 0 0-2.93-23.067 4.61-41.958 0 0-1.756 28.119-.438 32.732s.438 8.347-.658 7.908c0 0 4.174 14.717 2.855 15.815 0 0 4.393 10.106 3.735 10.985 0 0 4.831 13.838 3.294 14.938 0 0 7.03 14.277 5.711 14.056-1.317-.22 6.592 11.862 6.15 14.28-.437 2.416 9.887 12.742 9.227 14.936-.657 2.197 12.96 13.182 10.984 14.278-1.977 1.099 12.523 13.4 10.764 13.84-1.757.44 13.18 14.06 11.644 15.595 0 0 10.324 9.008 8.785 17.356-1.537 8.346-24.603 1.759-24.603 1.759z"/><path d="M65.969 184.718c.666-2.608 2.184-5.01 4.228-6.804 1.048-.876 2.23-1.558 3.431-2.152a21.553 21.553 0 0 1 3.748-1.48c2.604-.761 5.409-.757 8.063-.265 2.659.526 5.196 1.514 7.519 2.84a.044.044 0 1 1-.035.08c-2.543-.813-5.07-1.576-7.652-1.999-2.568-.475-5.193-.6-7.788-.187-1.293.218-2.568.623-3.722 1.263-1.154.643-2.157 1.515-3.07 2.438a24.503 24.503 0 0 0-4.64 6.295.044.044 0 0 1-.057.023c-.02-.008-.029-.032-.025-.052zM54.292 169.414c.608-2.597 2.086-5.003 4.104-6.791 1.033-.874 2.204-1.553 3.393-2.144 1.186-.6 2.42-1.104 3.708-1.475 2.576-.767 5.349-.782 7.983-.336 2.64.485 5.168 1.42 7.496 2.686a.044.044 0 0 1-.035.08c-2.536-.748-5.052-1.458-7.616-1.841-2.55-.432-5.15-.54-7.72-.12-1.28.214-2.542.624-3.683 1.258-1.142.64-2.131 1.508-3.028 2.428a23.348 23.348 0 0 0-4.518 6.281.044.044 0 0 1-.057.025c-.02-.007-.03-.03-.027-.05zM46.163 154.846a12.213 12.213 0 0 1 3.33-6.53c.9-.871 1.947-1.56 3.018-2.16a17.577 17.577 0 0 1 3.376-1.487c2.37-.766 4.957-.745 7.38-.27 2.428.517 4.73 1.47 6.826 2.73a.045.045 0 1 1-.037.08c-2.323-.751-4.62-1.479-6.969-1.89-2.334-.456-4.725-.598-7.084-.183-1.173.216-2.327.627-3.346 1.266-1.019.644-1.871 1.508-2.63 2.414a23.152 23.152 0 0 0-3.78 6.051.044.044 0 0 1-.056.028c-.02-.007-.03-.03-.028-.05zM37.888 139.835a9.636 9.636 0 0 1 3.027-5.789c.849-.735 1.833-1.278 2.828-1.733a16.513 16.513 0 0 1 3.103-1.093c2.158-.533 4.445-.376 6.584.123a21.04 21.04 0 0 1 6.008 2.606c.021.012.027.04.014.06a.044.044 0 0 1-.051.019c-2.075-.66-4.11-1.327-6.185-1.773-2.063-.48-4.17-.745-6.29-.561-1.056.103-2.111.376-3.057.874-.945.503-1.742 1.233-2.445 2.004-1.44 1.513-2.594 3.294-3.45 5.282a.044.044 0 0 1-.057.028c-.019-.006-.03-.028-.03-.047zM31.15 125.634a9.59 9.59 0 0 1 2.146-5.587c.675-.774 1.491-1.4 2.327-1.953.835-.553 1.715-1.042 2.663-1.414 1.9-.757 4.038-.798 6.024-.443a16.894 16.894 0 0 1 5.571 2.225c.02.013.027.04.015.061a.045.045 0 0 1-.05.02c-1.918-.54-3.794-1.089-5.7-1.383-1.895-.337-3.823-.422-5.72-.02-.942.209-1.863.593-2.639 1.187-.778.591-1.381 1.373-1.911 2.166-1.101 1.564-1.956 3.293-2.64 5.156a.044.044 0 0 1-.054.03c-.019-.005-.032-.026-.032-.045zM24.78 110.036c.173-1.938 1.09-3.816 2.497-5.202.728-.675 1.58-1.184 2.433-1.634.854-.45 1.733-.854 2.662-1.16 1.858-.635 3.888-.661 5.808-.368 1.92.347 3.76 1.013 5.44 1.96a.045.045 0 0 1-.033.082c-1.875-.425-3.704-.87-5.551-1.115-1.84-.282-3.698-.378-5.55-.093-.922.147-1.835.445-2.634.942-.803.495-1.46 1.183-2.045 1.89-1.207 1.385-2.182 2.961-2.941 4.716a.044.044 0 0 1-.056.028c-.019-.006-.03-.028-.03-.046zM20.497 92.244c.053-1.742 1.276-3.389 2.862-4.148.808-.368 1.67-.516 2.505-.648a33.362 33.362 0 0 1 2.524-.315c1.705-.147 3.424.08 5.068.486a19.288 19.288 0 0 1 4.673 1.956c.02.013.028.04.016.061a.046.046 0 0 1-.048.021c-1.66-.34-3.258-.774-4.868-1.129-1.599-.398-3.202-.727-4.845-.914-.82-.084-1.661-.081-2.465.114-.805.191-1.547.576-2.209 1.01-1.35.82-2.464 1.976-3.126 3.52a.044.044 0 0 1-.056.03c-.018-.005-.03-.026-.031-.044zM17.972 77.96c.23-1.59 1.485-2.929 2.927-3.578.743-.308 1.527-.44 2.286-.578.76-.137 1.515-.284 2.287-.395 1.544-.235 3.123-.134 4.647.139 1.518.32 2.99.82 4.361 1.547.022.012.03.039.019.06a.046.046 0 0 1-.045.024c-1.537-.195-3.018-.485-4.502-.71-1.477-.266-2.952-.478-4.459-.58-.752-.043-1.517-.006-2.245.193s-1.399.565-2.015.951c-1.252.732-2.379 1.643-3.176 2.95l-.004.006a.044.044 0 0 1-.06.014.045.045 0 0 1-.021-.044zM17.166 66.099c.139-1.405 1.249-2.607 2.525-3.145.659-.255 1.35-.34 2.012-.445.664-.102 1.323-.224 1.996-.316 1.347-.2 2.723-.092 4.045.165 1.315.307 2.586.774 3.757 1.457.02.012.028.04.016.061a.045.045 0 0 1-.045.022c-1.343-.153-2.626-.41-3.91-.62a42.022 42.022 0 0 0-3.852-.604c-.65-.062-1.315-.05-1.95.114-.633.165-1.214.488-1.744.82-1.08.625-2.052 1.385-2.766 2.513l-.003.005a.044.044 0 0 1-.081-.027zM18.925 49.983c.015-.734.525-1.35 1.131-1.652.32-.14.68-.158.99-.25.313-.086.603-.23.906-.377.604-.31 1.282-.416 1.94-.42.658.047 1.308.212 1.89.589a.048.048 0 0 1 .015.066.047.047 0 0 1-.028.02c-.666.184-1.279.228-1.884.263-.607-.01-1.196-.005-1.828-.049-.313-.007-.631.03-.907.173-.279.138-.488.402-.701.602-.45.38-.901.663-1.443 1.07l-.006.004a.047.047 0 0 1-.066-.01.05.05 0 0 1-.01-.029z"/><path fill="none" stroke="#000" stroke-width="1.757" stroke-linecap="round" stroke-miterlimit="10" d="M70.513 195.937s-5.273-7.69-4.833-11.205c0 0-12.96-10.105-11.642-16.696 0 0-10.982-10.543-8.128-14.937 0 0-8.128-7.467-8.566-13.839 0 0-7.25-8.128-6.59-14.718 0 0-8.567-12.521-6.15-16.693 0 0-4.175-6.81-4.175-14.06 0-7.248-4.174-14.059-2.417-17.573 0 0-1.536-7.908-1.097-10.983 0 0-1.539-12.741 1.537-15.816 0 0 2.196-33.389 10.762-41.958 0 0-1.756 28.119-.438 32.732s.438 8.347-.658 7.908c0 0 4.174 14.717 2.855 15.815 0 0 4.393 10.106 3.735 10.985 0 0 4.831 13.838 3.294 14.938 0 0 7.03 14.277 5.711 14.056-1.317-.22 6.592 11.862 6.15 14.28-.437 2.416 9.887 12.742 9.227 14.936-.657 2.197 12.96 13.182 10.984 14.278-1.977 1.099 12.523 13.4 10.764 13.84-1.757.44 13.18 14.06 11.644 15.595 0 0 10.324 9.008 8.785 17.356-1.537 8.346-30.754 1.759-30.754 1.759z"/><g><path d="M95.042 179.97s-7.762-5.562-11.862-5.416c0 0 7.762 0 8.789 1.022 1.025 1.026 3.073 4.395 3.073 4.395zM72.93 158.882s6.81 2.638 10.653 7.14l-3.623-5.107s-4.064-2.197-7.03-2.033zM70.002 149.438s-4.395-3.879-7.47-4.32c0 0 2.637-.438 5.857 1.316 3.221 1.759 1.613 3.004 1.613 3.004zM59.018 134.792s-4.907-2.633-6.737-2.78c0 0 3.37-.735 6.152 1.17l.585 1.61zM50.086 120.715s-1.814-3.239-4.89-3.569c0 0 1.868-.768 4.284 1.208l.606 2.36zM38.553 102.538s4.118 1.373 4.943 3.075c0 0 .493-1.976-1.593-2.581-2.088-.603-3.35-.494-3.35-.494zM32.695 88.334s4.577 1.977 5.527 3.735c0 0 .99-2.417-1.244-3.296-2.234-.88-4.283-.439-4.283-.439zM34.451 76.436s-2.49-2.162-5.162-2.125c0 0 3.003-1.06 4.504.511 1.501 1.577.658 1.614.658 1.614zM30.828 65.344s-.879-1.832-3.515-2.09c0 0 1.94-.438 2.891 0 .953.441.624 2.09.624 2.09z"/></g></g><g><path d="M102.852 196.158c-1.405 2.014-3.532 3.474-5.814 4.35-1.16.414-2.364.653-3.553.882-1.19.236-2.383.44-3.593.587-2.422.304-4.901.144-7.292-.34a26.158 26.158 0 0 1-6.83-2.513l.032-.082c2.338.634 4.644 1.251 6.983 1.677a38.07 38.07 0 0 0 7.079.778c1.194.005 2.396-.102 3.56-.386 1.163-.29 2.268-.767 3.333-1.278 2.145-.985 4.208-2.15 6.027-3.73l.068.055z"/></g><g><path fill="#67652F" d="M110.86 189.27s4.979-15.963 7.76-17.283c2.783-1.316 7.322-12.74 12.889-14.642 0 0 5.418-9.812 9.81-12.01 4.393-2.195 8.054-10.91 9.921-12.448 1.867-1.54 7.031-12.412 8.897-13.512 1.867-1.096 5.163-13.178 6.482-13.507 1.316-.328 3.184-10.874 5.16-12.849 1.978-1.98 1.978-12.191 3.294-13.512 1.319-1.318 1.54-9.445 2.307-10.763.77-1.317 1.758-13.84 2.637-15.046.879-1.21.329-34.6-2.086-37.783 0 0 8.786 8.239 12.52 30.093 0 0 1.868 8.567 1.319 10.326-.55 1.755 1.976 10.323.55 14.166-1.428 3.845 1.317 8.348.328 10.656-.99 2.306-1.318 12.082-2.526 15.486-1.209 3.405-.22 7.027-3.624 13.4-3.405 6.37-3.954 11.971-5.822 15.158-1.865 3.182-2.856 8.896-6.48 13.399-3.624 4.503-5.492 10.763-8.568 13.838-3.073 3.076-4.393 10.765-7.797 13.51-3.405 2.745-8.458 12.741-10.544 14.278-2.087 1.538-6.81 7.03-4.063 10.106 0 0-20.686 18.855-32.364-1.061z"/><path fill="#C5C19D" d="M110.86 189.27s4.979-15.963 7.76-17.283c2.783-1.316 7.322-12.74 12.889-14.642 0 0 5.418-9.812 9.81-12.01 4.393-2.195 8.054-10.91 9.921-12.448 1.867-1.54 7.031-12.412 8.897-13.512 1.867-1.096 5.163-13.178 6.482-13.507 1.316-.328 3.184-10.874 5.16-12.849 1.978-1.98 1.978-12.191 3.294-13.512 1.319-1.318 1.54-9.445 2.307-10.763.77-1.317 1.758-13.84 2.637-15.046.879-1.21.329-34.6-2.086-37.783 0 0 2.086 8.239 5.82 30.093 0 0 1.868 8.567 1.32 10.326-.55 1.755 1.977 10.323.548 14.166-1.429 3.845 1.319 8.348.33 10.656-.989 2.306-1.318 12.082-2.527 15.486-1.21 3.405-.22 7.027-3.624 13.4-3.406 6.37-3.955 11.971-5.821 15.158-1.867 3.182-2.858 8.896-6.482 13.399-3.624 4.503-5.491 10.763-8.567 13.838-3.074 3.076-4.39 10.765-7.798 13.51-3.404 2.745-8.457 12.741-10.543 14.278-2.088 1.538-9.666 13.112-2.636 13.66 0 0-15.228 12.008-27.09-4.615z"/><path d="M147.205 180.215c-1.363-2.449-3.146-4.577-5.21-6.382-1.016-.918-2.125-1.776-3.371-2.4a13.399 13.399 0 0 0-3.968-1.22c-2.746-.402-5.516-.298-8.241.135-2.736.384-5.427 1.097-8.133 1.864a.045.045 0 0 1-.054-.03.045.045 0 0 1 .021-.052 27.99 27.99 0 0 1 8.02-2.708c2.804-.445 5.734-.426 8.486.32 1.376.36 2.703.854 3.991 1.433 1.29.574 2.566 1.23 3.713 2.093 2.252 1.763 4.002 4.201 4.828 6.916a.044.044 0 0 1-.03.055c-.019.006-.042-.007-.052-.024zM157.24 166.653c-.787-2.652-1.85-5.175-3.28-7.467-.7-1.152-1.51-2.271-2.564-3.148a8.979 8.979 0 0 0-3.631-1.797c-2.65-.624-5.387-.311-7.985.419-2.622.693-5.141 1.793-7.664 2.944a.044.044 0 0 1-.058-.022.045.045 0 0 1 .013-.055c2.247-1.633 4.748-2.96 7.456-3.77 2.694-.762 5.696-.967 8.376.023 1.333.48 2.56 1.184 3.67 2.034 1.114.842 2.15 1.824 2.993 2.964 1.628 2.319 2.554 5.082 2.76 7.861a.044.044 0 0 1-.04.048.046.046 0 0 1-.047-.034zM165.477 152.776a22.784 22.784 0 0 0-3.79-5.798c-.75-.867-1.586-1.699-2.579-2.32-.99-.618-2.11-1.019-3.248-1.242-2.287-.429-4.608-.362-6.89.008-2.292.32-4.546.942-6.83 1.586a.044.044 0 0 1-.054-.03.044.044 0 0 1 .021-.051c2.074-1.161 4.342-2.009 6.715-2.43 2.368-.385 4.872-.326 7.16.451 1.143.382 2.232.876 3.27 1.462 1.044.576 2.071 1.228 2.96 2.057 1.73 1.697 2.933 3.928 3.349 6.285a.043.043 0 0 1-.036.05c-.02.004-.04-.01-.048-.028zM173.715 139.125a20.572 20.572 0 0 0-3.861-5.098c-.747-.752-1.567-1.47-2.52-1.984a9.138 9.138 0 0 0-3.072-.962c-2.136-.278-4.275-.143-6.378.239-2.115.335-4.195.925-6.31 1.52a.044.044 0 0 1-.054-.03.045.045 0 0 1 .019-.052 20.123 20.123 0 0 1 6.178-2.36c2.186-.397 4.496-.413 6.644.212 1.074.3 2.102.707 3.1 1.179 1 .464 1.997.99 2.88 1.692 1.72 1.446 2.974 3.45 3.458 5.617a.045.045 0 0 1-.033.053c-.02.004-.041-.008-.051-.026zM180.744 125.215a20.934 20.934 0 0 0-3.71-4.484c-.695-.668-1.447-1.315-2.317-1.777-.868-.464-1.83-.736-2.799-.868-1.943-.252-3.884-.171-5.803.135-1.928.258-3.832.737-5.776 1.217a.043.043 0 0 1-.054-.033.044.044 0 0 1 .02-.049c1.743-1 3.662-1.703 5.665-2.06 2-.32 4.104-.277 6.05.32.974.29 1.906.67 2.822 1.082.915.411 1.838.861 2.663 1.474 1.602 1.268 2.828 3.044 3.321 5.013a.043.043 0 0 1-.032.053c-.019.005-.04-.007-.05-.023zM186.29 110.674c-1.067-1.525-2.388-2.743-3.853-3.776-.72-.535-1.494-1.046-2.353-1.376-.858-.328-1.777-.483-2.691-.521-1.833-.07-3.642.083-5.44.37-1.807.248-3.6.633-5.44.981a.044.044 0 0 1-.052-.035.045.045 0 0 1 .022-.048 18.753 18.753 0 0 1 5.32-1.824c1.863-.295 3.8-.332 5.651.079.926.194 1.825.458 2.723.729.895.273 1.81.564 2.653 1.03 1.644.97 3.009 2.522 3.541 4.357a.045.045 0 0 1-.03.054c-.019.006-.041-.006-.052-.02zM189.97 96.875c-.872-1.507-2.078-2.665-3.456-3.592-.677-.482-1.418-.933-2.235-1.201-.817-.265-1.684-.355-2.54-.339-1.716.04-3.398.26-5.076.579-1.685.274-3.36.65-5.089.958a.044.044 0 0 1-.052-.036.044.044 0 0 1 .023-.047 18.659 18.659 0 0 1 4.945-1.796c1.73-.326 3.534-.435 5.284-.138.875.14 1.73.339 2.583.545.851.21 1.725.435 2.536.85 1.577.866 2.856 2.418 3.16 4.192a.045.045 0 0 1-.035.05.043.043 0 0 1-.045-.02l-.003-.005zM192.722 81.18c-1.195-1.007-2.584-1.575-4.001-2.107-.703-.284-1.435-.57-2.2-.704-.764-.138-1.548-.132-2.32-.063a69.029 69.029 0 0 0-4.59.617c-1.529.21-3.055.466-4.634.626a.044.044 0 0 1-.05-.04.044.044 0 0 1 .026-.044c1.428-.697 2.95-1.163 4.505-1.466 1.562-.259 3.165-.354 4.746-.174l2.356.26c.784.073 1.587.111 2.377.289.786.19 1.536.534 2.211.987.67.454 1.289 1.032 1.646 1.77a.044.044 0 0 1-.067.054l-.005-.004zM191.947 71.175c-.802-1.056-1.82-1.747-2.915-2.354-.538-.322-1.116-.645-1.746-.814-.629-.17-1.29-.193-1.94-.15-1.301.107-2.573.279-3.849.49-1.283.169-2.567.382-3.908.49a.045.045 0 0 1-.049-.04.047.047 0 0 1 .023-.043c1.185-.645 2.464-1.068 3.78-1.33 1.323-.217 2.693-.277 4.026-.047l1.978.352c.657.108 1.341.193 1.997.43 1.265.512 2.426 1.605 2.685 2.986a.044.044 0 0 1-.078.035l-.004-.005zM191.813 56.11c.013.031.026.058.037.094-.004.042.053.053-.033.171-.199.057-.18-.037-.225-.038l-.085-.064a3.663 3.663 0 0 1-.286-.25c-.18-.167-.346-.336-.513-.503-.331-.336-.664-.65-.975-.995-.306-.346-.603-.74-1.003-1.003-.395-.267-.86-.414-1.328-.481a13.046 13.046 0 0 0-2.762-.064c-.921.032-1.848.154-2.852.211a.045.045 0 0 1-.048-.042.045.045 0 0 1 .019-.04c.82-.592 1.79-.943 2.805-1.064 1.012-.079 2.078.065 2.984.54l1.325.693c.439.224.929.405 1.346.703.414.299.746.695 1.02 1.115.138.211.26.43.362.658.055.11.096.23.141.338l.032.075c-.004.037.062.008-.078.045-.036.084.03-.05.03-.091a.044.044 0 0 1 .084-.017l.003.01z"/><path fill="none" stroke="#000" stroke-width="1.757" stroke-miterlimit="10" d="M110.86 189.27s4.979-15.963 7.76-17.283c2.783-1.316 7.322-12.74 12.889-14.642 0 0 5.418-9.812 9.81-12.01 4.393-2.195 8.054-10.91 9.921-12.448 1.867-1.54 5.054-12.225 8.897-13.512 4.165-1.388 5.163-13.178 6.482-13.507 1.316-.328 2.085-10.469 5.16-12.849 2.212-1.715 1.978-12.191 3.294-13.512 1.319-1.318 1.54-9.445 2.307-10.763.77-1.317 1.758-13.84 2.637-15.046.879-1.21.329-34.6-2.086-37.783 0 0 8.786 8.239 12.52 30.093 0 0 1.868 8.567 1.319 10.326-.55 1.755 1.976 10.323.55 14.166-1.428 3.845 1.317 8.348.328 10.656-.99 2.306-1.318 12.082-2.526 15.486-1.209 3.405.534 7.493-3.624 13.4-4.613 6.556-3.954 11.971-5.822 15.158-1.865 3.182-2.424 9.278-6.48 13.399-4.722 4.798-5.492 10.763-8.568 13.838-3.073 3.076-4.393 10.765-7.797 13.51-3.405 2.745-8.458 12.741-10.544 14.278-2.087 1.538-6.81 7.03-4.063 10.106 0 0-20.686 18.855-32.364-1.061z"/><path d="M115.4 178.214s7.467-7.76 14.056-8.2c0 0-9.812-.587-11.713 2.636-1.904 3.221-2.344 5.564-2.344 5.564zM141.394 146.143s5.71-3.296 8.273-3.077c2.562.22-5.784-1.683-8.273 3.077zM150.62 134.136c-.123.233 9.518-3.88 10.69-3.515 0 0-7.69-2.345-10.69 3.515zM128.506 160.312s9.445-5.712 11.093-5.712c0 0-9.885.327-11.093 5.712zM159.258 120.551s4.284-2.308 9.227-2.526c0 0-5.383-2.746-9.227 2.526zM165.793 110.336s2.361-5.052 6.426-5.16c0 0-6.892-1.868-6.426 5.16zM170.956 95.345s2.525-2.967 5.876-3.241c0 0-3.625-.219-4.777.88-1.155 1.096-1.099 2.36-1.099 2.36zM174.929 82.585s1.023-3.441 3.733-3.807c0 0-2.121-.513-3.44 1.318-1.318 1.833-.293 2.49-.293 2.49zM177.27 71.529s4.323-3.588 5.567-3.588c0 0-2.93-.732-4.906.514-1.979 1.242-.66 3.074-.66 3.074z"/></g></svg>